<svg xmlns="http://www.w3.org/2000/svg" width="73" height="73" viewBox="0 0 73 73" fill="none">
  <path fill-rule="evenodd" clip-rule="evenodd" d="M60.5001 17.5427C61.0705 17.5961 61.6005 17.8604 61.9862 18.284C62.372 18.7075 62.5858 19.2598 62.5858 19.8327C62.5858 20.4056 62.372 20.9579 61.9862 21.3815C61.6005 21.805 61.0705 22.0693 60.5001 22.1227C60.1814 22.1525 59.8599 22.1155 59.5564 22.014C59.2528 21.9124 58.9737 21.7487 58.7371 21.5331C58.5004 21.3176 58.3114 21.055 58.182 20.7622C58.0527 20.4694 57.9858 20.1528 57.9858 19.8327C57.9858 19.5126 58.0527 19.196 58.182 18.9032C58.3114 18.6104 58.5004 18.3479 58.7371 18.1323C58.9737 17.9168 59.2528 17.753 59.5564 17.6515C59.8599 17.5499 60.1814 17.5129 60.5001 17.5427Z" fill="#3A76F0"/>
  <path fill-rule="evenodd" clip-rule="evenodd" d="M10.84 55.4623C10.3851 55.4623 9.94046 55.3274 9.56223 55.0747C9.18399 54.822 8.8892 54.4627 8.71512 54.0425C8.54104 53.6222 8.49549 53.1598 8.58423 52.7136C8.67298 52.2674 8.89203 51.8576 9.21369 51.536C9.53536 51.2143 9.94518 50.9952 10.3913 50.9065C10.8375 50.8178 11.2999 50.8633 11.7202 51.0374C12.1405 51.2115 12.4997 51.5063 12.7524 51.8845C13.0051 52.2627 13.14 52.7074 13.14 53.1623C13.14 53.7723 12.8977 54.3573 12.4664 54.7887C12.0351 55.22 11.45 55.4623 10.84 55.4623Z" fill="#3A76F0"/>
  <path fill-rule="evenodd" clip-rule="evenodd" d="M47.4801 24.3025C45.1012 22.0845 42.095 20.6557 38.8729 20.2118C35.6508 19.7679 32.3702 20.3304 29.4801 21.8225C23.4801 25.0425 20.0001 32.9625 20.7801 42.6425C17.3833 40.9955 14.3135 38.7457 11.7201 36.0025C4.94011 28.7825 2.70011 20.3025 6.00011 15.0025C9.30011 9.70251 18.1401 7.24251 24.8401 14.4625C27.0201 4.88251 35.8601 2.46251 41.4001 5.52251C46.5001 8.30251 48.8601 15.6425 47.4801 24.3025Z" fill="#3A76F0"/>
  <path fill-rule="evenodd" clip-rule="evenodd" d="M61.3601 56.3023C56.5001 61.7223 46.9001 65.9023 39.1401 68.3023C34.3001 63.0423 28.8401 55.9223 26.6801 49.4023C23.5601 41.0223 25.1401 28.7823 31.5801 25.8223C34.0654 24.5694 36.9277 24.2849 39.611 25.0241C42.2943 25.7633 44.6071 27.4734 46.1001 29.8223C47.077 31.3257 47.7559 33.0028 48.1001 34.7623C48.4201 34.4223 48.7801 34.1223 49.0401 33.8223C55.5801 27.8223 63.8001 30.1623 67.0401 35.3223C70.2801 40.4823 68.0401 49.0623 61.3601 56.3023Z" fill="#3A76F0"/>
  <path fill-rule="evenodd" clip-rule="evenodd" d="M57.2002 6.46266C57.1992 6.27761 57.254 6.09655 57.3575 5.94312C57.4609 5.7897 57.6083 5.67105 57.7802 5.60266C57.9515 5.52574 58.1428 5.50559 58.3263 5.54517C58.5099 5.58475 58.6759 5.68199 58.8002 5.82266L59.7002 6.82266C59.7895 6.91874 59.8979 6.99506 60.0185 7.04673C60.139 7.09839 60.2691 7.12426 60.4002 7.12266H61.7402C61.928 7.11176 62.1145 7.15997 62.2735 7.26052C62.4325 7.36107 62.5559 7.50891 62.6266 7.68326C62.6972 7.85761 62.7114 8.0497 62.6672 8.23255C62.623 8.41539 62.5227 8.5798 62.3802 8.70266L61.4002 9.60266C61.301 9.68942 61.2225 9.79737 61.1706 9.91853C61.1187 10.0397 61.0946 10.171 61.1002 10.3027V11.6427C61.1044 11.83 61.0513 12.0141 60.948 12.1705C60.8447 12.3268 60.6961 12.4478 60.5221 12.5174C60.3482 12.587 60.1571 12.6018 59.9745 12.5599C59.7918 12.5179 59.6264 12.4212 59.5002 12.2827L58.6002 11.3027C58.5135 11.2034 58.4055 11.1249 58.2844 11.073C58.1632 11.0211 58.0319 10.997 57.9002 11.0027H56.5602C56.3724 11.005 56.1881 10.951 56.0313 10.8476C55.8744 10.7442 55.7522 10.5962 55.6802 10.4227C55.6087 10.2489 55.5934 10.0571 55.6365 9.87413C55.6795 9.6912 55.7787 9.52634 55.9202 9.40266L56.9002 8.50266C56.9995 8.4159 57.0779 8.30795 57.1299 8.18679C57.1818 8.06564 57.2058 7.93436 57.2002 7.80266C57.2002 7.48266 57.2002 6.98266 57.2002 6.46266Z" fill="#3A76F0"/>
  <path fill-rule="evenodd" clip-rule="evenodd" d="M19.8 63.1423C19.7337 63.3167 19.616 63.4669 19.4624 63.5728C19.3088 63.6788 19.1266 63.7355 18.94 63.7355C18.7534 63.7355 18.5712 63.6788 18.4176 63.5728C18.264 63.4669 18.1463 63.3167 18.08 63.1423L17.62 61.8823C17.5167 61.6392 17.3231 61.4456 17.08 61.3423L15.82 60.8823C15.6456 60.816 15.4954 60.6983 15.3895 60.5447C15.2835 60.3911 15.2268 60.2089 15.2268 60.0223C15.2268 59.8357 15.2835 59.6535 15.3895 59.4999C15.4954 59.3463 15.6456 59.2286 15.82 59.1623L17.08 58.7023C17.2041 58.6574 17.3168 58.5857 17.4101 58.4924C17.5034 58.3991 17.5751 58.2864 17.62 58.1623C17.74 57.8623 17.9 57.4023 18.08 56.9223C18.1463 56.7479 18.264 56.5977 18.4176 56.4918C18.5712 56.3858 18.7534 56.3291 18.94 56.3291C19.1266 56.3291 19.3088 56.3858 19.4624 56.4918C19.616 56.5977 19.7337 56.7479 19.8 56.9223C19.98 57.4023 20.16 57.8623 20.26 58.1623C20.3049 58.2864 20.3766 58.3991 20.4699 58.4924C20.5632 58.5857 20.6759 58.6574 20.8 58.7023L22.06 59.1623C22.2344 59.2286 22.3846 59.3463 22.4905 59.4999C22.5965 59.6535 22.6532 59.8357 22.6532 60.0223C22.6532 60.2089 22.5965 60.3911 22.4905 60.5447C22.3846 60.6983 22.2344 60.816 22.06 60.8823L20.8 61.3423C20.5569 61.4456 20.3633 61.6392 20.26 61.8823C20.16 62.2023 19.98 62.6623 19.8 63.1423Z" fill="#3A76F0"/>
</svg>