<svg xmlns="http://www.w3.org/2000/svg" width="73" height="73" viewBox="0 0 73 73" fill="none">
  <g clip-path="url(#clip0_237_51761)">
    <path d="M23.9844 65.1308L34.5307 72.1621V58.5269L23.9844 51.4951V65.1308Z" fill="#3A76F0"/>
    <path d="M49.2964 51.4946L38.7495 58.5264V72.1621L49.2964 65.1309V51.4946Z" fill="#3A76F0"/>
    <path d="M64.062 54.1583V41.6509L53.5151 48.6821V62.3189L63.1227 55.9139C63.7094 55.5222 64.062 54.863 64.062 54.1583Z" fill="#3A76F0"/>
    <path d="M9.21875 54.1582C9.21875 54.863 9.57086 55.5222 10.1581 55.9133L19.7656 62.3183V48.6826L9.21875 41.6514V54.1582Z" fill="#3A76F0"/>
    <path d="M64.062 20.5571L53.4657 27.6213C53.4756 27.7054 53.5151 27.779 53.5151 27.8658V43.612L64.062 36.5807V20.5571Z" fill="#3A76F0"/>
    <path d="M9.21875 36.5812L19.7656 43.6125V27.8658C19.7656 27.779 19.8046 27.7048 19.8151 27.6213L9.21875 20.5571V36.5812Z" fill="#3A76F0"/>
    <path d="M35.47 0.517655L23.9838 8.45638L36.64 16.8939L49.2963 8.45638L37.8101 0.517655C37.1014 0.0435943 36.1786 0.0435943 35.47 0.517655Z" fill="#3A76F0"/>
    <path d="M53.0987 10.9907L40.443 19.4282L49.2958 25.3306L61.9526 16.8937L53.0987 10.9907Z" fill="#3A76F0"/>
    <path d="M11.3281 16.8937L23.9844 25.3306L32.8377 19.4282L20.1815 10.9907L11.3281 16.8937Z" fill="#3A76F0"/>
    <path d="M24.6227 46.8507L36.6395 54.8625L48.6575 46.8507L36.6401 38.8384L24.6227 46.8507Z" fill="#3A76F0"/>
    <path d="M23.9844 42.2057L34.5307 35.1744V23.3696L23.9844 30.4014V42.2057Z" fill="#3A76F0"/>
    <path d="M38.7495 35.1744L49.2964 42.2057V30.4014L38.7495 23.3696V35.1744Z" fill="#3A76F0"/>
  </g>
  <defs>
    <clipPath id="clip0_237_51761">
      <rect width="72" height="72" fill="white" transform="translate(0.5 0.302734)"/>
    </clipPath>
  </defs>
</svg>