<svg xmlns="http://www.w3.org/2000/svg" width="73" height="73" viewBox="0 0 73 73" fill="none">
  <g clip-path="url(#clip0_237_51724)">
    <path d="M36.5 10.6735C35.258 10.6735 34.25 9.66549 34.25 8.42349V2.55249C34.25 1.31049 35.258 0.30249 36.5 0.30249C37.742 0.30249 38.75 1.31049 38.75 2.55249V8.42349C38.75 9.66549 37.742 10.6735 36.5 10.6735Z" fill="#3A76F0"/>
    <path d="M56.213 18.8396C55.637 18.8396 55.061 18.6206 54.623 18.1796C53.744 17.3006 53.744 15.8756 54.623 14.9966L58.775 10.8446C59.654 9.96555 61.079 9.96555 61.958 10.8446C62.837 11.7236 62.837 13.1486 61.958 14.0276L57.806 18.1796C57.365 18.6176 56.789 18.8396 56.213 18.8396Z" fill="#3A76F0"/>
    <path d="M70.25 38.5525H64.379C63.137 38.5525 62.129 37.5445 62.129 36.3025C62.129 35.0605 63.137 34.0525 64.379 34.0525H70.25C71.492 34.0525 72.5 35.0605 72.5 36.3025C72.5 37.5445 71.492 38.5525 70.25 38.5525Z" fill="#3A76F0"/>
    <path d="M60.365 62.4174C59.789 62.4174 59.213 62.1984 58.775 61.7574L54.623 57.6054C53.744 56.7264 53.744 55.3014 54.623 54.4224C55.502 53.5434 56.927 53.5434 57.806 54.4224L61.958 58.5744C62.837 59.4534 62.837 60.8784 61.958 61.7574C61.517 62.1984 60.941 62.4174 60.365 62.4174Z" fill="#3A76F0"/>
    <path d="M12.635 62.4174C12.059 62.4174 11.483 62.1984 11.045 61.7574C10.166 60.8784 10.166 59.4534 11.045 58.5744L15.197 54.4224C16.076 53.5434 17.501 53.5434 18.38 54.4224C19.259 55.3014 19.259 56.7264 18.38 57.6054L14.228 61.7574C13.787 62.1984 13.211 62.4174 12.635 62.4174Z" fill="#3A76F0"/>
    <path d="M8.621 38.5525H2.75C1.508 38.5525 0.5 37.5445 0.5 36.3025C0.5 35.0605 1.508 34.0525 2.75 34.0525H8.621C9.863 34.0525 10.871 35.0605 10.871 36.3025C10.871 37.5445 9.863 38.5525 8.621 38.5525Z" fill="#3A76F0"/>
    <path d="M16.787 18.8396C16.211 18.8396 15.635 18.6206 15.197 18.1796L11.045 14.0276C10.166 13.1486 10.166 11.7236 11.045 10.8446C11.924 9.96555 13.349 9.96555 14.228 10.8446L18.38 14.9966C19.259 15.8756 19.259 17.3006 18.38 18.1796C17.936 18.6176 17.363 18.8396 16.787 18.8396Z" fill="#3A76F0"/>
    <path d="M45.5 63.3025V67.0525C45.5 69.9325 43.13 72.3025 40.25 72.3025H32.75C30.23 72.3025 27.5 70.3825 27.5 66.1825V63.3025H45.5Z" fill="#3A76F0"/>
    <path d="M49.7299 19.9825C44.8099 15.9925 38.33 14.4325 32 15.7825C24.0499 17.4325 17.5999 23.9125 15.9499 31.8625C14.2699 40.0225 17.3299 48.1225 23.8699 53.0725C25.6399 54.3925 26.87 56.4325 27.29 58.8025V58.8325C27.3499 58.8025 27.4399 58.8025 27.5 58.8025H45.5C45.5599 58.8025 45.59 58.8025 45.65 58.8325V58.8025C46.07 56.5225 47.42 54.4225 49.4899 52.8025C54.56 48.7825 57.5 42.7825 57.5 36.3025C57.5 29.9425 54.68 24.0025 49.7299 19.9825ZM47.75 37.8025C46.52 37.8025 45.5 36.7825 45.5 35.5525C45.5 30.9925 41.81 27.3025 37.25 27.3025C36.02 27.3025 35 26.2825 35 25.0525C35 23.8225 36.02 22.8025 37.25 22.8025C44.27 22.8025 50 28.5325 50 35.5525C50 36.7825 48.9799 37.8025 47.75 37.8025Z" fill="#3A76F0"/>
    <path d="M27.29 58.8025H27.5C27.44 58.8025 27.35 58.8025 27.29 58.8325V58.8025Z" fill="#3A76F0"/>
    <path d="M45.65 58.8025V58.8325C45.59 58.8025 45.56 58.8025 45.5 58.8025H45.65Z" fill="#3A76F0"/>
  </g>
  <defs>
    <clipPath id="clip0_237_51724">
      <rect width="72" height="72" fill="white" transform="translate(0.5 0.30249)"/>
    </clipPath>
  </defs>
</svg>