<svg xmlns="http://www.w3.org/2000/svg" width="73" height="73" viewBox="0 0 73 73" fill="none">
<path d="M52.0123 24.9907L58.0582 18.7729C58.197 18.6301 58.2948 18.4524 58.3399 18.2585C58.385 18.0645 58.3763 17.8619 58.3148 17.6726C58.2532 17.4832 58.1411 17.3142 57.9906 17.1839C57.84 17.0535 57.6568 16.9668 57.4606 16.9329L48.9148 15.4587L44.8679 7.78875C44.7751 7.61266 44.6359 7.46526 44.4654 7.36244C44.2949 7.25962 44.0996 7.20528 43.9005 7.20528C43.7014 7.20528 43.5061 7.25962 43.3356 7.36244C43.1652 7.46526 43.026 7.61266 42.9331 7.78875L38.8902 15.4587L30.3446 16.9326C30.1484 16.9665 29.9651 17.0533 29.8146 17.1837C29.6641 17.314 29.552 17.483 29.4905 17.6723C29.4289 17.8617 29.4202 18.0643 29.4653 18.2582C29.5104 18.4522 29.6076 18.6301 29.7464 18.7729L35.7927 24.9907L34.5557 33.5766C34.5273 33.7738 34.5532 33.9749 34.6308 34.1583C34.7083 34.3417 34.8344 34.5005 34.9956 34.6175L36.1215 34.7137L43.9008 30.8826L51.6836 34.7139L52.8096 34.6176C52.9707 34.5005 53.0968 34.3417 53.1743 34.1583C53.2518 33.9749 53.2778 33.7737 53.2494 33.5766L52.0123 24.9907Z" fill="white"/>
<path d="M32.3721 30.1611L26.6559 33.4629C26.5314 33.5375 26.3933 33.5865 26.2497 33.6072C26.1061 33.6279 25.9598 33.6198 25.8193 33.5834C25.6788 33.547 25.547 33.483 25.4315 33.3951C25.316 33.3073 25.2191 33.1973 25.1466 33.0716C25.074 32.9459 25.0272 32.8071 25.0088 32.6631C24.9904 32.5192 25.0009 32.373 25.0396 32.2331C25.0782 32.0933 25.1444 31.9625 25.2341 31.8484C25.3238 31.7344 25.4353 31.6393 25.5622 31.5688L31.2784 28.2669C31.5293 28.1261 31.8256 28.0899 32.1031 28.166C32.3806 28.2422 32.6169 28.4247 32.7608 28.6738C32.9046 28.923 32.9445 29.2189 32.8718 29.4973C32.799 29.7757 32.6195 30.0142 32.3721 30.1611Z" fill="white"/>
<path d="M33.9698 10.9541C33.9036 11.0815 33.8129 11.1947 33.7029 11.2871C33.4809 11.4737 33.1938 11.5644 32.9048 11.5393C32.6158 11.5143 32.3486 11.3754 32.162 11.1534L27.9145 6.10068C27.7278 5.87861 27.6369 5.59145 27.6619 5.30237C27.6869 5.0133 27.8257 4.74599 28.0478 4.55925C28.2699 4.37251 28.557 4.28164 28.8461 4.30662C29.1352 4.33161 29.4025 4.47041 29.5892 4.69248L33.8365 9.74602C33.9289 9.85597 33.9988 9.98306 34.0421 10.12C34.0854 10.257 34.1013 10.4011 34.0889 10.5442C34.0765 10.6873 34.036 10.8266 33.9698 10.9541Z" fill="white"/>
<path d="M62.7526 32.233C62.8276 32.5132 62.7882 32.8117 62.6432 33.0629C62.4981 33.314 62.2594 33.4973 61.9793 33.5723C61.6991 33.6473 61.4006 33.6079 61.1494 33.4629L55.4332 30.1611C55.3069 30.0903 55.196 29.9951 55.1068 29.8811C55.0176 29.767 54.9519 29.6364 54.9136 29.4968C54.8753 29.3572 54.8651 29.2114 54.8835 29.0678C54.902 28.9242 54.9488 28.7857 55.0212 28.6604C55.0935 28.535 55.1901 28.4252 55.3052 28.3375C55.4204 28.2497 55.5518 28.1856 55.6918 28.149C55.8319 28.1124 55.9778 28.104 56.1212 28.1242C56.2645 28.1445 56.4024 28.193 56.5269 28.2669L62.2433 31.5688C62.4944 31.7139 62.6776 31.9528 62.7526 32.233Z" fill="white"/>
<path d="M59.8902 6.1L55.643 11.1534C55.4563 11.3755 55.189 11.5149 54.8999 11.5399C54.6109 11.5649 54.3237 11.474 54.1017 11.2872C53.8796 11.1005 53.7408 10.8332 53.7159 10.5441C53.6909 10.2551 53.7818 9.96794 53.9685 9.74588L58.2157 4.69248C58.3081 4.58253 58.4213 4.49186 58.5487 4.42564C58.6762 4.35943 58.8154 4.31897 58.9585 4.30657C59.1016 4.29417 59.2458 4.31008 59.3827 4.35339C59.5197 4.3967 59.6467 4.46656 59.7567 4.55898C59.8666 4.65139 59.9573 4.76457 60.0235 4.89203C60.0897 5.01949 60.1302 5.15874 60.1426 5.30184C60.155 5.44494 60.1391 5.58907 60.0958 5.72602C60.0525 5.86297 59.9826 5.99005 59.8902 6.1Z" fill="white"/>
<path d="M8.94359 46.2406C7.91814 45.597 6.72905 44.9534 5.58359 44.9534C5.4745 44.9534 5.3545 44.9643 5.24541 44.9752C3.60905 45.1606 2.37632 46.1752 1.84177 47.7461C1.29632 49.3497 1.67814 51.0843 2.80177 52.1752C4.86359 54.1715 6.87086 56.2988 8.80177 58.3606C11.0054 60.7061 13.2963 63.1279 15.6636 65.3534C16.3509 66.0079 16.9836 66.5643 17.6818 66.8043C17.889 66.8697 18.02 66.9243 18.14 66.957C18.2381 66.9025 18.4127 66.7825 18.5218 66.717C20.289 65.5716 21.9254 64.2843 21.98 62.637C22.0018 61.8734 21.6527 61.0443 21.3145 60.3243C18.6418 54.597 14.2454 49.5897 8.94359 46.2406Z" fill="white"/>
<path d="M71.1798 33.5425C70.7762 33.128 69.8271 32.9425 68.9107 33.368C67.6889 33.9243 66.5544 34.7534 65.4526 35.5607C61.1544 38.7025 57.3798 42.7171 53.7253 46.6007L53.1471 47.2225C53.0489 47.3207 52.9398 47.3971 52.8198 47.4516C51.8817 48.6734 50.0926 49.3934 49.078 49.6225C46.8307 50.1462 44.6053 50.3425 42.4126 50.3425C38.2453 50.3425 34.2307 49.6116 30.5435 48.9352C29.9544 48.8262 29.5617 48.2589 29.6707 47.6698C29.7798 47.0807 30.3471 46.6771 30.9362 46.7971C36.3689 47.7898 42.5217 48.9134 48.5871 47.4952C49.8198 47.2116 51.1071 46.4152 51.2489 45.8589C51.3144 45.608 50.9871 45.2807 50.7907 45.1062C48.4126 42.9898 45.5217 42.7716 41.8562 42.488C40.678 42.4007 39.4671 42.3025 38.1798 42.1389C36.5544 41.9316 35.4635 41.2225 34.318 40.4807C33.8926 40.208 33.4453 39.9134 32.9326 39.6298C28.9835 37.4371 24.9471 36.8043 21.5653 37.8516C19.8307 38.3862 18.2162 39.3571 16.8744 40.2407C14.7471 41.6371 12.7071 43.1971 10.7871 44.8771C16.1217 48.4334 20.5507 53.5498 23.278 59.408C23.3326 59.5389 23.398 59.6698 23.4526 59.8116C28.3726 59.6262 32.8562 59.3534 37.5907 59.0698C40.5907 58.8843 43.6344 58.6989 46.8417 58.5352C50.638 58.3389 54.1617 56.4734 56.758 53.288L68.6707 38.6589C69.4889 37.6552 70.4271 36.4443 71.1253 35.0916C71.3762 34.6225 71.5835 33.968 71.1798 33.5425Z" fill="white"/>
</svg>