<svg xmlns="http://www.w3.org/2000/svg" width="73" height="73" viewBox="0 0 73 73" fill="none">
  <g clip-path="url(#clip0_237_51740)">
    <path d="M60.416 16.0339C60.416 16.7457 60.9157 14.6673 53.7327 41.469C53.3347 39.9252 53.454 43.2647 53.454 13.9508C55.5159 10.811 60.416 12.2928 60.416 16.0339Z" fill="#3A76F0"/>
    <path d="M51.1315 4.71564V36.3056C42.6802 21.6702 46.4066 28.1203 42.3057 21.0172V4.71564C42.3057 2.28273 44.2857 0.302734 46.7186 0.302734C49.1894 0.302734 51.1315 2.30538 51.1315 4.71564Z" fill="#3A76F0"/>
    <path d="M46.029 32.1119L42.6032 28.6875C39.6206 25.7036 35.6979 23.993 31.0222 23.993L23.1951 10.9401C21.9875 8.84182 22.694 6.14298 24.8137 4.91884C26.9457 3.68947 29.6358 4.44663 30.8422 6.53448C42.7829 26.3788 36.6722 15.9046 46.029 32.1119Z" fill="#3A76F0"/>
    <path d="M52.3509 48.8723C52.3509 56.1217 49.4682 63.1095 44.3191 68.263C41.8063 70.7728 38.4691 72.207 34.9213 72.2985C34.3561 72.2985 37.097 72.3028 28.7578 72.3028C19.8362 72.3028 12.5767 65.0447 12.5767 56.1217V33.8249C12.5767 33.0991 13.1675 32.5097 13.8933 32.5097C14.0071 32.5097 14.1006 32.5032 14.2402 32.4647C14.6018 32.6083 17.8668 32.5585 20.0757 35.7556C21.5023 37.6617 21.4025 39.8821 21.4025 41.2572C21.4025 46.226 23.548 50.951 27.2859 54.2244C31.3338 57.7677 37.6663 54.8621 37.6663 49.5139C37.6649 43.5758 37.8931 42.2072 36.8592 39.8607C35.9341 37.7705 34.7701 36.8681 33.2099 35.4449C32.6789 35.0196 33.334 35.1415 22.4273 35.1415C20.9898 32.5857 18.2927 30.6486 15.0792 30.2597C15.2099 29.0101 15.881 27.817 17.0288 27.0502C18.9379 26.1189 16.8065 26.3157 31.272 26.3157C34.9315 26.3157 38.3733 27.7412 40.9615 30.3294L50.5175 39.8854L51.2404 41.1381C51.9177 43.6263 52.3509 45.9163 52.3509 48.8723Z" fill="#3A76F0"/>
  </g>
  <defs>
    <clipPath id="clip0_237_51740">
      <rect width="72" height="72" fill="white" transform="translate(0.5 0.302734)"/>
    </clipPath>
  </defs>
</svg>