<svg xmlns="http://www.w3.org/2000/svg" width="32" height="32" viewBox="0 0 32 32" fill="none">
<path fill-rule="evenodd" clip-rule="evenodd" d="M1.60001 7.59999C1.60001 6.93725 2.13726 6.39999 2.80001 6.39999H29.2C29.8627 6.39999 30.4 6.93725 30.4 7.59999C30.4 8.26274 29.8627 8.79999 29.2 8.79999H2.80001C2.13726 8.79999 1.60001 8.26274 1.60001 7.59999ZM1.60001 16C1.60001 15.3373 2.13726 14.8 2.80001 14.8H29.2C29.8627 14.8 30.4 15.3373 30.4 16C30.4 16.6627 29.8627 17.2 29.2 17.2H2.80001C2.13726 17.2 1.60001 16.6627 1.60001 16ZM1.60001 24.4C1.60001 23.7373 2.13726 23.2 2.80001 23.2H29.2C29.8627 23.2 30.4 23.7373 30.4 24.4C30.4 25.0627 29.8627 25.6 29.2 25.6H2.80001C2.13726 25.6 1.60001 25.0627 1.60001 24.4Z" fill="#3872E8"/>
</svg>