<svg xmlns="http://www.w3.org/2000/svg" width="21" height="21" viewBox="0 0 21 21" fill="none">
  <g clip-path="url(#clip0_106_4815)">
    <path d="M1.33838 6.52274H0.752441C0.428848 6.52274 0.166504 6.78508 0.166504 7.10867V16.4837C0.166504 16.8073 0.428848 17.0696 0.752441 17.0696H1.33838C1.98561 17.0696 2.51025 16.545 2.51025 15.8977V7.69461C2.51025 7.04742 1.98561 6.52274 1.33838 6.52274Z" fill="white"/>
    <path d="M18.4087 6.52275H12.7138L10.8576 4.66709C9.79783 3.60678 8.11783 3.51525 6.94826 4.44795L3.68213 7.06107C3.68213 14.6285 3.68213 12.7619 3.68213 16.147C5.36955 16.7478 7.13768 17.0697 8.95557 17.0697H11.2993C12.2686 17.0697 13.0571 16.2811 13.0571 15.3119C13.0571 15.0835 13.0137 14.865 12.9335 14.6641C13.6797 14.461 14.229 13.7772 14.229 12.9681C14.229 12.7398 14.1855 12.5212 14.1054 12.3204C14.8516 12.1172 15.4009 11.4335 15.4009 10.6244C15.4009 10.4189 15.3654 10.2215 15.3002 10.0384H18.4087C19.378 10.0384 20.1665 9.2499 20.1665 8.2806C20.1665 7.31131 19.378 6.52275 18.4087 6.52275Z" fill="white"/>
  </g>
  <defs>
    <clipPath id="clip0_106_4815">
      <rect width="20" height="20" fill="white" transform="translate(0.166504 0.437622)"/>
    </clipPath>
  </defs>
</svg>