<svg xmlns="http://www.w3.org/2000/svg" width="21" height="21" viewBox="0 0 21 21" fill="none">
  <g clip-path="url(#clip0_106_4822)">
    <path d="M11.7768 16.4564C11.7768 15.1009 12.3045 13.8263 13.2631 12.8677C14.2217 11.9091 15.4959 11.3814 16.8518 11.3814C17.9646 11.3814 19.0229 11.7376 19.8967 12.3954C19.9451 11.6876 19.9752 10.8958 19.9764 10.0095C19.974 7.7802 19.7869 6.14778 19.5873 4.94817C19.2381 2.97161 17.4428 1.17629 15.4662 0.827075C14.2666 0.627075 12.6342 0.439966 10.4045 0.437622C8.1752 0.439966 6.54238 0.627075 5.34277 0.826685C3.3666 1.1759 1.57129 2.97122 1.22207 4.94778C1.02246 6.14739 0.835742 7.77981 0.833008 10.0091C0.835742 12.2384 1.02246 13.8712 1.22207 15.0708C1.57129 17.0474 3.3666 18.8427 5.34316 19.1919C6.54277 19.3915 8.17519 19.5782 10.4049 19.581C11.2912 19.5798 12.083 19.5497 12.7908 19.5013C12.133 18.6275 11.7768 17.5697 11.7768 16.4564ZM5.6752 5.0634H15.1342C15.7459 5.0634 16.242 5.5595 16.242 6.17122C16.242 6.78293 15.7459 7.27903 15.1342 7.27903H5.6752C5.06348 7.27903 4.56738 6.78293 4.56738 6.17122C4.56738 5.5595 5.06348 5.0634 5.6752 5.0634ZM5.6752 11.9052C5.06348 11.9052 4.56738 11.4091 4.56738 10.7974C4.56738 10.1857 5.06348 9.68958 5.6752 9.68958H11.2279C11.8396 9.68958 12.3357 10.1857 12.3357 10.7974C12.3357 11.4091 11.8396 11.9052 11.2279 11.9052H5.6752Z" fill="white"/>
    <path d="M16.8514 12.4751C14.6525 12.4751 12.8701 14.2575 12.8701 16.4564C12.8701 18.6552 14.6525 20.4376 16.8514 20.4376C19.0502 20.4376 20.8326 18.6552 20.8326 16.4564C20.8326 14.2575 19.0502 12.4751 16.8514 12.4751ZM17.5936 18.4318C17.5936 18.8415 17.2611 19.174 16.8514 19.174C16.4416 19.174 16.1092 18.8415 16.1092 18.4318V16.4736C16.1092 16.0638 16.4416 15.7314 16.8514 15.7314C17.2611 15.7314 17.5936 16.0638 17.5936 16.4736V18.4318ZM17.5631 14.8849C17.5357 15.0396 17.3951 15.1802 17.2404 15.2075C17.1467 15.2232 17.0186 15.2376 16.8439 15.238C16.6693 15.238 16.5416 15.2232 16.4475 15.2075C16.2928 15.1802 16.1521 15.0396 16.1248 14.8849C16.1092 14.7911 16.0947 14.663 16.0943 14.4884C16.0943 14.3138 16.1092 14.1861 16.1248 14.0919C16.1521 13.9372 16.2928 13.7966 16.4475 13.7693C16.5412 13.7536 16.6693 13.7392 16.8439 13.7388C17.0186 13.7388 17.1463 13.7536 17.2404 13.7693C17.3951 13.7966 17.5357 13.9372 17.5631 14.0919C17.5787 14.1857 17.5932 14.3138 17.5936 14.4884C17.5936 14.663 17.5787 14.7908 17.5631 14.8849Z" fill="white"/>
  </g>
  <defs>
    <clipPath id="clip0_106_4822">
      <rect width="20" height="20" fill="white" transform="translate(0.833008 0.437622)"/>
    </clipPath>
  </defs>
</svg>