<svg xmlns="http://www.w3.org/2000/svg" width="25" height="25" viewBox="0 0 25 25" fill="none">
  <path d="M20.5002 11.4366H22.5002C22.5002 6.30662 18.6272 2.43762 13.4902 2.43762V4.43762C17.5522 4.43762 20.5002 7.38062 20.5002 11.4366Z" fill="white"/>
  <path d="M13.4998 8.43762C15.6028 8.43762 16.4998 9.33462 16.4998 11.4376H18.4998C18.4998 8.21262 16.7248 6.43762 13.4998 6.43762V8.43762ZM16.9218 13.8806C16.7296 13.706 16.4771 13.6128 16.2176 13.6208C15.9581 13.6289 15.7118 13.7374 15.5308 13.9236L13.1378 16.3846C12.5618 16.2746 11.4038 15.9136 10.2118 14.7246C9.01979 13.5316 8.65879 12.3706 8.55179 11.7986L11.0108 9.40462C11.1972 9.22374 11.3059 8.97744 11.314 8.71782C11.322 8.45821 11.2287 8.20566 11.0538 8.01362L7.35879 3.95062C7.18384 3.75797 6.94067 3.64112 6.68095 3.62488C6.42122 3.60863 6.16539 3.69428 5.96779 3.86362L3.79779 5.72462C3.6249 5.89813 3.52171 6.12907 3.50779 6.37362C3.49279 6.62362 3.20679 12.5456 7.79879 17.1396C11.8048 21.1446 16.8228 21.4376 18.2048 21.4376C18.4068 21.4376 18.5308 21.4316 18.5638 21.4296C18.8083 21.4159 19.0391 21.3123 19.2118 21.1386L21.0718 18.9676C21.2413 18.7701 21.3271 18.5144 21.311 18.2547C21.295 17.9949 21.1783 17.7517 20.9858 17.5766L16.9218 13.8806Z" fill="white"/>
</svg>