<svg xmlns="http://www.w3.org/2000/svg" width="72" height="73" viewBox="0 0 72 73" fill="none">
  <g clip-path="url(#clip0_237_51416)">
    <path d="M69.6937 18.1754C67.9499 20.1723 66.4593 22.0426 65.0531 23.6879H54.7171C53.6484 22.4504 51.8765 20.5379 49.964 18.5129C47.1796 15.5739 46.7578 11.5661 48.1499 8.31763H71.2265C72.5624 11.4395 72.2249 15.2504 69.6937 18.1754Z" fill="url(#paint0_linear_237_51416)"/>
    <path d="M67.3875 18.1754C66.0516 20.1723 64.8984 22.0426 63.8156 23.6879H55.8703C55.0547 22.4504 53.6766 20.5379 52.2141 18.5129C50.0766 15.5739 49.7531 11.5661 50.8219 8.31763H68.5828C69.5953 11.4395 69.3422 15.2504 67.3875 18.1754Z" fill="url(#paint1_linear_237_51416)"/>
    <path d="M67.3875 18.1754C66.0516 20.1723 64.8984 22.0426 63.8156 23.6879H55.8703C55.0547 22.4504 53.6766 20.5379 52.2141 18.5129C50.0766 15.5739 49.7531 11.5661 50.8219 8.31763H68.5828C69.5953 11.4395 69.3422 15.2504 67.3875 18.1754Z" fill="url(#paint2_linear_237_51416)"/>
    <path d="M62.8734 18.1754C62.3249 20.1723 61.8468 22.0426 61.3968 23.6879H58.1202C57.7827 22.4504 57.2202 20.5379 56.6155 18.5129C55.7296 15.5739 55.603 11.5661 56.039 8.31763H63.3655C63.7874 11.4395 63.6749 15.2504 62.8734 18.1754Z" fill="url(#paint3_linear_237_51416)"/>
    <path d="M62.8734 18.1754C62.3249 20.1723 61.8468 22.0426 61.3968 23.6879H58.1202C57.7827 22.4504 57.2202 20.5379 56.6155 18.5129C55.7296 15.5739 55.603 11.5661 56.039 8.31763H63.3655C63.7874 11.4395 63.6749 15.2504 62.8734 18.1754Z" fill="url(#paint4_linear_237_51416)"/>
    <path d="M47.939 15.2224C48.3608 16.3896 49.0358 17.5146 49.978 18.513C51.8905 20.524 53.6624 22.4365 54.7312 23.688H65.0671C66.4733 22.0568 67.964 20.1865 69.7077 18.1755C70.4952 17.2615 71.0718 16.263 71.4515 15.2224H47.939Z" fill="url(#paint5_linear_237_51416)"/>
    <path d="M71.2406 8.31771C71.7187 9.44271 71.1703 10.7505 70.0593 11.2146C66.9515 12.5365 63.4218 13.2818 59.6953 13.2818C55.9828 13.2818 52.4812 12.5505 49.3875 11.2427C48.2203 10.7505 47.6859 9.41458 48.1921 8.26146C49.3453 5.60364 51.7078 3.46614 54.9703 2.83333C58.064 2.22864 61.2281 2.21458 64.3359 2.79114C67.6546 3.39583 70.0875 5.58958 71.2406 8.31771Z" fill="url(#paint6_linear_237_51416)"/>
    <path d="M64.3359 2.77706C62.8031 2.49581 61.2422 2.35518 59.6953 2.36925V13.2817C63.4219 13.2817 66.9516 12.5364 70.0594 11.2286C71.1844 10.7505 71.7188 9.44268 71.2406 8.33175C70.0875 5.58956 67.6547 3.39581 64.3359 2.77706Z" fill="url(#paint7_linear_237_51416)"/>
    <path d="M65.6016 30.9162L64.3781 55.2021C64.2516 57.6912 62.1984 59.6599 59.6953 59.6599C57.1922 59.6599 55.1391 57.7052 55.0125 55.2021L53.7891 30.9162L59.6391 28.9333L65.6016 30.9162Z" fill="url(#paint8_linear_237_51416)"/>
    <path d="M65.6016 30.9162L64.3781 55.2021C64.2516 57.6912 62.1984 59.6599 59.6953 59.6599C57.1922 59.6599 55.1391 57.7052 55.0125 55.2021L53.7891 30.9162L59.6391 28.9333L65.6016 30.9162Z" fill="url(#paint9_linear_237_51416)"/>
    <path d="M54.5344 45.5552L55.0126 55.2021C55.1391 57.6911 57.1922 59.6599 59.6954 59.6599C62.1985 59.6599 64.2516 57.7052 64.3782 55.2021L64.8563 45.5552H54.5344Z" fill="url(#paint10_linear_237_51416)"/>
    <path d="M53.8031 30.9161H65.6016L65.9109 24.8411C65.9672 23.8005 65.1234 22.9146 64.0828 22.9146H55.3219C54.2812 22.9146 53.4375 23.7864 53.4937 24.8411L53.8031 30.9161Z" fill="url(#paint11_linear_237_51416)"/>
    <path d="M64.0688 22.9287H57.6422V30.9162H65.6016L65.911 24.8412C65.9532 23.8006 65.1235 22.9287 64.0688 22.9287Z" fill="url(#paint12_linear_237_51416)"/>
    <path d="M33.8625 24.6301H18.9985C14.3016 24.6301 10.111 25.9379 8.53599 27.8926L7.35474 29.3833H45.5063L44.3251 27.8926C42.7501 25.9379 38.5594 24.6301 33.8625 24.6301Z" fill="url(#paint13_linear_237_51416)"/>
    <path d="M33.8625 24.6301H18.9985C14.3016 24.6301 10.111 25.9379 8.53599 27.8926L7.35474 29.3833H45.5063L44.3251 27.8926C42.7501 25.9379 38.5594 24.6301 33.8625 24.6301Z" fill="url(#paint14_linear_237_51416)"/>
    <path d="M9.16875 28.0896H43.6922C45.0984 28.0896 46.2516 29.2427 46.2516 30.649V39.3115H6.60938V30.649C6.60938 29.2427 7.74844 28.0896 9.16875 28.0896Z" fill="url(#paint15_linear_237_51416)"/>
    <path d="M43.6922 28.0896H26.761V39.3115H46.2516V30.649C46.2516 29.2427 45.1126 28.0896 43.6922 28.0896Z" fill="url(#paint16_linear_237_51416)"/>
    <path d="M6.60938 32.6458H46.2516V39.3254H6.60938V32.6458Z" fill="url(#paint17_linear_237_51416)"/>
    <path d="M6.60938 32.6458H46.2516V39.3254H6.60938V32.6458Z" fill="url(#paint18_linear_237_51416)"/>
    <path d="M6.38438 36.8503H46.4625C49.9922 36.8503 52.8469 39.705 52.8469 43.2347V58.4222C52.8469 61.9519 49.9922 64.8066 46.4625 64.8066H6.38438C2.85469 64.8207 0 61.966 0 58.4363V43.2488C0 39.7191 2.85469 36.8503 6.38438 36.8503Z" fill="url(#paint19_linear_237_51416)"/>
    <path d="M46.4765 36.8503H25.7625V64.8207H46.4765C50.0062 64.8207 52.8609 61.966 52.8609 58.4363V43.2488C52.8609 39.7191 50.0062 36.8503 46.4765 36.8503Z" fill="url(#paint20_linear_237_51416)"/>
    <path d="M0 47.8613V58.4223C0 61.952 2.85469 64.8066 6.38438 64.8066H46.4625C49.9922 64.8066 52.8469 61.952 52.8469 58.4223V47.8613H0Z" fill="url(#paint21_linear_237_51416)"/>
    <path d="M42.2719 42.8552L10.6594 58.9005L16.5797 64.8208H46.4625C49.9922 64.8208 52.8469 61.9662 52.8469 58.4365V53.4443L42.2719 42.8552Z" fill="url(#paint22_linear_237_51416)"/>
    <path d="M6.22971 31.9426H46.6453C47.4469 31.9426 48.1078 32.5895 48.1078 33.4051C48.1078 34.2067 47.461 34.8676 46.6453 34.8676H6.22971C5.42815 34.8676 4.76721 34.2208 4.76721 33.4051C4.76721 32.5895 5.41409 31.9426 6.22971 31.9426Z" fill="url(#paint23_linear_237_51416)"/>
    <path d="M11.6578 42.3911H41.2031C42.0187 42.3911 42.6656 43.0521 42.6656 43.8536V57.8177C42.6656 58.6333 42.0047 59.2802 41.2031 59.2802H11.6578C10.8422 59.2802 10.1953 58.6192 10.1953 57.8177V43.8396C10.1953 43.038 10.8563 42.3911 11.6578 42.3911Z" fill="url(#paint24_linear_237_51416)"/>
    <path d="M10.1953 49.0286V57.8176C10.1953 58.6333 10.8563 59.2801 11.6578 59.2801H41.2031C42.0187 59.2801 42.6656 58.6192 42.6656 57.8176V49.0286H10.1953Z" fill="url(#paint25_linear_237_51416)"/>
    <path d="M41.2031 42.3911H28.125V59.2942H41.2031C42.0188 59.2942 42.6656 58.6333 42.6656 57.8317V43.8536C42.6656 43.038 42.0047 42.3911 41.2031 42.3911Z" fill="url(#paint26_linear_237_51416)"/>
    <path d="M19.4344 46.7786H34.1156C34.9453 46.7786 35.6203 47.4536 35.6203 48.2833C35.6203 49.1129 34.9453 49.7879 34.1156 49.7879H19.4344C18.6047 49.7879 17.9297 49.1129 17.9297 48.2833C17.9297 47.4536 18.6047 46.7786 19.4344 46.7786Z" fill="url(#paint27_linear_237_51416)"/>
    <path d="M13.7812 52.9238H39.0797C39.6281 52.9238 40.0641 53.3598 40.0641 53.9082C40.0641 54.4566 39.6281 54.8926 39.0797 54.8926H13.7812C13.2328 54.8926 12.7969 54.4566 12.7969 53.9082C12.7969 53.3738 13.2328 52.9238 13.7812 52.9238Z" fill="url(#paint28_linear_237_51416)"/>
    <path d="M68.6109 62.6976L56.5031 50.5897C54.4922 48.5788 51.2437 48.5788 49.2328 50.5897L37.125 62.6976C35.2406 64.5819 36.1265 67.8163 38.714 68.4772C48.0093 70.8397 57.7406 70.8397 67.0218 68.4772C69.6093 67.8163 70.4953 64.5819 68.6109 62.6976Z" fill="url(#paint29_linear_237_51416)"/>
    <path d="M56.5031 50.5756C54.4922 48.5646 51.2437 48.5646 49.2328 50.5756L48.1078 51.7006V70.024C54.4359 70.5443 60.8344 70.024 67.0219 68.449C69.6094 67.7881 70.4953 64.5678 68.6109 62.6693L56.5031 50.5756Z" fill="url(#paint30_linear_237_51416)"/>
    <path d="M37.1109 62.6974C35.2265 64.5817 36.1125 67.8161 38.7 68.4771C47.9953 70.8396 57.7266 70.8396 67.0078 68.4771C69.5953 67.8161 70.4812 64.5958 68.5969 62.6974L63.1406 57.2271H42.5812L37.1109 62.6974Z" fill="url(#paint31_linear_237_51416)"/>
    <path d="M63.1546 62.9506C63.9624 62.9506 64.6171 62.2959 64.6171 61.4881C64.6171 60.6804 63.9624 60.0256 63.1546 60.0256C62.3469 60.0256 61.6921 60.6804 61.6921 61.4881C61.6921 62.2959 62.3469 62.9506 63.1546 62.9506Z" fill="url(#paint32_linear_237_51416)"/>
    <path d="M45.9562 67.0991C46.7639 67.0991 47.4187 66.4443 47.4187 65.6366C47.4187 64.8289 46.7639 64.1741 45.9562 64.1741C45.1484 64.1741 44.4937 64.8289 44.4937 65.6366C44.4937 66.4443 45.1484 67.0991 45.9562 67.0991Z" fill="url(#paint33_linear_237_51416)"/>
    <path d="M53.4937 54.5131C54.0218 54.5131 54.45 54.085 54.45 53.5568C54.45 53.0287 54.0218 52.6006 53.4937 52.6006C52.9656 52.6006 52.5375 53.0287 52.5375 53.5568C52.5375 54.085 52.9656 54.5131 53.4937 54.5131Z" fill="url(#paint34_linear_237_51416)"/>
    <path d="M51.7359 62.8241C52.264 62.8241 52.6922 62.396 52.6922 61.8679C52.6922 61.3397 52.264 60.9116 51.7359 60.9116C51.2078 60.9116 50.7797 61.3397 50.7797 61.8679C50.7797 62.396 51.2078 62.8241 51.7359 62.8241Z" fill="url(#paint35_linear_237_51416)"/>
    <path d="M43.5374 60.4474C44.0656 60.4474 44.4937 60.0193 44.4937 59.4912C44.4937 58.963 44.0656 58.5349 43.5374 58.5349C43.0093 58.5349 42.5812 58.963 42.5812 59.4912C42.5812 60.0193 43.0093 60.4474 43.5374 60.4474Z" fill="url(#paint36_linear_237_51416)"/>
  </g>
  <defs>
    <linearGradient id="paint0_linear_237_51416" x1="52.4258" y1="16.0001" x2="66.1919" y2="16.0001" gradientUnits="userSpaceOnUse">
      <stop stop-color="#5A5A5A"/>
      <stop offset="1" stop-color="#444444"/>
    </linearGradient>
    <linearGradient id="paint1_linear_237_51416" x1="59.4634" y1="13.3745" x2="67.6336" y2="21.1436" gradientUnits="userSpaceOnUse">
      <stop stop-color="#433F43" stop-opacity="0"/>
      <stop offset="0.4114" stop-color="#373537" stop-opacity="0.269"/>
      <stop offset="1" stop-color="#1A1A1A"/>
    </linearGradient>
    <linearGradient id="paint2_linear_237_51416" x1="55.1362" y1="14.3271" x2="47.0663" y2="12.4223" gradientUnits="userSpaceOnUse">
      <stop stop-color="#433F43" stop-opacity="0"/>
      <stop offset="0.4114" stop-color="#373537" stop-opacity="0.269"/>
      <stop offset="1" stop-color="#1A1A1A"/>
    </linearGradient>
    <linearGradient id="paint3_linear_237_51416" x1="59.542" y1="14.862" x2="65.4526" y2="20.4825" gradientUnits="userSpaceOnUse">
      <stop stop-color="#433F43" stop-opacity="0"/>
      <stop offset="0.4114" stop-color="#373537" stop-opacity="0.269"/>
      <stop offset="1" stop-color="#1A1A1A"/>
    </linearGradient>
    <linearGradient id="paint4_linear_237_51416" x1="57.126" y1="15.1474" x2="53.3485" y2="14.2558" gradientUnits="userSpaceOnUse">
      <stop stop-color="#433F43" stop-opacity="0"/>
      <stop offset="0.4114" stop-color="#373537" stop-opacity="0.269"/>
      <stop offset="1" stop-color="#1A1A1A"/>
    </linearGradient>
    <linearGradient id="paint5_linear_237_51416" x1="59.6887" y1="20.9336" x2="59.6887" y2="23.5708" gradientUnits="userSpaceOnUse">
      <stop stop-color="#433F43" stop-opacity="0"/>
      <stop offset="0.4114" stop-color="#373537" stop-opacity="0.269"/>
      <stop offset="1" stop-color="#1A1A1A"/>
    </linearGradient>
    <linearGradient id="paint6_linear_237_51416" x1="57.7385" y1="3.86299" x2="61.4811" y2="13.9545" gradientUnits="userSpaceOnUse">
      <stop stop-color="#FFEEE6"/>
      <stop offset="1" stop-color="#FFC4C8"/>
    </linearGradient>
    <linearGradient id="paint7_linear_237_51416" x1="64.1883" y1="7.82268" x2="71.4824" y2="7.82268" gradientUnits="userSpaceOnUse">
      <stop stop-color="#FE99A0" stop-opacity="0"/>
      <stop offset="0.1182" stop-color="#FD989F" stop-opacity="0.017"/>
      <stop offset="0.2433" stop-color="#FD979E" stop-opacity="0.067"/>
      <stop offset="0.3716" stop-color="#FD959C" stop-opacity="0.151"/>
      <stop offset="0.5022" stop-color="#FD9299" stop-opacity="0.268"/>
      <stop offset="0.6345" stop-color="#FD8E95" stop-opacity="0.419"/>
      <stop offset="0.7683" stop-color="#FD8990" stop-opacity="0.604"/>
      <stop offset="0.9007" stop-color="#FD848B" stop-opacity="0.819"/>
      <stop offset="1" stop-color="#FD8087"/>
    </linearGradient>
    <linearGradient id="paint8_linear_237_51416" x1="55.6923" y1="44.2947" x2="63.8394" y2="44.2947" gradientUnits="userSpaceOnUse">
      <stop stop-color="#FEAEE1"/>
      <stop offset="1" stop-color="#FE5694"/>
    </linearGradient>
    <linearGradient id="paint9_linear_237_51416" x1="58.1088" y1="44.2369" x2="66.0284" y2="44.5377" gradientUnits="userSpaceOnUse">
      <stop stop-color="#FE5694" stop-opacity="0"/>
      <stop offset="0.1038" stop-color="#FE5493" stop-opacity="0.02"/>
      <stop offset="0.2277" stop-color="#FE4F90" stop-opacity="0.077"/>
      <stop offset="0.362" stop-color="#FE478B" stop-opacity="0.172"/>
      <stop offset="0.5036" stop-color="#FE3C85" stop-opacity="0.305"/>
      <stop offset="0.6509" stop-color="#FE2E7D" stop-opacity="0.475"/>
      <stop offset="0.8032" stop-color="#FE1D73" stop-opacity="0.684"/>
      <stop offset="0.9566" stop-color="#FE0967" stop-opacity="0.926"/>
      <stop offset="1" stop-color="#FE0364"/>
    </linearGradient>
    <linearGradient id="paint10_linear_237_51416" x1="59.0894" y1="51.6383" x2="58.087" y2="54.178" gradientUnits="userSpaceOnUse">
      <stop stop-color="#FE5694" stop-opacity="0"/>
      <stop offset="0.1038" stop-color="#FE5493" stop-opacity="0.02"/>
      <stop offset="0.2277" stop-color="#FE4F90" stop-opacity="0.077"/>
      <stop offset="0.362" stop-color="#FE478B" stop-opacity="0.172"/>
      <stop offset="0.5036" stop-color="#FE3C85" stop-opacity="0.305"/>
      <stop offset="0.6509" stop-color="#FE2E7D" stop-opacity="0.475"/>
      <stop offset="0.8032" stop-color="#FE1D73" stop-opacity="0.684"/>
      <stop offset="0.9566" stop-color="#FE0967" stop-opacity="0.926"/>
      <stop offset="1" stop-color="#FE0364"/>
    </linearGradient>
    <linearGradient id="paint11_linear_237_51416" x1="55.8349" y1="26.9253" x2="64.9021" y2="26.9253" gradientUnits="userSpaceOnUse">
      <stop stop-color="#F2D1A5"/>
      <stop offset="1" stop-color="#B1705B"/>
    </linearGradient>
    <linearGradient id="paint12_linear_237_51416" x1="60.4491" y1="26.8914" x2="65.6619" y2="27.2923" gradientUnits="userSpaceOnUse">
      <stop stop-color="#B1705B" stop-opacity="0"/>
      <stop offset="0.1464" stop-color="#AF6E59" stop-opacity="0.036"/>
      <stop offset="0.321" stop-color="#AB6853" stop-opacity="0.14"/>
      <stop offset="0.5101" stop-color="#A5604A" stop-opacity="0.312"/>
      <stop offset="0.7094" stop-color="#9C533E" stop-opacity="0.552"/>
      <stop offset="0.9148" stop-color="#91442E" stop-opacity="0.857"/>
      <stop offset="1" stop-color="#8C3D27"/>
    </linearGradient>
    <linearGradient id="paint13_linear_237_51416" x1="26.3288" y1="24.0666" x2="26.429" y2="29.2795" gradientUnits="userSpaceOnUse">
      <stop stop-color="#FFEEE6"/>
      <stop offset="1" stop-color="#FFC4C8"/>
    </linearGradient>
    <linearGradient id="paint14_linear_237_51416" x1="26.4311" y1="25.8242" x2="26.4311" y2="28.9318" gradientUnits="userSpaceOnUse">
      <stop stop-color="#FE99A0" stop-opacity="0"/>
      <stop offset="0.1182" stop-color="#FD989F" stop-opacity="0.017"/>
      <stop offset="0.2433" stop-color="#FD979E" stop-opacity="0.067"/>
      <stop offset="0.3716" stop-color="#FD959C" stop-opacity="0.151"/>
      <stop offset="0.5022" stop-color="#FD9299" stop-opacity="0.268"/>
      <stop offset="0.6345" stop-color="#FD8E95" stop-opacity="0.419"/>
      <stop offset="0.7683" stop-color="#FD8990" stop-opacity="0.604"/>
      <stop offset="0.9007" stop-color="#FD848B" stop-opacity="0.819"/>
      <stop offset="1" stop-color="#FD8087"/>
    </linearGradient>
    <linearGradient id="paint15_linear_237_51416" x1="15.7849" y1="33.7032" x2="38.7693" y2="33.7032" gradientUnits="userSpaceOnUse">
      <stop stop-color="#E1D3CE"/>
      <stop offset="1" stop-color="#9E9797"/>
    </linearGradient>
    <linearGradient id="paint16_linear_237_51416" x1="37.1376" y1="33.7032" x2="48.4849" y2="33.7032" gradientUnits="userSpaceOnUse">
      <stop stop-color="#433F43" stop-opacity="0"/>
      <stop offset="0.4114" stop-color="#373537" stop-opacity="0.269"/>
      <stop offset="1" stop-color="#1A1A1A"/>
    </linearGradient>
    <linearGradient id="paint17_linear_237_51416" x1="26.431" y1="36.9015" x2="26.431" y2="33.8932" gradientUnits="userSpaceOnUse">
      <stop stop-color="#433F43" stop-opacity="0"/>
      <stop offset="0.4114" stop-color="#373537" stop-opacity="0.269"/>
      <stop offset="1" stop-color="#1A1A1A"/>
    </linearGradient>
    <linearGradient id="paint18_linear_237_51416" x1="26.431" y1="35.5483" x2="26.431" y2="38.0089" gradientUnits="userSpaceOnUse">
      <stop stop-color="#433F43" stop-opacity="0"/>
      <stop offset="0.4114" stop-color="#373537" stop-opacity="0.269"/>
      <stop offset="1" stop-color="#1A1A1A"/>
    </linearGradient>
    <linearGradient id="paint19_linear_237_51416" x1="16.3119" y1="34.2963" x2="37.1634" y2="68.3804" gradientUnits="userSpaceOnUse">
      <stop stop-color="#FEAEE1"/>
      <stop offset="1" stop-color="#FE5694"/>
    </linearGradient>
    <linearGradient id="paint20_linear_237_51416" x1="45.1573" y1="50.837" x2="53.5795" y2="50.837" gradientUnits="userSpaceOnUse">
      <stop stop-color="#FE5694" stop-opacity="0"/>
      <stop offset="0.1038" stop-color="#FE5493" stop-opacity="0.02"/>
      <stop offset="0.2277" stop-color="#FE4F90" stop-opacity="0.077"/>
      <stop offset="0.362" stop-color="#FE478B" stop-opacity="0.172"/>
      <stop offset="0.5036" stop-color="#FE3C85" stop-opacity="0.305"/>
      <stop offset="0.6509" stop-color="#FE2E7D" stop-opacity="0.475"/>
      <stop offset="0.8032" stop-color="#FE1D73" stop-opacity="0.684"/>
      <stop offset="0.9566" stop-color="#FE0967" stop-opacity="0.926"/>
      <stop offset="1" stop-color="#FE0364"/>
    </linearGradient>
    <linearGradient id="paint21_linear_237_51416" x1="26.431" y1="59.0562" x2="26.431" y2="65.2288" gradientUnits="userSpaceOnUse">
      <stop stop-color="#FE5694" stop-opacity="0"/>
      <stop offset="0.1038" stop-color="#FE5493" stop-opacity="0.02"/>
      <stop offset="0.2277" stop-color="#FE4F90" stop-opacity="0.077"/>
      <stop offset="0.362" stop-color="#FE478B" stop-opacity="0.172"/>
      <stop offset="0.5036" stop-color="#FE3C85" stop-opacity="0.305"/>
      <stop offset="0.6509" stop-color="#FE2E7D" stop-opacity="0.475"/>
      <stop offset="0.8032" stop-color="#FE1D73" stop-opacity="0.684"/>
      <stop offset="0.9566" stop-color="#FE0967" stop-opacity="0.926"/>
      <stop offset="1" stop-color="#FE0364"/>
    </linearGradient>
    <linearGradient id="paint22_linear_237_51416" x1="32.2932" y1="57.2171" x2="27.6818" y2="48.0946" gradientUnits="userSpaceOnUse">
      <stop stop-color="#FE5694" stop-opacity="0"/>
      <stop offset="0.1038" stop-color="#FE5493" stop-opacity="0.02"/>
      <stop offset="0.2277" stop-color="#FE4F90" stop-opacity="0.077"/>
      <stop offset="0.362" stop-color="#FE478B" stop-opacity="0.172"/>
      <stop offset="0.5036" stop-color="#FE3C85" stop-opacity="0.305"/>
      <stop offset="0.6509" stop-color="#FE2E7D" stop-opacity="0.475"/>
      <stop offset="0.8032" stop-color="#FE1D73" stop-opacity="0.684"/>
      <stop offset="0.9566" stop-color="#FE0967" stop-opacity="0.926"/>
      <stop offset="1" stop-color="#FE0364"/>
    </linearGradient>
    <linearGradient id="paint23_linear_237_51416" x1="26.4311" y1="32.7554" x2="26.4311" y2="35.114" gradientUnits="userSpaceOnUse">
      <stop stop-color="#E1D3CE"/>
      <stop offset="1" stop-color="#9E9797"/>
    </linearGradient>
    <linearGradient id="paint24_linear_237_51416" x1="25.0253" y1="45.7769" x2="28.9266" y2="59.8212" gradientUnits="userSpaceOnUse">
      <stop stop-color="#FFF6FF"/>
      <stop offset="1" stop-color="#FFEEE6"/>
    </linearGradient>
    <linearGradient id="paint25_linear_237_51416" x1="26.431" y1="56.2515" x2="26.431" y2="58.7597" gradientUnits="userSpaceOnUse">
      <stop stop-color="#FFDFCF" stop-opacity="0"/>
      <stop offset="0.0917564" stop-color="#FEDECE" stop-opacity="0.032"/>
      <stop offset="0.2296" stop-color="#FCDCCB" stop-opacity="0.119"/>
      <stop offset="0.3965" stop-color="#F9D8C7" stop-opacity="0.263"/>
      <stop offset="0.5861" stop-color="#F5D3C1" stop-opacity="0.462"/>
      <stop offset="0.7931" stop-color="#F0CDBA" stop-opacity="0.715"/>
      <stop offset="1" stop-color="#EBC6B2"/>
    </linearGradient>
    <linearGradient id="paint26_linear_237_51416" x1="40.2618" y1="50.8372" x2="42.4672" y2="50.8372" gradientUnits="userSpaceOnUse">
      <stop stop-color="#FFDFCF" stop-opacity="0"/>
      <stop offset="0.0917564" stop-color="#FEDECE" stop-opacity="0.032"/>
      <stop offset="0.2296" stop-color="#FCDCCB" stop-opacity="0.119"/>
      <stop offset="0.3965" stop-color="#F9D8C7" stop-opacity="0.263"/>
      <stop offset="0.5861" stop-color="#F5D3C1" stop-opacity="0.462"/>
      <stop offset="0.7931" stop-color="#F0CDBA" stop-opacity="0.715"/>
      <stop offset="1" stop-color="#EBC6B2"/>
    </linearGradient>
    <linearGradient id="paint27_linear_237_51416" x1="16.6912" y1="19.8653" x2="33.3824" y2="66.9315" gradientUnits="userSpaceOnUse">
      <stop stop-color="#C4573A" stop-opacity="0"/>
      <stop offset="0.1427" stop-color="#C15639" stop-opacity="0.038"/>
      <stop offset="0.3193" stop-color="#BB5337" stop-opacity="0.147"/>
      <stop offset="0.5138" stop-color="#B14E33" stop-opacity="0.326"/>
      <stop offset="0.7211" stop-color="#A3482F" stop-opacity="0.577"/>
      <stop offset="0.9365" stop-color="#913F28" stop-opacity="0.895"/>
      <stop offset="1" stop-color="#8C3D27"/>
    </linearGradient>
    <linearGradient id="paint28_linear_237_51416" x1="14.6178" y1="20.6006" x2="31.309" y2="67.6668" gradientUnits="userSpaceOnUse">
      <stop stop-color="#C4573A" stop-opacity="0"/>
      <stop offset="0.1427" stop-color="#C15639" stop-opacity="0.038"/>
      <stop offset="0.3193" stop-color="#BB5337" stop-opacity="0.147"/>
      <stop offset="0.5138" stop-color="#B14E33" stop-opacity="0.326"/>
      <stop offset="0.7211" stop-color="#A3482F" stop-opacity="0.577"/>
      <stop offset="0.9365" stop-color="#913F28" stop-opacity="0.895"/>
      <stop offset="1" stop-color="#8C3D27"/>
    </linearGradient>
    <linearGradient id="paint29_linear_237_51416" x1="47.1122" y1="59.6567" x2="58.4759" y2="59.6567" gradientUnits="userSpaceOnUse">
      <stop stop-color="#FFEEE6"/>
      <stop offset="1" stop-color="#FFC4C8"/>
    </linearGradient>
    <linearGradient id="paint30_linear_237_51416" x1="59.0279" y1="58.9819" x2="62.737" y2="56.4756" gradientUnits="userSpaceOnUse">
      <stop stop-color="#FE99A0" stop-opacity="0"/>
      <stop offset="0.1182" stop-color="#FD989F" stop-opacity="0.017"/>
      <stop offset="0.2433" stop-color="#FD979E" stop-opacity="0.067"/>
      <stop offset="0.3716" stop-color="#FD959C" stop-opacity="0.151"/>
      <stop offset="0.5022" stop-color="#FD9299" stop-opacity="0.268"/>
      <stop offset="0.6345" stop-color="#FD8E95" stop-opacity="0.419"/>
      <stop offset="0.7683" stop-color="#FD8990" stop-opacity="0.604"/>
      <stop offset="0.9007" stop-color="#FD848B" stop-opacity="0.819"/>
      <stop offset="1" stop-color="#FD8087"/>
    </linearGradient>
    <linearGradient id="paint31_linear_237_51416" x1="52.8619" y1="61.6126" x2="52.8619" y2="70.5487" gradientUnits="userSpaceOnUse">
      <stop stop-color="#FE99A0" stop-opacity="0"/>
      <stop offset="0.1182" stop-color="#FD989F" stop-opacity="0.017"/>
      <stop offset="0.2433" stop-color="#FD979E" stop-opacity="0.067"/>
      <stop offset="0.3716" stop-color="#FD959C" stop-opacity="0.151"/>
      <stop offset="0.5022" stop-color="#FD9299" stop-opacity="0.268"/>
      <stop offset="0.6345" stop-color="#FD8E95" stop-opacity="0.419"/>
      <stop offset="0.7683" stop-color="#FD8990" stop-opacity="0.604"/>
      <stop offset="0.9007" stop-color="#FD848B" stop-opacity="0.819"/>
      <stop offset="1" stop-color="#FD8087"/>
    </linearGradient>
    <linearGradient id="paint32_linear_237_51416" x1="27.5538" y1="3.39443" x2="88.5043" y2="102.84" gradientUnits="userSpaceOnUse">
      <stop stop-color="#FE99A0" stop-opacity="0"/>
      <stop offset="0.1182" stop-color="#FD989F" stop-opacity="0.017"/>
      <stop offset="0.2433" stop-color="#FD979E" stop-opacity="0.067"/>
      <stop offset="0.3716" stop-color="#FD959C" stop-opacity="0.151"/>
      <stop offset="0.5022" stop-color="#FD9299" stop-opacity="0.268"/>
      <stop offset="0.6345" stop-color="#FD8E95" stop-opacity="0.419"/>
      <stop offset="0.7683" stop-color="#FD8990" stop-opacity="0.604"/>
      <stop offset="0.9007" stop-color="#FD848B" stop-opacity="0.819"/>
      <stop offset="1" stop-color="#FD8087"/>
    </linearGradient>
    <linearGradient id="paint33_linear_237_51416" x1="9.83322" y1="6.70235" x2="70.7835" y2="106.148" gradientUnits="userSpaceOnUse">
      <stop stop-color="#FE99A0" stop-opacity="0"/>
      <stop offset="0.1182" stop-color="#FD989F" stop-opacity="0.017"/>
      <stop offset="0.2433" stop-color="#FD979E" stop-opacity="0.067"/>
      <stop offset="0.3716" stop-color="#FD959C" stop-opacity="0.151"/>
      <stop offset="0.5022" stop-color="#FD9299" stop-opacity="0.268"/>
      <stop offset="0.6345" stop-color="#FD8E95" stop-opacity="0.419"/>
      <stop offset="0.7683" stop-color="#FD8990" stop-opacity="0.604"/>
      <stop offset="0.9007" stop-color="#FD848B" stop-opacity="0.819"/>
      <stop offset="1" stop-color="#FD8087"/>
    </linearGradient>
    <linearGradient id="paint34_linear_237_51416" x1="17.9689" y1="-4.39109" x2="78.9194" y2="95.0546" gradientUnits="userSpaceOnUse">
      <stop stop-color="#FE99A0" stop-opacity="0"/>
      <stop offset="0.1182" stop-color="#FD989F" stop-opacity="0.017"/>
      <stop offset="0.2433" stop-color="#FD979E" stop-opacity="0.067"/>
      <stop offset="0.3716" stop-color="#FD959C" stop-opacity="0.151"/>
      <stop offset="0.5022" stop-color="#FD9299" stop-opacity="0.268"/>
      <stop offset="0.6345" stop-color="#FD8E95" stop-opacity="0.419"/>
      <stop offset="0.7683" stop-color="#FD8990" stop-opacity="0.604"/>
      <stop offset="0.9007" stop-color="#FD848B" stop-opacity="0.819"/>
      <stop offset="1" stop-color="#FD8087"/>
    </linearGradient>
    <linearGradient id="paint35_linear_237_51416" x1="15.7113" y1="3.09982" x2="76.6617" y2="102.545" gradientUnits="userSpaceOnUse">
      <stop stop-color="#FE99A0" stop-opacity="0"/>
      <stop offset="0.1182" stop-color="#FD989F" stop-opacity="0.017"/>
      <stop offset="0.2433" stop-color="#FD979E" stop-opacity="0.067"/>
      <stop offset="0.3716" stop-color="#FD959C" stop-opacity="0.151"/>
      <stop offset="0.5022" stop-color="#FD9299" stop-opacity="0.268"/>
      <stop offset="0.6345" stop-color="#FD8E95" stop-opacity="0.419"/>
      <stop offset="0.7683" stop-color="#FD8990" stop-opacity="0.604"/>
      <stop offset="0.9007" stop-color="#FD848B" stop-opacity="0.819"/>
      <stop offset="1" stop-color="#FD8087"/>
    </linearGradient>
    <linearGradient id="paint36_linear_237_51416" x1="10.8195" y1="6.09779" x2="71.77" y2="105.543" gradientUnits="userSpaceOnUse">
      <stop stop-color="#FE99A0" stop-opacity="0"/>
      <stop offset="0.1182" stop-color="#FD989F" stop-opacity="0.017"/>
      <stop offset="0.2433" stop-color="#FD979E" stop-opacity="0.067"/>
      <stop offset="0.3716" stop-color="#FD959C" stop-opacity="0.151"/>
      <stop offset="0.5022" stop-color="#FD9299" stop-opacity="0.268"/>
      <stop offset="0.6345" stop-color="#FD8E95" stop-opacity="0.419"/>
      <stop offset="0.7683" stop-color="#FD8990" stop-opacity="0.604"/>
      <stop offset="0.9007" stop-color="#FD848B" stop-opacity="0.819"/>
      <stop offset="1" stop-color="#FD8087"/>
    </linearGradient>
    <clipPath id="clip0_237_51416">
      <rect width="72" height="72" fill="white" transform="translate(0 0.302002)"/>
    </clipPath>
  </defs>
</svg>