<svg xmlns="http://www.w3.org/2000/svg" width="72" height="73" viewBox="0 0 72 73" fill="none">
  <g clip-path="url(#clip0_237_51624)">
    <path d="M31.3604 72.302H5.06079V2.8885C5.06079 1.45993 6.21872 0.302002 7.64714 0.302002H28.7739C30.2023 0.302002 31.3604 1.45993 31.3604 2.8885V72.302Z" fill="url(#paint0_linear_237_51624)"/>
    <path d="M11.6123 4.19189H14.4338C15.1664 4.19189 15.7603 4.78582 15.7603 5.51839V8.33994C15.7603 9.07251 15.1664 9.66644 14.4338 9.66644H11.6123C10.8797 9.66644 10.2858 9.07251 10.2858 8.33994V5.51839C10.2856 4.78582 10.8796 4.19189 11.6123 4.19189Z" fill="url(#paint1_linear_237_51624)"/>
    <path d="M21.9875 4.19189H24.8091C25.5416 4.19189 26.1356 4.78582 26.1356 5.51839V8.33994C26.1356 9.07251 25.5416 9.66644 24.8091 9.66644H21.9875C21.2549 9.66644 20.661 9.07251 20.661 8.33994V5.51839C20.661 4.78582 21.2549 4.19189 21.9875 4.19189Z" fill="url(#paint2_linear_237_51624)"/>
    <path d="M11.6123 15.4888H14.4338C15.1664 15.4888 15.7603 16.0827 15.7603 16.8153V19.6368C15.7603 20.3694 15.1664 20.9633 14.4338 20.9633H11.6123C10.8797 20.9633 10.2858 20.3694 10.2858 19.6368V16.8153C10.2856 16.0827 10.8796 15.4888 11.6123 15.4888Z" fill="url(#paint3_linear_237_51624)"/>
    <path d="M21.9875 15.4888H24.8091C25.5416 15.4888 26.1356 16.0827 26.1356 16.8153V19.6368C26.1356 20.3694 25.5416 20.9633 24.8091 20.9633H21.9875C21.2549 20.9633 20.661 20.3694 20.661 19.6368V16.8153C20.661 16.0827 21.2549 15.4888 21.9875 15.4888Z" fill="url(#paint4_linear_237_51624)"/>
    <path d="M11.6123 26.7854H14.4338C15.1664 26.7854 15.7603 27.3793 15.7603 28.1119V30.9334C15.7603 31.666 15.1664 32.2599 14.4338 32.2599H11.6123C10.8797 32.2599 10.2858 31.666 10.2858 30.9334V28.1119C10.2856 27.3793 10.8796 26.7854 11.6123 26.7854Z" fill="url(#paint5_linear_237_51624)"/>
    <path d="M21.9875 26.7854H24.8091C25.5416 26.7854 26.1356 27.3793 26.1356 28.1119V30.9334C26.1356 31.666 25.5416 32.2599 24.8091 32.2599H21.9875C21.2549 32.2599 20.661 31.666 20.661 30.9334V28.1119C20.661 27.3793 21.2549 26.7854 21.9875 26.7854Z" fill="url(#paint6_linear_237_51624)"/>
    <path d="M11.6123 38.0823H14.4338C15.1664 38.0823 15.7603 38.6762 15.7603 39.4088V42.2303C15.7603 42.9629 15.1664 43.5568 14.4338 43.5568H11.6123C10.8797 43.5568 10.2858 42.9629 10.2858 42.2303V39.4088C10.2856 38.6762 10.8796 38.0823 11.6123 38.0823Z" fill="url(#paint7_linear_237_51624)"/>
    <path d="M21.9875 38.0823H24.8091C25.5416 38.0823 26.1356 38.6762 26.1356 39.4088V42.2303C26.1356 42.9629 25.5416 43.5568 24.8091 43.5568H21.9875C21.2549 43.5568 20.661 42.9629 20.661 42.2303V39.4088C20.661 38.6762 21.2549 38.0823 21.9875 38.0823Z" fill="url(#paint8_linear_237_51624)"/>
    <path d="M11.6123 49.3792H14.4338C15.1664 49.3792 15.7603 49.9731 15.7603 50.7056V53.5272C15.7603 54.2598 15.1664 54.8537 14.4338 54.8537H11.6123C10.8797 54.8537 10.2858 54.2598 10.2858 53.5272V50.7056C10.2856 49.9729 10.8796 49.3792 11.6123 49.3792Z" fill="url(#paint9_linear_237_51624)"/>
    <path d="M21.9875 49.3792H24.8091C25.5416 49.3792 26.1356 49.9731 26.1356 50.7056V53.5272C26.1356 54.2598 25.5416 54.8537 24.8091 54.8537H21.9875C21.2549 54.8537 20.661 54.2598 20.661 53.5272V50.7056C20.661 49.9729 21.2549 49.3792 21.9875 49.3792Z" fill="url(#paint10_linear_237_51624)"/>
    <path d="M66.2878 72.302H47.3348V27.9547C47.3348 26.9844 48.1215 26.1978 49.0918 26.1978H64.5308C65.5011 26.1978 66.2878 26.9844 66.2878 27.9547V72.302Z" fill="url(#paint11_linear_237_51624)"/>
    <path d="M15.5688 11.3596H56.431V72.302H15.5688V11.3596Z" fill="url(#paint12_linear_237_51624)"/>
    <path d="M15.5688 14.8402L56.431 55.7023V11.3596H15.5688V14.8402Z" fill="url(#paint13_linear_237_51624)"/>
    <path d="M56.7906 14.8403H15.2094C13.6276 14.8403 12.3455 13.5581 12.3455 11.9764V10.7431C12.3455 9.16131 13.6276 7.87915 15.2094 7.87915H56.7906C58.3724 7.87915 59.6545 9.16131 59.6545 10.7431V11.9764C59.6545 13.5581 58.3724 14.8403 56.7906 14.8403Z" fill="url(#paint14_linear_237_51624)"/>
    <path d="M27.8353 18.9058C27.464 18.4896 26.9251 18.3672 26.3234 18.3672H22.0108C20.891 18.3672 20.1244 19.1338 20.1244 20.2536V24.5662C20.1244 25.1679 20.2468 25.7067 20.663 26.0781L25.8247 31.2398C26.196 31.656 26.7348 31.9196 27.3365 31.9196H31.6492C32.769 31.9196 33.6768 31.0118 33.6768 29.892V25.5793C33.6768 24.9776 33.4132 24.4389 32.997 24.0675L27.8353 18.9058Z" fill="url(#paint15_linear_237_51624)"/>
    <path d="M26.1048 18.0693H21.7921C20.6723 18.0693 19.7645 18.9771 19.7645 20.0969V24.4096C19.7645 25.5294 20.6723 26.4371 21.7921 26.4371H26.1048C27.2246 26.4371 28.1323 25.5294 28.1323 24.4096V20.0969C28.1323 18.9771 27.2246 18.0693 26.1048 18.0693Z" fill="url(#paint16_linear_237_51624)"/>
    <path d="M39.2125 18.9055C38.8412 18.4893 38.3023 18.3669 37.7006 18.3669H33.388C32.2682 18.3669 31.5016 19.1335 31.5016 20.2533V24.566C31.5016 25.1677 31.624 25.7064 32.0402 26.0779L37.2019 31.2396C37.5732 31.6557 38.112 31.9193 38.7137 31.9193H43.0264C44.1462 31.9193 45.054 31.0116 45.054 29.8917V25.5791C45.054 24.9774 44.7904 24.4387 44.3742 24.0672L39.2125 18.9055Z" fill="url(#paint17_linear_237_51624)"/>
    <path d="M37.4819 26.4369H33.1694C32.0496 26.4369 31.1418 25.5291 31.1418 24.4093V20.0967C31.1418 18.9769 32.0496 18.0691 33.1694 18.0691H37.4821C38.6019 18.0691 39.5097 18.9769 39.5097 20.0967V24.4093C39.5095 25.5291 38.6018 26.4369 37.4819 26.4369Z" fill="url(#paint18_linear_237_51624)"/>
    <path d="M50.5896 18.9055C50.2183 18.4893 49.6794 18.3669 49.0777 18.3669H44.7651C43.6453 18.3669 42.8787 19.1335 42.8787 20.2533V24.566C42.8787 25.1677 43.0011 25.7064 43.4173 26.0779L48.5789 31.2396C48.9502 31.6557 49.4891 31.9193 50.0908 31.9193H54.4035C55.5233 31.9193 56.431 31.0116 56.431 29.8917V25.5791C56.431 24.9774 56.1675 24.4387 55.7513 24.0672L50.5896 18.9055Z" fill="url(#paint19_linear_237_51624)"/>
    <path d="M48.859 26.4369H44.5464C43.4266 26.4369 42.5188 25.5291 42.5188 24.4093V20.0967C42.5188 18.9769 43.4266 18.0691 44.5464 18.0691H48.859C49.9788 18.0691 50.8866 18.9769 50.8866 20.0967V24.4093C50.8866 25.5291 49.9788 26.4369 48.859 26.4369Z" fill="url(#paint20_linear_237_51624)"/>
    <path d="M27.8353 31.9561C27.464 31.5399 26.9251 31.4175 26.3234 31.4175H22.0108C20.891 31.4175 20.1244 32.1841 20.1244 33.3039V37.6165C20.1244 38.2182 20.2468 38.757 20.663 39.1284L25.8247 44.2901C26.196 44.7063 26.7348 44.9699 27.3365 44.9699H31.6492C32.769 44.9699 33.6768 44.0621 33.6768 42.9423V38.6296C33.6768 38.0279 33.4132 37.4892 32.997 37.1178L27.8353 31.9561Z" fill="url(#paint21_linear_237_51624)"/>
    <path d="M26.1048 31.1196H21.7921C20.6723 31.1196 19.7645 32.0274 19.7645 33.1472V37.4599C19.7645 38.5797 20.6723 39.4874 21.7921 39.4874H26.1048C27.2246 39.4874 28.1323 38.5797 28.1323 37.4599V33.1472C28.1323 32.0274 27.2246 31.1196 26.1048 31.1196Z" fill="url(#paint22_linear_237_51624)"/>
    <path d="M39.2125 31.9561C38.8412 31.5399 38.3023 31.4175 37.7006 31.4175H33.388C32.2682 31.4175 31.5016 32.1841 31.5016 33.3039V37.6165C31.5016 38.2182 31.624 38.757 32.0402 39.1284L37.2019 44.2901C37.5732 44.7063 38.112 44.9699 38.7137 44.9699H43.0264C44.1462 44.9699 45.054 44.0621 45.054 42.9423V38.6296C45.054 38.0279 44.7904 37.4892 44.3742 37.1178L39.2125 31.9561Z" fill="url(#paint23_linear_237_51624)"/>
    <path d="M37.4819 39.4872H33.1694C32.0496 39.4872 31.1418 38.5794 31.1418 37.4596V33.147C31.1418 32.0271 32.0496 31.1194 33.1694 31.1194H37.4821C38.6019 31.1194 39.5097 32.0271 39.5097 33.147V37.4598C39.5095 38.5796 38.6018 39.4872 37.4819 39.4872Z" fill="url(#paint24_linear_237_51624)"/>
    <path d="M50.5896 31.9561C50.2183 31.5399 49.6794 31.4175 49.0777 31.4175H44.7651C43.6453 31.4175 42.8787 32.1841 42.8787 33.3039V37.6165C42.8787 38.2182 43.0011 38.757 43.4173 39.1284L48.5789 44.2901C48.9502 44.7063 49.4891 44.9699 50.0908 44.9699H54.4035C55.5233 44.9699 56.431 44.0621 56.431 42.9423V38.6296C56.431 38.0279 56.1675 37.4892 55.7513 37.1178L50.5896 31.9561Z" fill="url(#paint25_linear_237_51624)"/>
    <path d="M48.859 39.4872H44.5464C43.4266 39.4872 42.5188 38.5794 42.5188 37.4596V33.147C42.5188 32.0271 43.4266 31.1194 44.5464 31.1194H48.859C49.9788 31.1194 50.8866 32.0271 50.8866 33.147V37.4598C50.8866 38.5796 49.9788 39.4872 48.859 39.4872Z" fill="url(#paint26_linear_237_51624)"/>
    <path d="M27.8353 45.0061C27.464 44.5899 26.9251 44.4675 26.3234 44.4675H22.0108C20.891 44.4675 20.1244 45.2341 20.1244 46.3539V50.6666C20.1244 51.2683 20.2468 51.807 20.663 52.1784L25.8247 57.3401C26.196 57.7563 26.7348 58.0199 27.3365 58.0199H31.6492C32.769 58.0199 33.6768 57.1121 33.6768 55.9923V51.6797C33.6768 51.078 33.4132 50.5392 32.997 50.1678L27.8353 45.0061Z" fill="url(#paint27_linear_237_51624)"/>
    <path d="M26.1048 44.1697H21.7921C20.6723 44.1697 19.7645 45.0774 19.7645 46.1973V50.5099C19.7645 51.6297 20.6723 52.5375 21.7921 52.5375H26.1048C27.2246 52.5375 28.1323 51.6297 28.1323 50.5099V46.1973C28.1323 45.0774 27.2246 44.1697 26.1048 44.1697Z" fill="url(#paint28_linear_237_51624)"/>
    <path d="M39.2125 45.0059C38.8412 44.5897 38.3023 44.4673 37.7006 44.4673H33.388C32.2682 44.4673 31.5016 45.2339 31.5016 46.3537V50.6663C31.5016 51.268 31.624 51.8068 32.0402 52.1782L37.2019 57.3399C37.5732 57.7561 38.112 58.0197 38.7137 58.0197H43.0264C44.1462 58.0197 45.054 57.1119 45.054 55.9921V51.6794C45.054 51.0777 44.7904 50.539 44.3742 50.1676L39.2125 45.0059Z" fill="url(#paint29_linear_237_51624)"/>
    <path d="M37.4819 52.5372H33.1694C32.0496 52.5372 31.1418 51.6295 31.1418 50.5097V46.197C31.1418 45.0772 32.0496 44.1694 33.1694 44.1694H37.4821C38.6019 44.1694 39.5097 45.0772 39.5097 46.197V50.5097C39.5095 51.6295 38.6018 52.5372 37.4819 52.5372Z" fill="url(#paint30_linear_237_51624)"/>
    <path d="M50.5896 45.0059C50.2183 44.5897 49.6794 44.4673 49.0777 44.4673H44.7651C43.6453 44.4673 42.8787 45.2339 42.8787 46.3537V50.6663C42.8787 51.268 43.0011 51.8068 43.4173 52.1782L48.5789 57.3399C48.9502 57.7561 49.4891 58.0197 50.0908 58.0197H54.4035C55.5233 58.0197 56.431 57.1119 56.431 55.9921V51.6794C56.431 51.0777 56.1675 50.539 55.7513 50.1676L50.5896 45.0059Z" fill="url(#paint31_linear_237_51624)"/>
    <path d="M48.859 52.5372H44.5464C43.4266 52.5372 42.5188 51.6295 42.5188 50.5097V46.197C42.5188 45.0772 43.4266 44.1694 44.5464 44.1694H48.859C49.9788 44.1694 50.8866 45.0772 50.8866 46.197V50.5097C50.8866 51.6295 49.9788 52.5372 48.859 52.5372Z" fill="url(#paint32_linear_237_51624)"/>
    <path d="M42.2953 72.3019H29.7045V56.5088C29.7045 55.8941 30.2028 55.3958 30.8175 55.3958H41.1823C41.7969 55.3958 42.2953 55.8941 42.2953 56.5088V72.3019Z" fill="url(#paint33_linear_237_51624)"/>
    <path d="M41.1824 55.396H36V72.302H42.2953V56.5089C42.2953 55.8942 41.7971 55.396 41.1824 55.396Z" fill="url(#paint34_linear_237_51624)"/>
    <path d="M18.5601 72.3019H5.73396C4.279 72.3019 3.09961 71.1225 3.09961 69.6676V68.4368C3.09961 64.1675 6.56055 60.7065 10.8299 60.7065C15.0992 60.7065 18.5601 64.1675 18.5601 68.4368V72.3019Z" fill="url(#paint35_linear_237_51624)"/>
    <path d="M51.3727 72.302H65.9137C67.5631 72.302 68.9003 70.965 68.9003 69.3155V67.9201C68.9003 63.08 64.9766 59.1562 60.1365 59.1562C55.2964 59.1562 51.3727 63.08 51.3727 67.9201V72.302Z" fill="url(#paint36_linear_237_51624)"/>
    <path d="M47.3348 72.3021H55.3431C56.2515 72.3021 56.9879 71.5657 56.9879 70.6572V69.8888C56.9879 67.2231 54.8271 65.0623 52.1614 65.0623C49.4957 65.0623 47.3348 67.2231 47.3348 69.8888V72.3021Z" fill="url(#paint37_linear_237_51624)"/>
  </g>
  <defs>
    <linearGradient id="paint0_linear_237_51624" x1="-7.2937" y1="21.5095" x2="20.3769" y2="38.1684" gradientUnits="userSpaceOnUse">
      <stop stop-color="#EFDCFB"/>
      <stop offset="0.4428" stop-color="#C1AEC7"/>
      <stop offset="1" stop-color="#8A7889"/>
    </linearGradient>
    <linearGradient id="paint1_linear_237_51624" x1="11.9282" y1="5.83434" x2="14.9535" y2="8.85975" gradientUnits="userSpaceOnUse">
      <stop stop-color="#F8F6FB"/>
      <stop offset="1" stop-color="#EFDCFB"/>
    </linearGradient>
    <linearGradient id="paint2_linear_237_51624" x1="22.3035" y1="5.83434" x2="25.3289" y2="8.85975" gradientUnits="userSpaceOnUse">
      <stop stop-color="#F8F6FB"/>
      <stop offset="1" stop-color="#EFDCFB"/>
    </linearGradient>
    <linearGradient id="paint3_linear_237_51624" x1="11.9282" y1="17.1312" x2="14.9535" y2="20.1566" gradientUnits="userSpaceOnUse">
      <stop stop-color="#F8F6FB"/>
      <stop offset="1" stop-color="#EFDCFB"/>
    </linearGradient>
    <linearGradient id="paint4_linear_237_51624" x1="22.3035" y1="17.1312" x2="25.3289" y2="20.1566" gradientUnits="userSpaceOnUse">
      <stop stop-color="#F8F6FB"/>
      <stop offset="1" stop-color="#EFDCFB"/>
    </linearGradient>
    <linearGradient id="paint5_linear_237_51624" x1="11.9282" y1="28.4278" x2="14.9535" y2="31.4533" gradientUnits="userSpaceOnUse">
      <stop stop-color="#F8F6FB"/>
      <stop offset="1" stop-color="#EFDCFB"/>
    </linearGradient>
    <linearGradient id="paint6_linear_237_51624" x1="22.3035" y1="28.4278" x2="25.3289" y2="31.4533" gradientUnits="userSpaceOnUse">
      <stop stop-color="#F8F6FB"/>
      <stop offset="1" stop-color="#EFDCFB"/>
    </linearGradient>
    <linearGradient id="paint7_linear_237_51624" x1="11.9282" y1="39.7247" x2="14.9535" y2="42.7501" gradientUnits="userSpaceOnUse">
      <stop stop-color="#F8F6FB"/>
      <stop offset="1" stop-color="#EFDCFB"/>
    </linearGradient>
    <linearGradient id="paint8_linear_237_51624" x1="22.3035" y1="39.7247" x2="25.3289" y2="42.7501" gradientUnits="userSpaceOnUse">
      <stop stop-color="#F8F6FB"/>
      <stop offset="1" stop-color="#EFDCFB"/>
    </linearGradient>
    <linearGradient id="paint9_linear_237_51624" x1="11.9282" y1="51.0216" x2="14.9535" y2="54.047" gradientUnits="userSpaceOnUse">
      <stop stop-color="#F8F6FB"/>
      <stop offset="1" stop-color="#EFDCFB"/>
    </linearGradient>
    <linearGradient id="paint10_linear_237_51624" x1="22.3035" y1="51.0216" x2="25.3289" y2="54.047" gradientUnits="userSpaceOnUse">
      <stop stop-color="#F8F6FB"/>
      <stop offset="1" stop-color="#EFDCFB"/>
    </linearGradient>
    <linearGradient id="paint11_linear_237_51624" x1="56.8113" y1="30.6064" x2="56.8113" y2="47.4842" gradientUnits="userSpaceOnUse">
      <stop stop-color="#8A7889"/>
      <stop offset="1" stop-color="#6E566E"/>
    </linearGradient>
    <linearGradient id="paint12_linear_237_51624" x1="19.1567" y1="16.5661" x2="60.3802" y2="78.4014" gradientUnits="userSpaceOnUse">
      <stop stop-color="#EFDCFB"/>
      <stop offset="0.4428" stop-color="#C1AEC7"/>
      <stop offset="1" stop-color="#8A7889"/>
    </linearGradient>
    <linearGradient id="paint13_linear_237_51624" x1="35.9999" y1="23.8314" x2="35.9999" y2="-5.07516" gradientUnits="userSpaceOnUse">
      <stop stop-color="#6E566E" stop-opacity="0"/>
      <stop offset="0.2944" stop-color="#674D66" stop-opacity="0.294"/>
      <stop offset="1" stop-color="#593B56"/>
    </linearGradient>
    <linearGradient id="paint14_linear_237_51624" x1="36" y1="10.1844" x2="36" y2="15.6903" gradientUnits="userSpaceOnUse">
      <stop stop-color="#8A7889"/>
      <stop offset="1" stop-color="#6E566E"/>
    </linearGradient>
    <linearGradient id="paint15_linear_237_51624" x1="29.7545" y1="27.9971" x2="13.5091" y2="11.7518" gradientUnits="userSpaceOnUse">
      <stop stop-color="#6E566E" stop-opacity="0"/>
      <stop offset="0.2944" stop-color="#674D66" stop-opacity="0.294"/>
      <stop offset="1" stop-color="#593B56"/>
    </linearGradient>
    <linearGradient id="paint16_linear_237_51624" x1="18.1051" y1="16.4098" x2="26.1128" y2="24.4175" gradientUnits="userSpaceOnUse">
      <stop stop-color="#18CEFB"/>
      <stop offset="0.3793" stop-color="#1ACCFB"/>
      <stop offset="0.5998" stop-color="#22C3FA"/>
      <stop offset="0.7796" stop-color="#2FB5F9"/>
      <stop offset="0.9365" stop-color="#41A1F7"/>
      <stop offset="1" stop-color="#4A97F6"/>
    </linearGradient>
    <linearGradient id="paint17_linear_237_51624" x1="41.3712" y1="28.2364" x2="26.8721" y2="13.7373" gradientUnits="userSpaceOnUse">
      <stop stop-color="#6E566E" stop-opacity="0"/>
      <stop offset="0.2944" stop-color="#674D66" stop-opacity="0.294"/>
      <stop offset="1" stop-color="#593B56"/>
    </linearGradient>
    <linearGradient id="paint18_linear_237_51624" x1="30.4996" y1="17.427" x2="36.681" y2="23.6084" gradientUnits="userSpaceOnUse">
      <stop stop-color="#18CEFB"/>
      <stop offset="0.3793" stop-color="#1ACCFB"/>
      <stop offset="0.5998" stop-color="#22C3FA"/>
      <stop offset="0.7796" stop-color="#2FB5F9"/>
      <stop offset="0.9365" stop-color="#41A1F7"/>
      <stop offset="1" stop-color="#4A97F6"/>
    </linearGradient>
    <linearGradient id="paint19_linear_237_51624" x1="52.0519" y1="27.54" x2="34.2075" y2="9.69574" gradientUnits="userSpaceOnUse">
      <stop stop-color="#6E566E" stop-opacity="0"/>
      <stop offset="0.2944" stop-color="#674D66" stop-opacity="0.294"/>
      <stop offset="1" stop-color="#593B56"/>
    </linearGradient>
    <linearGradient id="paint20_linear_237_51624" x1="41.7999" y1="17.3502" x2="46.9883" y2="22.5386" gradientUnits="userSpaceOnUse">
      <stop stop-color="#18CEFB"/>
      <stop offset="0.3793" stop-color="#1ACCFB"/>
      <stop offset="0.5998" stop-color="#22C3FA"/>
      <stop offset="0.7796" stop-color="#2FB5F9"/>
      <stop offset="0.9365" stop-color="#41A1F7"/>
      <stop offset="1" stop-color="#4A97F6"/>
    </linearGradient>
    <linearGradient id="paint21_linear_237_51624" x1="29.7545" y1="41.0474" x2="13.5091" y2="24.802" gradientUnits="userSpaceOnUse">
      <stop stop-color="#6E566E" stop-opacity="0"/>
      <stop offset="0.2944" stop-color="#674D66" stop-opacity="0.294"/>
      <stop offset="1" stop-color="#593B56"/>
    </linearGradient>
    <linearGradient id="paint22_linear_237_51624" x1="18.1051" y1="29.4601" x2="26.1128" y2="37.4678" gradientUnits="userSpaceOnUse">
      <stop stop-color="#18CEFB"/>
      <stop offset="0.3793" stop-color="#1ACCFB"/>
      <stop offset="0.5998" stop-color="#22C3FA"/>
      <stop offset="0.7796" stop-color="#2FB5F9"/>
      <stop offset="0.9365" stop-color="#41A1F7"/>
      <stop offset="1" stop-color="#4A97F6"/>
    </linearGradient>
    <linearGradient id="paint23_linear_237_51624" x1="41.3712" y1="41.2868" x2="26.8721" y2="26.7877" gradientUnits="userSpaceOnUse">
      <stop stop-color="#6E566E" stop-opacity="0"/>
      <stop offset="0.2944" stop-color="#674D66" stop-opacity="0.294"/>
      <stop offset="1" stop-color="#593B56"/>
    </linearGradient>
    <linearGradient id="paint24_linear_237_51624" x1="30.4996" y1="30.4773" x2="36.681" y2="36.6587" gradientUnits="userSpaceOnUse">
      <stop stop-color="#18CEFB"/>
      <stop offset="0.3793" stop-color="#1ACCFB"/>
      <stop offset="0.5998" stop-color="#22C3FA"/>
      <stop offset="0.7796" stop-color="#2FB5F9"/>
      <stop offset="0.9365" stop-color="#41A1F7"/>
      <stop offset="1" stop-color="#4A97F6"/>
    </linearGradient>
    <linearGradient id="paint25_linear_237_51624" x1="52.0519" y1="40.5906" x2="34.2075" y2="22.7461" gradientUnits="userSpaceOnUse">
      <stop stop-color="#6E566E" stop-opacity="0"/>
      <stop offset="0.2944" stop-color="#674D66" stop-opacity="0.294"/>
      <stop offset="1" stop-color="#593B56"/>
    </linearGradient>
    <linearGradient id="paint26_linear_237_51624" x1="41.7999" y1="30.4007" x2="46.9883" y2="35.5889" gradientUnits="userSpaceOnUse">
      <stop stop-color="#18CEFB"/>
      <stop offset="0.3793" stop-color="#1ACCFB"/>
      <stop offset="0.5998" stop-color="#22C3FA"/>
      <stop offset="0.7796" stop-color="#2FB5F9"/>
      <stop offset="0.9365" stop-color="#41A1F7"/>
      <stop offset="1" stop-color="#4A97F6"/>
    </linearGradient>
    <linearGradient id="paint27_linear_237_51624" x1="29.7545" y1="54.0975" x2="13.5091" y2="37.8521" gradientUnits="userSpaceOnUse">
      <stop stop-color="#6E566E" stop-opacity="0"/>
      <stop offset="0.2944" stop-color="#674D66" stop-opacity="0.294"/>
      <stop offset="1" stop-color="#593B56"/>
    </linearGradient>
    <linearGradient id="paint28_linear_237_51624" x1="18.1051" y1="42.5101" x2="26.1128" y2="50.5178" gradientUnits="userSpaceOnUse">
      <stop stop-color="#18CEFB"/>
      <stop offset="0.3793" stop-color="#1ACCFB"/>
      <stop offset="0.5998" stop-color="#22C3FA"/>
      <stop offset="0.7796" stop-color="#2FB5F9"/>
      <stop offset="0.9365" stop-color="#41A1F7"/>
      <stop offset="1" stop-color="#4A97F6"/>
    </linearGradient>
    <linearGradient id="paint29_linear_237_51624" x1="41.3712" y1="54.3368" x2="26.8721" y2="39.8377" gradientUnits="userSpaceOnUse">
      <stop stop-color="#6E566E" stop-opacity="0"/>
      <stop offset="0.2944" stop-color="#674D66" stop-opacity="0.294"/>
      <stop offset="1" stop-color="#593B56"/>
    </linearGradient>
    <linearGradient id="paint30_linear_237_51624" x1="30.4996" y1="43.5274" x2="36.681" y2="49.7088" gradientUnits="userSpaceOnUse">
      <stop stop-color="#18CEFB"/>
      <stop offset="0.3793" stop-color="#1ACCFB"/>
      <stop offset="0.5998" stop-color="#22C3FA"/>
      <stop offset="0.7796" stop-color="#2FB5F9"/>
      <stop offset="0.9365" stop-color="#41A1F7"/>
      <stop offset="1" stop-color="#4A97F6"/>
    </linearGradient>
    <linearGradient id="paint31_linear_237_51624" x1="52.0519" y1="53.6404" x2="34.2075" y2="35.7961" gradientUnits="userSpaceOnUse">
      <stop stop-color="#6E566E" stop-opacity="0"/>
      <stop offset="0.2944" stop-color="#674D66" stop-opacity="0.294"/>
      <stop offset="1" stop-color="#593B56"/>
    </linearGradient>
    <linearGradient id="paint32_linear_237_51624" x1="41.7999" y1="43.4506" x2="46.9883" y2="48.6389" gradientUnits="userSpaceOnUse">
      <stop stop-color="#18CEFB"/>
      <stop offset="0.3793" stop-color="#1ACCFB"/>
      <stop offset="0.5998" stop-color="#22C3FA"/>
      <stop offset="0.7796" stop-color="#2FB5F9"/>
      <stop offset="0.9365" stop-color="#41A1F7"/>
      <stop offset="1" stop-color="#4A97F6"/>
    </linearGradient>
    <linearGradient id="paint33_linear_237_51624" x1="29.8462" y1="56.0007" x2="41.5507" y2="71.634" gradientUnits="userSpaceOnUse">
      <stop stop-color="#65E0DB"/>
      <stop offset="0.8122" stop-color="#27D2F5"/>
      <stop offset="1" stop-color="#18CEFB"/>
    </linearGradient>
    <linearGradient id="paint34_linear_237_51624" x1="39.1842" y1="64.0203" x2="27.7254" y2="60.0915" gradientUnits="userSpaceOnUse">
      <stop stop-color="#4A97F6" stop-opacity="0"/>
      <stop offset="1" stop-color="#0469BB"/>
    </linearGradient>
    <linearGradient id="paint35_linear_237_51624" x1="7.9078" y1="65.0748" x2="19.2886" y2="76.4555" gradientUnits="userSpaceOnUse">
      <stop stop-color="#BADA00"/>
      <stop offset="0.2187" stop-color="#B6D600"/>
      <stop offset="0.4501" stop-color="#ACC900"/>
      <stop offset="0.6873" stop-color="#9AB400"/>
      <stop offset="0.9271" stop-color="#829700"/>
      <stop offset="1" stop-color="#798C00"/>
    </linearGradient>
    <linearGradient id="paint36_linear_237_51624" x1="57.2417" y1="62.8813" x2="63.2439" y2="75.8682" gradientUnits="userSpaceOnUse">
      <stop stop-color="#BADA00"/>
      <stop offset="0.2187" stop-color="#B6D600"/>
      <stop offset="0.4501" stop-color="#ACC900"/>
      <stop offset="0.6873" stop-color="#9AB400"/>
      <stop offset="0.9271" stop-color="#829700"/>
      <stop offset="1" stop-color="#798C00"/>
    </linearGradient>
    <linearGradient id="paint37_linear_237_51624" x1="50.9286" y1="67.9061" x2="53.7661" y2="74.0175" gradientUnits="userSpaceOnUse">
      <stop stop-color="#BADA00"/>
      <stop offset="0.2187" stop-color="#B6D600"/>
      <stop offset="0.4501" stop-color="#ACC900"/>
      <stop offset="0.6873" stop-color="#9AB400"/>
      <stop offset="0.9271" stop-color="#829700"/>
      <stop offset="1" stop-color="#798C00"/>
    </linearGradient>
    <clipPath id="clip0_237_51624">
      <rect width="72" height="72" fill="white" transform="translate(0 0.302002)"/>
    </clipPath>
  </defs>
</svg>