<svg xmlns="http://www.w3.org/2000/svg" width="72" height="73" viewBox="0 0 72 73" fill="none">
  <g clip-path="url(#clip0_237_51365)">
    <path d="M65.152 35.804C60.2587 46.2977 51.8224 52.7203 46.3089 50.1492C40.7954 47.5781 40.2926 36.9872 45.1858 26.4936C50.079 15.9999 58.5156 9.57724 64.0291 12.1483C69.5426 14.7194 70.0453 25.3102 65.152 35.804Z" fill="url(#paint0_linear_237_51365)"/>
    <path d="M65.152 35.804C60.2587 46.2977 51.8224 52.7203 46.3089 50.1492C40.7954 47.5781 40.2926 36.9872 45.1858 26.4936C50.079 15.9999 58.5156 9.57724 64.0291 12.1483C69.5426 14.7194 70.0453 25.3102 65.152 35.804Z" fill="url(#paint1_linear_237_51365)"/>
    <path d="M46.1578 34.7738C45.9307 35.2606 45.9312 35.7912 46.1589 36.1066C47.0624 37.358 48.8641 38.7396 51.1355 39.7988C53.4069 40.8581 55.6234 41.3502 57.1627 41.2378C57.5508 41.2095 57.9576 40.8687 58.1846 40.3819C58.4562 39.7992 58.3977 39.1686 58.0447 38.907C55.702 37.1707 50.2135 34.6113 47.3775 33.9328C46.9502 33.8306 46.4294 34.1912 46.1578 34.7738Z" fill="url(#paint2_linear_237_51365)"/>
    <path d="M49.3111 28.0116C49.0841 28.4984 49.0845 29.029 49.3122 29.3444C50.2157 30.5958 52.0174 31.9774 54.2888 33.0366C56.5602 34.0957 58.7767 34.588 60.3161 34.4756C60.7042 34.4473 61.1109 34.1065 61.3379 33.6197C61.6095 33.037 61.5511 32.4064 61.198 32.1448C58.8553 30.4085 53.3668 27.8491 50.5308 27.1706C50.1035 27.0684 49.5827 27.4289 49.3111 28.0116Z" fill="url(#paint3_linear_237_51365)"/>
    <path d="M52.4644 21.2491C52.2374 21.7359 52.2378 22.2666 52.4655 22.582C53.3691 23.8334 55.1707 25.2149 57.4421 26.2742C59.7135 27.3333 61.93 27.8256 63.4694 27.7132C63.8575 27.6848 64.2642 27.344 64.4912 26.8572C64.7628 26.2746 64.7044 25.644 64.3513 25.3824C62.0086 23.646 56.5201 21.0866 53.6842 20.4081C53.2568 20.3059 52.736 20.6665 52.4644 21.2491Z" fill="url(#paint4_linear_237_51365)"/>
    <path d="M47.0314 23.3886V38.9716C47.0314 39.9754 46.2168 40.79 45.2131 40.79H21.3542C20.3505 40.79 19.5359 39.9754 19.5359 38.9716V23.3886C19.5359 21.5377 20.0978 19.7801 21.0888 18.3119C22.0813 16.8436 23.5015 15.6648 25.2182 14.9745C26.1811 14.5876 26.8107 13.6545 26.8107 12.6168V4.90857H39.7566V12.6168C39.7566 13.1349 39.9133 13.629 40.1914 14.0399C40.4695 14.4507 40.8677 14.781 41.3491 14.9745C44.7825 16.3566 47.0314 19.6869 47.0314 23.3886Z" fill="url(#paint5_linear_237_51365)"/>
    <path d="M47.0313 23.3887V38.9717C47.0313 39.9755 46.2167 40.7901 45.213 40.7901H33.8511V8.23901H39.7565V12.6169C39.7565 13.6545 40.3861 14.5877 41.349 14.9745C44.7824 16.3567 47.0313 19.687 47.0313 23.3887Z" fill="url(#paint6_linear_237_51365)"/>
    <path d="M43.6413 16.3177C42.9582 15.7688 42.1892 15.3131 41.3485 14.9746C40.3863 14.5872 39.756 13.654 39.756 12.6168V5.21533H26.8111V12.6168C26.8111 13.654 26.1809 14.5872 25.2186 14.9746C24.3779 15.313 23.6088 15.7688 22.9258 16.3177H43.6413Z" fill="url(#paint7_linear_237_51365)"/>
    <path d="M21.6621 23.3591V36.9642C21.6621 37.7887 22.08 38.5567 22.7718 39.0071C23.3548 39.3868 23.7402 40.0433 23.7402 40.7901H42.8273C42.8273 40.0433 43.2127 39.3868 43.7958 39.0071C44.4875 38.5567 44.9054 37.7887 44.9054 36.9642V26.1628C44.9054 25.488 44.3816 24.9261 43.7082 24.8894C40.3383 24.7045 36.792 23.9887 33.1609 22.5459C30.2499 21.3868 27.3826 20.7925 24.6099 20.6287C23.0301 20.5355 21.6678 21.7765 21.6621 23.3591Z" fill="url(#paint8_linear_237_51365)"/>
    <path d="M22.7718 39.0069C23.3548 39.3866 23.7402 40.0431 23.7402 40.7899H42.5678L22.8819 21.104C22.1541 21.5942 21.6655 22.4143 21.6621 23.3589V36.9641C21.6621 37.7885 22.08 38.5565 22.7718 39.0069Z" fill="url(#paint9_linear_237_51365)"/>
    <path d="M43.7955 39.0069C44.4873 38.5565 44.9052 37.7885 44.9052 36.964V26.1626C44.9052 25.4878 44.3814 24.9259 43.708 24.8892C40.552 24.716 37.2413 24.0772 33.8511 22.8115V40.7899H42.8271C42.8271 40.0431 43.2125 39.3866 43.7955 39.0069Z" fill="url(#paint10_linear_237_51365)"/>
    <path d="M39.4968 9.75924H27.0703C26.2036 9.75924 25.501 9.05661 25.501 8.18992C25.501 7.32324 26.2036 6.62061 27.0703 6.62061H39.4968C40.3636 6.62061 41.0661 7.32324 41.0661 8.18992C41.0662 9.05675 40.3636 9.75924 39.4968 9.75924Z" fill="url(#paint11_linear_237_51365)"/>
    <path d="M39.6852 5.68788H26.8821C26.1906 5.68788 25.6301 5.12741 25.6301 4.43593V1.55395C25.6301 0.862473 26.1906 0.302002 26.8821 0.302002H39.6852C40.3767 0.302002 40.9372 0.862473 40.9372 1.55395V4.43579C40.9373 5.12727 40.3767 5.68788 39.6852 5.68788Z" fill="url(#paint12_linear_237_51365)"/>
    <path d="M37.6425 5.68788H28.9246C28.3432 5.68788 27.8718 5.2165 27.8718 4.63513V1.35475C27.8718 0.77339 28.3432 0.302002 28.9246 0.302002H37.6425C38.2239 0.302002 38.6953 0.77339 38.6953 1.35475V4.63499C38.6953 5.2165 38.224 5.68788 37.6425 5.68788Z" fill="url(#paint13_linear_237_51365)"/>
    <path d="M34.95 5.68788H31.6167C31.2326 5.68788 30.9211 5.37645 30.9211 4.99231V0.997578C30.9211 0.613437 31.2326 0.302002 31.6167 0.302002H34.95C35.3342 0.302002 35.6456 0.613437 35.6456 0.997578V4.99231C35.6456 5.37645 35.3342 5.68788 34.95 5.68788Z" fill="url(#paint14_linear_237_51365)"/>
    <path d="M23.868 25.2172C22.0287 24.4606 19.9853 24.6584 18.1116 25.5958C17.3052 25.9993 16.3571 25.9993 15.5507 25.5958C13.6769 24.6584 11.6336 24.4605 9.79437 25.2172C5.81672 26.8534 4.3002 32.332 6.40712 37.4541C8.25583 41.9483 12.2801 44.6744 15.9258 44.1697C16.5267 44.0865 17.1357 44.0865 17.7365 44.1697C21.3823 44.6744 25.4065 41.9484 27.2552 37.4541C29.3623 32.332 27.8458 26.8534 23.868 25.2172Z" fill="url(#paint15_linear_237_51365)"/>
    <path d="M23.868 25.2172C22.0287 24.4606 19.9853 24.6584 18.1116 25.5958C17.3052 25.9993 16.3571 25.9993 15.5507 25.5958C13.6769 24.6584 11.6336 24.4605 9.79437 25.2172C5.81672 26.8534 4.3002 32.332 6.40712 37.4541C8.25583 41.9483 12.2801 44.6744 15.9258 44.1697C16.5267 44.0865 17.1357 44.0865 17.7365 44.1697C21.3823 44.6744 25.4065 41.9484 27.2552 37.4541C29.3623 32.332 27.8458 26.8534 23.868 25.2172Z" fill="url(#paint16_linear_237_51365)"/>
    <path d="M23.8678 25.2171C22.0286 24.4605 19.9852 24.6583 18.1115 25.5957C17.7065 25.7983 17.2656 25.8991 16.825 25.8981V44.1074C17.1295 44.1071 17.434 44.1277 17.7364 44.1695C21.3821 44.6742 25.4064 41.9482 27.2551 37.4539C29.3621 32.332 27.8456 26.8533 23.8678 25.2171Z" fill="url(#paint17_linear_237_51365)"/>
    <path d="M21.0429 25.5019C21.0429 25.2533 21.0201 25.0102 20.9788 24.7734C20.0117 24.8484 19.0408 25.1308 18.1115 25.5957C17.3051 25.9991 16.3569 25.9991 15.5505 25.5957C14.6213 25.1308 13.6503 24.8484 12.6832 24.7734C12.6419 25.0102 12.6191 25.2533 12.6191 25.5019C12.6191 27.8281 14.5048 29.7136 16.8309 29.7136C19.1569 29.7136 21.0429 27.8281 21.0429 25.5019Z" fill="url(#paint18_linear_237_51365)"/>
    <path d="M65.152 35.804C60.2587 46.2977 51.8224 52.7203 46.3089 50.1492C40.7954 47.5781 40.2926 36.9872 45.1858 26.4936C50.079 15.9999 58.5156 9.57724 64.0291 12.1483C69.5426 14.7194 70.0453 25.3102 65.152 35.804Z" fill="url(#paint19_linear_237_51365)"/>
    <path d="M65.152 35.804C60.2587 46.2977 51.8224 52.7203 46.3089 50.1492C40.7954 47.5781 40.2926 36.9872 45.1858 26.4936C50.079 15.9999 58.5156 9.57724 64.0291 12.1483C69.5426 14.7194 70.0453 25.3102 65.152 35.804Z" fill="url(#paint20_linear_237_51365)"/>
    <path d="M46.1578 34.7738C45.9307 35.2606 45.9312 35.7912 46.1589 36.1066C47.0624 37.358 48.8641 38.7396 51.1355 39.7988C53.4069 40.8581 55.6234 41.3502 57.1627 41.2378C57.5508 41.2095 57.9576 40.8687 58.1846 40.3819C58.4562 39.7992 58.3977 39.1686 58.0447 38.907C55.702 37.1707 50.2135 34.6113 47.3775 33.9328C46.9502 33.8306 46.4294 34.1912 46.1578 34.7738Z" fill="url(#paint21_linear_237_51365)"/>
    <path d="M49.3111 28.0116C49.0841 28.4984 49.0845 29.029 49.3122 29.3444C50.2157 30.5958 52.0174 31.9774 54.2888 33.0366C56.5602 34.0957 58.7767 34.588 60.3161 34.4756C60.7042 34.4473 61.1109 34.1065 61.3379 33.6197C61.6095 33.037 61.5511 32.4064 61.198 32.1448C58.8553 30.4085 53.3668 27.8491 50.5308 27.1706C50.1035 27.0684 49.5827 27.4289 49.3111 28.0116Z" fill="url(#paint22_linear_237_51365)"/>
    <path d="M52.4644 21.2491C52.2374 21.7359 52.2378 22.2666 52.4655 22.582C53.3691 23.8334 55.1707 25.2149 57.4421 26.2742C59.7135 27.3333 61.93 27.8256 63.4694 27.7132C63.8575 27.6848 64.2642 27.344 64.4912 26.8572C64.7628 26.2746 64.7044 25.644 64.3513 25.3824C62.0086 23.646 56.5201 21.0866 53.6842 20.4081C53.2568 20.3059 52.736 20.6665 52.4644 21.2491Z" fill="url(#paint23_linear_237_51365)"/>
    <path d="M46.4231 24.0601C45.9904 24.8437 45.5768 25.6556 45.1859 26.4938C40.2925 36.9874 40.7954 47.5785 46.3089 50.1495C51.8224 52.7204 60.2587 46.2979 65.152 35.8041C67.0437 31.7475 68.1282 27.6769 68.4293 24.0601H46.4231Z" fill="url(#paint24_linear_237_51365)"/>
    <path d="M59.8144 72.302H12.1855C9.82654 72.302 7.91431 70.3898 7.91431 68.0309V41.1408C7.91431 39.1788 9.50494 37.5881 11.467 37.5881H60.5329C62.495 37.5881 64.0856 39.1788 64.0856 41.1408V68.0309C64.0856 70.3898 62.1734 72.302 59.8144 72.302Z" fill="url(#paint25_linear_237_51365)"/>
    <path d="M59.8144 72.302H12.1855C9.82654 72.302 7.91431 70.3898 7.91431 68.0309V41.1408C7.91431 39.1788 9.50494 37.5881 11.467 37.5881H60.5329C62.495 37.5881 64.0856 39.1788 64.0856 41.1408V68.0309C64.0856 70.3898 62.1734 72.302 59.8144 72.302Z" fill="url(#paint26_linear_237_51365)"/>
    <path d="M36 72.302H59.8145C62.1734 72.302 64.0856 70.3898 64.0856 68.0309V41.1408C64.0856 39.1788 62.495 37.5881 60.5329 37.5881H36V72.302Z" fill="url(#paint27_linear_237_51365)"/>
    <path d="M7.91431 54.0183V68.0308C7.91431 70.3898 9.82654 72.3021 12.1855 72.3021H59.8144C62.1734 72.3021 64.0856 70.3898 64.0856 68.0309V54.0183H7.91431Z" fill="url(#paint28_linear_237_51365)"/>
    <path d="M44.8362 52.3101L63.1822 70.6561C63.7476 69.9317 64.0856 69.021 64.0856 68.0309V52.3101H44.8362Z" fill="url(#paint29_linear_237_51365)"/>
    <path d="M71.6646 50.2865L65.9711 40.747C64.8018 38.7879 62.6886 37.5881 60.4072 37.5881H36L44.4943 51.8204C45.2555 53.0959 46.6316 53.8772 48.117 53.8772H69.626C70.9371 53.8772 72 52.8143 72 51.5032C72 51.0747 71.8841 50.6543 71.6646 50.2865Z" fill="url(#paint30_linear_237_51365)"/>
    <path d="M0.335435 50.2865L6.02894 40.747C7.19817 38.7879 9.31144 37.5881 11.5928 37.5881H36L27.5057 51.8204C26.7445 53.0959 25.3684 53.8772 23.883 53.8772H2.37402C1.06292 53.8771 0 52.8143 0 51.5032C0 51.0747 0.115906 50.6543 0.335435 50.2865Z" fill="url(#paint31_linear_237_51365)"/>
    <path d="M5.56433 41.5256L0.335435 50.2866C0.115906 50.6544 0 51.0748 0 51.5033C0 52.8144 1.06292 53.8773 2.37402 53.8773H23.883C25.3684 53.8773 26.7445 53.0962 27.5057 51.8205C27.5057 51.8205 31.1908 45.646 33.65 41.5256H5.56433Z" fill="url(#paint32_linear_237_51365)"/>
    <path d="M66.4357 41.5256L71.6646 50.2866C71.8842 50.6545 72.0001 51.0748 72.0001 51.5033C72.0001 52.8144 70.9372 53.8773 69.6261 53.8773H48.1171C46.6317 53.8773 45.2556 53.0962 44.4944 51.8205C44.4944 51.8205 40.8093 45.646 38.3501 41.5256H66.4357Z" fill="url(#paint33_linear_237_51365)"/>
    <path d="M16.9495 26.3309V25.4747C16.9495 22.9383 19.0057 20.8821 21.5421 20.8821H22.3983C22.7511 20.8821 23.037 21.1681 23.037 21.5208V22.377C23.037 24.9134 20.9808 26.9696 18.4444 26.9696H17.5881C17.2353 26.9698 16.9495 26.6837 16.9495 26.3309Z" fill="url(#paint34_linear_237_51365)"/>
    <path d="M23.0369 21.5209C23.0369 21.3601 22.977 21.2136 22.8789 21.1013L17.1685 26.8118C17.2807 26.9099 17.4272 26.9697 17.588 26.9697H18.4443C20.9806 26.9697 23.0369 24.9135 23.0369 22.3771V21.5209Z" fill="url(#paint35_linear_237_51365)"/>
    <path d="M17.4914 28.5695C17.8537 28.4376 18.1229 28.1681 18.1674 27.8924C18.344 26.7987 18.1307 25.1829 17.5154 23.4925C16.9002 21.8021 16.025 20.4273 15.1866 19.7029C14.9753 19.5204 14.5958 19.4869 14.2335 19.6188C13.8 19.7766 13.5096 20.1264 13.5559 20.4383C13.8636 22.5086 15.3504 26.5934 16.4453 28.3772C16.6105 28.6459 17.0579 28.7272 17.4914 28.5695Z" fill="url(#paint36_linear_237_51365)"/>
  </g>
  <defs>
    <linearGradient id="paint0_linear_237_51365" x1="47.7167" y1="27.6933" x2="65.142" y2="35.8289" gradientUnits="userSpaceOnUse">
      <stop stop-color="#F89580"/>
      <stop offset="1" stop-color="#C4573A"/>
    </linearGradient>
    <linearGradient id="paint1_linear_237_51365" x1="54.6531" y1="30.8881" x2="63.406" y2="35.3116" gradientUnits="userSpaceOnUse">
      <stop stop-color="#C4573A" stop-opacity="0"/>
      <stop offset="0.2579" stop-color="#BA5338" stop-opacity="0.258"/>
      <stop offset="0.6987" stop-color="#9E4832" stop-opacity="0.699"/>
      <stop offset="1" stop-color="#883F2E"/>
    </linearGradient>
    <linearGradient id="paint2_linear_237_51365" x1="51.5742" y1="38.8891" x2="52.5227" y2="36.8577" gradientUnits="userSpaceOnUse">
      <stop stop-color="#FFDFCF"/>
      <stop offset="1" stop-color="#FFA78F"/>
    </linearGradient>
    <linearGradient id="paint3_linear_237_51365" x1="54.7304" y1="32.1291" x2="55.6788" y2="30.0979" gradientUnits="userSpaceOnUse">
      <stop stop-color="#FFDFCF"/>
      <stop offset="1" stop-color="#FFA78F"/>
    </linearGradient>
    <linearGradient id="paint4_linear_237_51365" x1="57.8866" y1="25.369" x2="58.835" y2="23.3377" gradientUnits="userSpaceOnUse">
      <stop stop-color="#FFDFCF"/>
      <stop offset="1" stop-color="#FFA78F"/>
    </linearGradient>
    <linearGradient id="paint5_linear_237_51365" x1="24.8738" y1="22.8493" x2="43.715" y2="22.8493" gradientUnits="userSpaceOnUse">
      <stop stop-color="#FFFDF1"/>
      <stop offset="1" stop-color="#FFF5C6"/>
    </linearGradient>
    <linearGradient id="paint6_linear_237_51365" x1="41.1894" y1="24.5145" x2="50.1115" y2="24.5145" gradientUnits="userSpaceOnUse">
      <stop stop-color="#FEA613" stop-opacity="0"/>
      <stop offset="0.1832" stop-color="#FC9B19" stop-opacity="0.183"/>
      <stop offset="0.5086" stop-color="#F57D28" stop-opacity="0.509"/>
      <stop offset="0.9356" stop-color="#EB4C40" stop-opacity="0.936"/>
      <stop offset="1" stop-color="#E94444"/>
    </linearGradient>
    <linearGradient id="paint7_linear_237_51365" x1="33.2836" y1="14.4902" x2="33.2836" y2="-4.50283" gradientUnits="userSpaceOnUse">
      <stop stop-color="#FEA613" stop-opacity="0"/>
      <stop offset="0.1832" stop-color="#FC9B19" stop-opacity="0.183"/>
      <stop offset="0.5086" stop-color="#F57D28" stop-opacity="0.509"/>
      <stop offset="0.9356" stop-color="#EB4C40" stop-opacity="0.936"/>
      <stop offset="1" stop-color="#E94444"/>
    </linearGradient>
    <linearGradient id="paint8_linear_237_51365" x1="30.2249" y1="30.707" x2="41.4817" y2="30.707" gradientUnits="userSpaceOnUse">
      <stop stop-color="#B3DAFE"/>
      <stop offset="1" stop-color="#60B7FF"/>
    </linearGradient>
    <linearGradient id="paint9_linear_237_51365" x1="34.5831" y1="30.2148" x2="23.7126" y2="34.4973" gradientUnits="userSpaceOnUse">
      <stop stop-color="#017BAE" stop-opacity="0"/>
      <stop offset="1" stop-color="#017BAE"/>
    </linearGradient>
    <linearGradient id="paint10_linear_237_51365" x1="36.7339" y1="32.3391" x2="43.4162" y2="33.9392" gradientUnits="userSpaceOnUse">
      <stop stop-color="#017BAE" stop-opacity="0"/>
      <stop offset="1" stop-color="#017BAE"/>
    </linearGradient>
    <linearGradient id="paint11_linear_237_51365" x1="33.2836" y1="7.10512" x2="33.2836" y2="9.86893" gradientUnits="userSpaceOnUse">
      <stop stop-color="#FFFDF1"/>
      <stop offset="1" stop-color="#FFF5C6"/>
    </linearGradient>
    <linearGradient id="paint12_linear_237_51365" x1="32.927" y1="1.70685" x2="33.7774" y2="4.77772" gradientUnits="userSpaceOnUse">
      <stop stop-color="#B3DAFE"/>
      <stop offset="1" stop-color="#60B7FF"/>
    </linearGradient>
    <linearGradient id="paint13_linear_237_51365" x1="33.2835" y1="0.679931" x2="33.2835" y2="8.88469" gradientUnits="userSpaceOnUse">
      <stop stop-color="#017BAE" stop-opacity="0"/>
      <stop offset="1" stop-color="#017BAE"/>
    </linearGradient>
    <linearGradient id="paint14_linear_237_51365" x1="33.2834" y1="0.679931" x2="33.2834" y2="8.88469" gradientUnits="userSpaceOnUse">
      <stop stop-color="#017BAE" stop-opacity="0"/>
      <stop offset="1" stop-color="#017BAE"/>
    </linearGradient>
    <linearGradient id="paint15_linear_237_51365" x1="11.9706" y1="28.5199" x2="19.9845" y2="36.5336" gradientUnits="userSpaceOnUse">
      <stop stop-color="#FE646F"/>
      <stop offset="1" stop-color="#E41F2D"/>
    </linearGradient>
    <linearGradient id="paint16_linear_237_51365" x1="16.6042" y1="31.3346" x2="17.8276" y2="39.2405" gradientUnits="userSpaceOnUse">
      <stop stop-color="#A72B2B" stop-opacity="0"/>
      <stop offset="0.1643" stop-color="#A02A29" stop-opacity="0.164"/>
      <stop offset="0.4017" stop-color="#8D2823" stop-opacity="0.402"/>
      <stop offset="0.6836" stop-color="#6E2519" stop-opacity="0.684"/>
      <stop offset="0.9975" stop-color="#42210B" stop-opacity="0.998"/>
      <stop offset="1" stop-color="#42210B"/>
    </linearGradient>
    <linearGradient id="paint17_linear_237_51365" x1="20.8471" y1="34.4911" x2="29.1594" y2="34.4911" gradientUnits="userSpaceOnUse">
      <stop stop-color="#A72B2B" stop-opacity="0"/>
      <stop offset="0.1643" stop-color="#A02A29" stop-opacity="0.164"/>
      <stop offset="0.4017" stop-color="#8D2823" stop-opacity="0.402"/>
      <stop offset="0.6836" stop-color="#6E2519" stop-opacity="0.684"/>
      <stop offset="0.9975" stop-color="#42210B" stop-opacity="0.998"/>
      <stop offset="1" stop-color="#42210B"/>
    </linearGradient>
    <linearGradient id="paint18_linear_237_51365" x1="16.8311" y1="27.1254" x2="16.8311" y2="31.5491" gradientUnits="userSpaceOnUse">
      <stop stop-color="#A72B2B" stop-opacity="0"/>
      <stop offset="0.1643" stop-color="#A02A29" stop-opacity="0.164"/>
      <stop offset="0.4017" stop-color="#8D2823" stop-opacity="0.402"/>
      <stop offset="0.6836" stop-color="#6E2519" stop-opacity="0.684"/>
      <stop offset="0.9975" stop-color="#42210B" stop-opacity="0.998"/>
      <stop offset="1" stop-color="#42210B"/>
    </linearGradient>
    <linearGradient id="paint19_linear_237_51365" x1="47.7167" y1="27.6933" x2="65.142" y2="35.8289" gradientUnits="userSpaceOnUse">
      <stop stop-color="#F89580"/>
      <stop offset="1" stop-color="#C4573A"/>
    </linearGradient>
    <linearGradient id="paint20_linear_237_51365" x1="54.6531" y1="30.8881" x2="63.406" y2="35.3116" gradientUnits="userSpaceOnUse">
      <stop stop-color="#C4573A" stop-opacity="0"/>
      <stop offset="0.2579" stop-color="#BA5338" stop-opacity="0.258"/>
      <stop offset="0.6987" stop-color="#9E4832" stop-opacity="0.699"/>
      <stop offset="1" stop-color="#883F2E"/>
    </linearGradient>
    <linearGradient id="paint21_linear_237_51365" x1="51.5742" y1="38.8891" x2="52.5227" y2="36.8577" gradientUnits="userSpaceOnUse">
      <stop stop-color="#FFDFCF"/>
      <stop offset="1" stop-color="#FFA78F"/>
    </linearGradient>
    <linearGradient id="paint22_linear_237_51365" x1="54.7304" y1="32.1291" x2="55.6788" y2="30.0979" gradientUnits="userSpaceOnUse">
      <stop stop-color="#FFDFCF"/>
      <stop offset="1" stop-color="#FFA78F"/>
    </linearGradient>
    <linearGradient id="paint23_linear_237_51365" x1="57.8866" y1="25.369" x2="58.835" y2="23.3377" gradientUnits="userSpaceOnUse">
      <stop stop-color="#FFDFCF"/>
      <stop offset="1" stop-color="#FFA78F"/>
    </linearGradient>
    <linearGradient id="paint24_linear_237_51365" x1="55.1253" y1="32.3022" x2="55.1253" y2="39.1785" gradientUnits="userSpaceOnUse">
      <stop stop-color="#C4573A" stop-opacity="0"/>
      <stop offset="0.2579" stop-color="#BA5338" stop-opacity="0.258"/>
      <stop offset="0.6987" stop-color="#9E4832" stop-opacity="0.699"/>
      <stop offset="1" stop-color="#883F2E"/>
    </linearGradient>
    <linearGradient id="paint25_linear_237_51365" x1="19.4791" y1="38.2138" x2="56.5763" y2="75.3109" gradientUnits="userSpaceOnUse">
      <stop stop-color="#C59191"/>
      <stop offset="1" stop-color="#9B5E5E"/>
    </linearGradient>
    <linearGradient id="paint26_linear_237_51365" x1="37.8777" y1="58.5348" x2="28.2777" y2="38.7701" gradientUnits="userSpaceOnUse">
      <stop stop-color="#9B5E5E" stop-opacity="0"/>
      <stop offset="0.2469" stop-color="#955857" stop-opacity="0.247"/>
      <stop offset="0.6116" stop-color="#854943" stop-opacity="0.612"/>
      <stop offset="1" stop-color="#6D3326"/>
    </linearGradient>
    <linearGradient id="paint27_linear_237_51365" x1="18.3099" y1="25.6032" x2="75.1495" y2="79.9823" gradientUnits="userSpaceOnUse">
      <stop stop-color="#9B5E5E" stop-opacity="0"/>
      <stop offset="0.2469" stop-color="#955857" stop-opacity="0.247"/>
      <stop offset="0.6116" stop-color="#854943" stop-opacity="0.612"/>
      <stop offset="1" stop-color="#6D3326"/>
    </linearGradient>
    <linearGradient id="paint28_linear_237_51365" x1="36" y1="64.6135" x2="36" y2="72.3021" gradientUnits="userSpaceOnUse">
      <stop stop-color="#9B5E5E" stop-opacity="0"/>
      <stop offset="0.2469" stop-color="#955857" stop-opacity="0.247"/>
      <stop offset="0.6116" stop-color="#854943" stop-opacity="0.612"/>
      <stop offset="1" stop-color="#6D3326"/>
    </linearGradient>
    <linearGradient id="paint29_linear_237_51365" x1="61.5249" y1="69.5963" x2="53.525" y2="50.0198" gradientUnits="userSpaceOnUse">
      <stop stop-color="#9B5E5E" stop-opacity="0"/>
      <stop offset="0.2469" stop-color="#955857" stop-opacity="0.247"/>
      <stop offset="0.6116" stop-color="#854943" stop-opacity="0.612"/>
      <stop offset="1" stop-color="#6D3326"/>
    </linearGradient>
    <linearGradient id="paint30_linear_237_51365" x1="51.4504" y1="37.3171" x2="59.0739" y2="58.3054" gradientUnits="userSpaceOnUse">
      <stop stop-color="#C59191"/>
      <stop offset="1" stop-color="#9B5E5E"/>
    </linearGradient>
    <linearGradient id="paint31_linear_237_51365" x1="15.8243" y1="39.0449" x2="24.9536" y2="63.0449" gradientUnits="userSpaceOnUse">
      <stop stop-color="#C59191"/>
      <stop offset="1" stop-color="#9B5E5E"/>
    </linearGradient>
    <linearGradient id="paint32_linear_237_51365" x1="16.825" y1="49.808" x2="16.825" y2="55.6433" gradientUnits="userSpaceOnUse">
      <stop stop-color="#9B5E5E" stop-opacity="0"/>
      <stop offset="0.2469" stop-color="#955857" stop-opacity="0.247"/>
      <stop offset="0.6116" stop-color="#854943" stop-opacity="0.612"/>
      <stop offset="1" stop-color="#6D3326"/>
    </linearGradient>
    <linearGradient id="paint33_linear_237_51365" x1="55.1751" y1="49.808" x2="55.1751" y2="55.6433" gradientUnits="userSpaceOnUse">
      <stop stop-color="#9B5E5E" stop-opacity="0"/>
      <stop offset="0.2469" stop-color="#955857" stop-opacity="0.247"/>
      <stop offset="0.6116" stop-color="#854943" stop-opacity="0.612"/>
      <stop offset="1" stop-color="#6D3326"/>
    </linearGradient>
    <linearGradient id="paint34_linear_237_51365" x1="19.1024" y1="21.595" x2="20.6061" y2="25.5293" gradientUnits="userSpaceOnUse">
      <stop stop-color="#BBEC6C"/>
      <stop offset="1" stop-color="#78A91F"/>
    </linearGradient>
    <linearGradient id="paint35_linear_237_51365" x1="21.4378" y1="24.6674" x2="17.895" y2="22.9166" gradientUnits="userSpaceOnUse">
      <stop stop-color="#78A91F" stop-opacity="0"/>
      <stop offset="1" stop-color="#026841"/>
    </linearGradient>
    <linearGradient id="paint36_linear_237_51365" x1="17.2071" y1="23.5941" x2="15.3718" y2="24.2765" gradientUnits="userSpaceOnUse">
      <stop stop-color="#554E56"/>
      <stop offset="1" stop-color="#433F43"/>
    </linearGradient>
    <clipPath id="clip0_237_51365">
      <rect width="72" height="72" fill="white" transform="translate(0 0.302002)"/>
    </clipPath>
  </defs>
</svg>