<svg xmlns="http://www.w3.org/2000/svg" width="72" height="73" viewBox="0 0 72 73" fill="none">
  <g clip-path="url(#clip0_237_51523)">
    <path d="M18.8188 27.63H5.63721V10.1983C5.63721 9.21028 6.43807 8.40942 7.4261 8.40942H17.0299C18.018 8.40942 18.8188 9.21028 18.8188 10.1983V27.63Z" fill="url(#paint0_linear_237_51523)"/>
    <path d="M18.8188 27.63H5.63721V10.1983C5.63721 9.21028 6.43807 8.40942 7.4261 8.40942H17.0299C18.018 8.40942 18.8188 9.21028 18.8188 10.1983V27.63Z" fill="url(#paint1_linear_237_51523)"/>
    <path d="M18.8189 10.1984V27.6296H10.6992V8.40991H17.0306C18.0172 8.40991 18.8189 9.21021 18.8189 10.1984Z" fill="url(#paint2_linear_237_51523)"/>
    <path d="M52.2244 18.0198H19.7754L5.63721 28.4845V61.6118C5.63721 63.0383 6.79357 64.1948 8.22021 64.1948H63.7799C65.2064 64.1948 66.3629 63.0385 66.3629 61.6118V28.4845L52.2244 18.0198Z" fill="url(#paint3_linear_237_51523)"/>
    <path d="M52.2244 18.0198H19.7754L5.63721 28.4845V61.6118C5.63721 63.0383 6.79357 64.1948 8.22021 64.1948H63.7799C65.2064 64.1948 66.3629 63.0385 66.3629 61.6118V28.4845L52.2244 18.0198Z" fill="url(#paint4_linear_237_51523)"/>
    <path d="M52.2245 18.0198H30.7478L44.886 28.4845V61.6118C44.886 63.0383 43.7296 64.1948 42.303 64.1948H63.7796C65.2061 64.1948 66.3626 63.0385 66.3626 61.6118V28.4845L52.2245 18.0198Z" fill="url(#paint5_linear_237_51523)"/>
    <path d="M5.63721 47.3162V61.6121C5.63721 63.0386 6.79357 64.1951 8.22021 64.1951H63.7799C65.2064 64.1951 66.3629 63.0387 66.3629 61.6121V47.3162H5.63721Z" fill="url(#paint6_linear_237_51523)"/>
    <path d="M50.4019 18.0198V64.1948H63.7797C65.2062 64.1948 66.3627 63.0385 66.3627 61.6118V28.4845L52.2244 18.0198H50.4019Z" fill="url(#paint7_linear_237_51523)"/>
    <path d="M66.3625 54.0203V32.9006H45.2429L66.3625 54.0203Z" fill="url(#paint8_linear_237_51523)"/>
    <path d="M21.6893 42.6676H13.8204C12.8875 42.6676 12.1313 41.9113 12.1313 40.9786V33.1095C12.1313 32.1766 12.8876 31.4204 13.8204 31.4204H21.6895C22.6224 31.4204 23.3785 32.1767 23.3785 33.1095V40.9786C23.3785 41.9113 22.6223 42.6676 21.6893 42.6676Z" fill="url(#paint9_linear_237_51523)"/>
    <path d="M36.7024 42.6676H28.8333C27.9004 42.6676 27.1443 41.9113 27.1443 40.9786V33.1095C27.1443 32.1766 27.9006 31.4204 28.8333 31.4204H36.7024C37.6353 31.4204 38.3915 32.1767 38.3915 33.1095V40.9786C38.3915 41.9113 37.6353 42.6676 36.7024 42.6676Z" fill="url(#paint10_linear_237_51523)"/>
    <path d="M21.6893 57.4244H13.8204C12.8875 57.4244 12.1313 56.6682 12.1313 55.7354V47.8663C12.1313 46.9334 12.8876 46.1772 13.8204 46.1772H21.6895C22.6224 46.1772 23.3785 46.9335 23.3785 47.8663V55.7354C23.3785 56.6682 22.6223 57.4244 21.6893 57.4244Z" fill="url(#paint11_linear_237_51523)"/>
    <path d="M36.7024 57.4244H28.8333C27.9004 57.4244 27.1443 56.6682 27.1443 55.7354V47.8663C27.1443 46.9334 27.9006 46.1772 28.8333 46.1772H36.7024C37.6353 46.1772 38.3915 46.9335 38.3915 47.8663V55.7354C38.3915 56.6682 37.6353 57.4244 36.7024 57.4244Z" fill="url(#paint12_linear_237_51523)"/>
    <path d="M21.6893 42.6676H13.8204C12.8875 42.6676 12.1313 41.9113 12.1313 40.9786V33.1095C12.1313 32.1766 12.8876 31.4204 13.8204 31.4204H21.6895C22.6224 31.4204 23.3785 32.1767 23.3785 33.1095V40.9786C23.3785 41.9113 22.6223 42.6676 21.6893 42.6676Z" fill="url(#paint13_linear_237_51523)"/>
    <path d="M21.6893 42.6676H13.8204C12.8875 42.6676 12.1313 41.9113 12.1313 40.9786V33.1095C12.1313 32.1766 12.8876 31.4204 13.8204 31.4204H21.6895C22.6224 31.4204 23.3785 32.1767 23.3785 33.1095V40.9786C23.3785 41.9113 22.6223 42.6676 21.6893 42.6676Z" fill="url(#paint14_linear_237_51523)"/>
    <path d="M36.7024 42.6676H28.8333C27.9004 42.6676 27.1443 41.9113 27.1443 40.9786V33.1095C27.1443 32.1766 27.9006 31.4204 28.8333 31.4204H36.7024C37.6353 31.4204 38.3915 32.1767 38.3915 33.1095V40.9786C38.3915 41.9113 37.6353 42.6676 36.7024 42.6676Z" fill="url(#paint15_linear_237_51523)"/>
    <path d="M36.7024 42.6676H28.8333C27.9004 42.6676 27.1443 41.9113 27.1443 40.9786V33.1095C27.1443 32.1766 27.9006 31.4204 28.8333 31.4204H36.7024C37.6353 31.4204 38.3915 32.1767 38.3915 33.1095V40.9786C38.3915 41.9113 37.6353 42.6676 36.7024 42.6676Z" fill="url(#paint16_linear_237_51523)"/>
    <path d="M21.6893 57.4244H13.8204C12.8875 57.4244 12.1313 56.6682 12.1313 55.7354V47.8663C12.1313 46.9334 12.8876 46.1772 13.8204 46.1772H21.6895C22.6224 46.1772 23.3785 46.9335 23.3785 47.8663V55.7354C23.3785 56.6682 22.6223 57.4244 21.6893 57.4244Z" fill="url(#paint17_linear_237_51523)"/>
    <path d="M21.6893 57.4244H13.8204C12.8875 57.4244 12.1313 56.6682 12.1313 55.7354V47.8663C12.1313 46.9334 12.8876 46.1772 13.8204 46.1772H21.6895C22.6224 46.1772 23.3785 46.9335 23.3785 47.8663V55.7354C23.3785 56.6682 22.6223 57.4244 21.6893 57.4244Z" fill="url(#paint18_linear_237_51523)"/>
    <path d="M36.7024 57.4244H28.8333C27.9004 57.4244 27.1443 56.6682 27.1443 55.7354V47.8663C27.1443 46.9334 27.9006 46.1772 28.8333 46.1772H36.7024C37.6353 46.1772 38.3915 46.9335 38.3915 47.8663V55.7354C38.3915 56.6682 37.6353 57.4244 36.7024 57.4244Z" fill="url(#paint19_linear_237_51523)"/>
    <path d="M36.7024 57.4244H28.8333C27.9004 57.4244 27.1443 56.6682 27.1443 55.7354V47.8663C27.1443 46.9334 27.9006 46.1772 28.8333 46.1772H36.7024C37.6353 46.1772 38.3915 46.9335 38.3915 47.8663V55.7354C38.3915 56.6682 37.6353 57.4244 36.7024 57.4244Z" fill="url(#paint20_linear_237_51523)"/>
    <path d="M70.6579 27.5796L49.4635 11.8909C48.6498 11.2885 47.6868 10.9893 46.7244 10.9922H25.2615L46.7381 33.516H68.2143C69.466 33.6964 70.7732 33.1496 71.4955 31.9961C71.8359 31.4508 72 30.8437 72 30.2412C72 29.2245 71.5316 28.2258 70.6579 27.5796Z" fill="url(#paint21_linear_237_51523)"/>
    <path d="M70.658 27.5796L49.4635 11.8909C48.6499 11.2885 47.6869 10.9893 46.7244 10.9922H36.2556V22.5223L46.7382 33.516H68.2143C69.466 33.6964 70.7733 33.1496 71.4955 31.9961C71.836 31.4508 72.0001 30.8437 72.0001 30.2412C72.0001 29.2245 71.5317 28.2258 70.658 27.5796Z" fill="url(#paint22_linear_237_51523)"/>
    <path d="M46.7382 33.5159H68.2143C69.466 33.6963 70.7733 33.1496 71.4955 31.996C71.836 31.4507 72.0001 30.8436 72.0001 30.2412C72.0001 29.2245 71.5316 28.2257 70.6579 27.5794L62.7355 21.7151H35.4861L46.7382 33.5159Z" fill="url(#paint23_linear_237_51523)"/>
    <path d="M26.2686 18.8565L45.2429 32.9008C46.7941 34.049 48.9946 33.6321 50.0183 31.9962C50.9351 30.5313 50.5707 28.6075 49.1816 27.5794L27.9863 11.8909C26.3675 10.6926 24.1556 10.6926 22.5367 11.8909L1.34114 27.5793C-0.0479505 28.6074 -0.41231 30.5312 0.504425 31.996C1.52817 33.6321 3.72867 34.0489 5.27991 32.9007L24.2542 18.8563C24.8527 18.4135 25.6703 18.4135 26.2686 18.8565Z" fill="url(#paint24_linear_237_51523)"/>
    <path d="M50.0052 32.0159L27.9861 15.718C26.3673 14.5198 24.1554 14.5198 22.5365 15.718L0.517578 32.0159C1.54681 33.6349 3.73508 34.044 5.27984 32.9007L24.2541 18.8564C24.8525 18.4134 25.67 18.4134 26.2685 18.8564L45.2428 32.9007C46.7877 34.044 48.976 33.6349 50.0052 32.0159Z" fill="url(#paint25_linear_237_51523)"/>
    <path d="M33.8628 24.4774L45.243 32.9007C46.7942 34.0489 48.9947 33.632 50.0185 31.9961C50.9352 30.5312 50.5709 28.6075 49.1818 27.5793L38.5961 19.7441L33.8628 24.4774Z" fill="url(#paint26_linear_237_51523)"/>
    <path d="M16.6601 24.4774L5.27991 32.9007C3.72867 34.0489 1.52817 33.632 0.504425 31.9961C-0.41231 30.5312 -0.0479505 28.6075 1.34114 27.5793L11.9268 19.7441L16.6601 24.4774Z" fill="url(#paint27_linear_237_51523)"/>
  </g>
  <defs>
    <linearGradient id="paint0_linear_237_51523" x1="7.11349" y1="18.0197" x2="18.9035" y2="18.0197" gradientUnits="userSpaceOnUse">
      <stop stop-color="#FEF0AE"/>
      <stop offset="1" stop-color="#FBC56D"/>
    </linearGradient>
    <linearGradient id="paint1_linear_237_51523" x1="10.2988" y1="15.9077" x2="13.0355" y2="19.7684" gradientUnits="userSpaceOnUse">
      <stop stop-color="#DC8758" stop-opacity="0"/>
      <stop offset="0.2153" stop-color="#DD8654" stop-opacity="0.215"/>
      <stop offset="0.4291" stop-color="#E28448" stop-opacity="0.429"/>
      <stop offset="0.6424" stop-color="#EA8034" stop-opacity="0.642"/>
      <stop offset="0.8543" stop-color="#F47B18" stop-opacity="0.854"/>
      <stop offset="1" stop-color="#FE7701"/>
    </linearGradient>
    <linearGradient id="paint2_linear_237_51523" x1="14.6006" y1="18.0197" x2="18.9486" y2="18.0197" gradientUnits="userSpaceOnUse">
      <stop stop-color="#DC8758" stop-opacity="0"/>
      <stop offset="0.2153" stop-color="#DD8654" stop-opacity="0.215"/>
      <stop offset="0.4291" stop-color="#E28448" stop-opacity="0.429"/>
      <stop offset="0.6424" stop-color="#EA8034" stop-opacity="0.642"/>
      <stop offset="0.8543" stop-color="#F47B18" stop-opacity="0.854"/>
      <stop offset="1" stop-color="#FE7701"/>
    </linearGradient>
    <linearGradient id="paint3_linear_237_51523" x1="14.049" y1="23.6323" x2="47.5631" y2="57.1464" gradientUnits="userSpaceOnUse">
      <stop stop-color="#EAF9FA"/>
      <stop offset="1" stop-color="#B3DAFE"/>
    </linearGradient>
    <linearGradient id="paint4_linear_237_51523" x1="24.0149" y1="28.2448" x2="19.827" y2="22.2312" gradientUnits="userSpaceOnUse">
      <stop stop-color="#7BACDF" stop-opacity="0"/>
      <stop offset="1" stop-color="#7BACDF"/>
    </linearGradient>
    <linearGradient id="paint5_linear_237_51523" x1="14.8636" y1="-4.36829" x2="84.904" y2="85.6158" gradientUnits="userSpaceOnUse">
      <stop stop-color="#7BACDF" stop-opacity="0"/>
      <stop offset="1" stop-color="#7BACDF"/>
    </linearGradient>
    <linearGradient id="paint6_linear_237_51523" x1="36" y1="57.625" x2="36" y2="64.2369" gradientUnits="userSpaceOnUse">
      <stop stop-color="#7BACDF" stop-opacity="0"/>
      <stop offset="1" stop-color="#7BACDF"/>
    </linearGradient>
    <linearGradient id="paint7_linear_237_51523" x1="59.2609" y1="41.1073" x2="65.2985" y2="41.1073" gradientUnits="userSpaceOnUse">
      <stop stop-color="#7BACDF" stop-opacity="0"/>
      <stop offset="1" stop-color="#7BACDF"/>
    </linearGradient>
    <linearGradient id="paint8_linear_237_51523" x1="57.4637" y1="43.8888" x2="55.6023" y2="31.5754" gradientUnits="userSpaceOnUse">
      <stop stop-color="#7BACDF" stop-opacity="0"/>
      <stop offset="1" stop-color="#7BACDF"/>
    </linearGradient>
    <linearGradient id="paint9_linear_237_51523" x1="14.6024" y1="33.8915" x2="23.1911" y2="42.4801" gradientUnits="userSpaceOnUse">
      <stop stop-color="#62DBFB"/>
      <stop offset="0.1912" stop-color="#57D5FA"/>
      <stop offset="0.5232" stop-color="#3BC5F7"/>
      <stop offset="0.954" stop-color="#0DABF2"/>
      <stop offset="1" stop-color="#08A9F1"/>
    </linearGradient>
    <linearGradient id="paint10_linear_237_51523" x1="29.6153" y1="33.8915" x2="38.2042" y2="42.4801" gradientUnits="userSpaceOnUse">
      <stop stop-color="#62DBFB"/>
      <stop offset="0.1912" stop-color="#57D5FA"/>
      <stop offset="0.5232" stop-color="#3BC5F7"/>
      <stop offset="0.954" stop-color="#0DABF2"/>
      <stop offset="1" stop-color="#08A9F1"/>
    </linearGradient>
    <linearGradient id="paint11_linear_237_51523" x1="14.6024" y1="48.6483" x2="23.1911" y2="57.237" gradientUnits="userSpaceOnUse">
      <stop stop-color="#62DBFB"/>
      <stop offset="0.1912" stop-color="#57D5FA"/>
      <stop offset="0.5232" stop-color="#3BC5F7"/>
      <stop offset="0.954" stop-color="#0DABF2"/>
      <stop offset="1" stop-color="#08A9F1"/>
    </linearGradient>
    <linearGradient id="paint12_linear_237_51523" x1="29.6153" y1="48.6483" x2="38.2042" y2="57.237" gradientUnits="userSpaceOnUse">
      <stop stop-color="#62DBFB"/>
      <stop offset="0.1912" stop-color="#57D5FA"/>
      <stop offset="0.5232" stop-color="#3BC5F7"/>
      <stop offset="0.954" stop-color="#0DABF2"/>
      <stop offset="1" stop-color="#08A9F1"/>
    </linearGradient>
    <linearGradient id="paint13_linear_237_51523" x1="17.7548" y1="34.4303" x2="17.7548" y2="30.4723" gradientUnits="userSpaceOnUse">
      <stop stop-color="#0593FC" stop-opacity="0"/>
      <stop offset="0.6831" stop-color="#0389FC" stop-opacity="0.683"/>
      <stop offset="1" stop-color="#0182FC"/>
    </linearGradient>
    <linearGradient id="paint14_linear_237_51523" x1="15.8206" y1="37.044" x2="11.7263" y2="37.044" gradientUnits="userSpaceOnUse">
      <stop stop-color="#0593FC" stop-opacity="0"/>
      <stop offset="0.6831" stop-color="#0389FC" stop-opacity="0.683"/>
      <stop offset="1" stop-color="#0182FC"/>
    </linearGradient>
    <linearGradient id="paint15_linear_237_51523" x1="32.7679" y1="34.4303" x2="32.7679" y2="30.4723" gradientUnits="userSpaceOnUse">
      <stop stop-color="#0593FC" stop-opacity="0"/>
      <stop offset="0.6831" stop-color="#0389FC" stop-opacity="0.683"/>
      <stop offset="1" stop-color="#0182FC"/>
    </linearGradient>
    <linearGradient id="paint16_linear_237_51523" x1="30.8337" y1="37.044" x2="26.7394" y2="37.044" gradientUnits="userSpaceOnUse">
      <stop stop-color="#0593FC" stop-opacity="0"/>
      <stop offset="0.6831" stop-color="#0389FC" stop-opacity="0.683"/>
      <stop offset="1" stop-color="#0182FC"/>
    </linearGradient>
    <linearGradient id="paint17_linear_237_51523" x1="17.7548" y1="49.1872" x2="17.7548" y2="45.2292" gradientUnits="userSpaceOnUse">
      <stop stop-color="#0593FC" stop-opacity="0"/>
      <stop offset="0.6831" stop-color="#0389FC" stop-opacity="0.683"/>
      <stop offset="1" stop-color="#0182FC"/>
    </linearGradient>
    <linearGradient id="paint18_linear_237_51523" x1="15.8206" y1="51.8008" x2="11.7263" y2="51.8008" gradientUnits="userSpaceOnUse">
      <stop stop-color="#0593FC" stop-opacity="0"/>
      <stop offset="0.6831" stop-color="#0389FC" stop-opacity="0.683"/>
      <stop offset="1" stop-color="#0182FC"/>
    </linearGradient>
    <linearGradient id="paint19_linear_237_51523" x1="32.7679" y1="49.1872" x2="32.7679" y2="45.2292" gradientUnits="userSpaceOnUse">
      <stop stop-color="#0593FC" stop-opacity="0"/>
      <stop offset="0.6831" stop-color="#0389FC" stop-opacity="0.683"/>
      <stop offset="1" stop-color="#0182FC"/>
    </linearGradient>
    <linearGradient id="paint20_linear_237_51523" x1="30.8337" y1="51.8008" x2="26.7394" y2="51.8008" gradientUnits="userSpaceOnUse">
      <stop stop-color="#0593FC" stop-opacity="0"/>
      <stop offset="0.6831" stop-color="#0389FC" stop-opacity="0.683"/>
      <stop offset="1" stop-color="#0182FC"/>
    </linearGradient>
    <linearGradient id="paint21_linear_237_51523" x1="36.3301" y1="-5.9884" x2="51.6859" y2="26.7636" gradientUnits="userSpaceOnUse">
      <stop stop-color="#FD4755"/>
      <stop offset="0.3362" stop-color="#E43F48"/>
      <stop offset="1" stop-color="#A72B2B"/>
    </linearGradient>
    <linearGradient id="paint22_linear_237_51523" x1="54.2919" y1="21.1878" x2="60.0906" y2="15.8187" gradientUnits="userSpaceOnUse">
      <stop stop-color="#A72B2B" stop-opacity="0"/>
      <stop offset="1" stop-color="#481F05"/>
    </linearGradient>
    <linearGradient id="paint23_linear_237_51523" x1="53.743" y1="27.1816" x2="53.743" y2="34.5121" gradientUnits="userSpaceOnUse">
      <stop stop-color="#A72B2B" stop-opacity="0"/>
      <stop offset="1" stop-color="#481F05"/>
    </linearGradient>
    <linearGradient id="paint24_linear_237_51523" x1="21.3071" y1="11.1575" x2="26.544" y2="36.4307" gradientUnits="userSpaceOnUse">
      <stop stop-color="#FD4755"/>
      <stop offset="0.3362" stop-color="#E43F48"/>
      <stop offset="1" stop-color="#A72B2B"/>
    </linearGradient>
    <linearGradient id="paint25_linear_237_51523" x1="25.2614" y1="26.4692" x2="25.2614" y2="10.6771" gradientUnits="userSpaceOnUse">
      <stop stop-color="#A72B2B" stop-opacity="0"/>
      <stop offset="1" stop-color="#481F05"/>
    </linearGradient>
    <linearGradient id="paint26_linear_237_51523" x1="43.7326" y1="28.2127" x2="49.4706" y2="33.9508" gradientUnits="userSpaceOnUse">
      <stop stop-color="#A72B2B" stop-opacity="0"/>
      <stop offset="1" stop-color="#481F05"/>
    </linearGradient>
    <linearGradient id="paint27_linear_237_51523" x1="6.79036" y1="28.2127" x2="1.0523" y2="33.9508" gradientUnits="userSpaceOnUse">
      <stop stop-color="#A72B2B" stop-opacity="0"/>
      <stop offset="1" stop-color="#481F05"/>
    </linearGradient>
    <clipPath id="clip0_237_51523">
      <rect width="72" height="72" fill="white" transform="translate(0 0.302002)"/>
    </clipPath>
  </defs>
</svg>