<svg xmlns="http://www.w3.org/2000/svg" width="72" height="73" viewBox="0 0 72 73" fill="none">
  <g clip-path="url(#clip0_237_51263)">
    <path d="M56.3286 0.302612H47.8591C46.5781 0.302612 45.54 1.34068 45.54 2.62172V41.4502C45.54 42.7312 46.5781 43.7693 47.8591 43.7693H56.3286C57.6096 43.7693 58.6477 42.7312 58.6477 41.4502V2.62158C58.6476 1.34068 57.6095 0.302612 56.3286 0.302612Z" fill="url(#paint0_linear_237_51263)"/>
    <path d="M58.6477 2.62153V41.45C58.6477 42.731 57.6096 43.7691 56.3286 43.7691H55.2335L53.5391 43.7697V0.302002L56.3286 0.302567C57.6096 0.302567 58.6477 1.34064 58.6477 2.62153Z" fill="url(#paint1_linear_237_51263)"/>
    <path d="M45.5475 2.47327C45.5444 2.52254 45.54 2.57153 45.54 2.6215V41.45C45.54 42.731 46.5781 43.7691 47.8591 43.7691H56.3286C57.6096 43.7691 58.6477 42.731 58.6477 41.45V15.5735L45.5475 2.47327Z" fill="url(#paint2_linear_237_51263)"/>
    <path d="M58.6476 36.8203H45.54V41.4501C45.54 42.7311 46.5781 43.7692 47.8591 43.7692H56.3286C57.6096 43.7692 58.6477 42.7311 58.6477 41.4501L58.6476 36.8203Z" fill="url(#paint3_linear_237_51263)"/>
    <path d="M55.4931 2.97986C54.9084 2.97986 54.4343 3.45393 54.4343 4.03868C54.4343 4.62344 54.9084 5.09751 55.4931 5.09751H56.6931C57.2779 5.09751 57.752 4.62344 57.752 4.03868C57.752 3.45393 57.2779 2.97986 56.6931 2.97986H55.4931Z" fill="url(#paint4_linear_237_51263)"/>
    <path d="M55.4931 7.12085C54.9084 7.12085 54.4343 7.59492 54.4343 8.17967C54.4343 8.76443 54.9084 9.2385 55.4931 9.2385H56.6931C57.2779 9.2385 57.752 8.76443 57.752 8.17967C57.752 7.59492 57.2779 7.12085 56.6931 7.12085H55.4931Z" fill="url(#paint5_linear_237_51263)"/>
    <path d="M55.4931 11.2622C54.9084 11.2622 54.4343 11.7363 54.4343 12.321C54.4343 12.9058 54.9084 13.3799 55.4931 13.3799H56.6931C57.2779 13.3799 57.752 12.9058 57.752 12.321C57.752 11.7363 57.2779 11.2622 56.6931 11.2622H55.4931Z" fill="url(#paint6_linear_237_51263)"/>
    <path d="M55.4931 15.4033C54.9084 15.4033 54.4343 15.8774 54.4343 16.4621C54.4343 17.0469 54.9084 17.521 55.4931 17.521H56.6931C57.2779 17.521 57.752 17.0469 57.752 16.4621C57.752 15.8774 57.2779 15.4033 56.6931 15.4033H55.4931Z" fill="url(#paint7_linear_237_51263)"/>
    <path d="M55.4931 19.5444C54.9084 19.5444 54.4343 20.0185 54.4343 20.6033C54.4343 21.188 54.9084 21.6621 55.4931 21.6621H56.6931C57.2779 21.6621 57.752 21.188 57.752 20.6033C57.752 20.0185 57.2779 19.5444 56.6931 19.5444H55.4931Z" fill="url(#paint8_linear_237_51263)"/>
    <path d="M45.54 14.6079V41.4502C45.54 42.7313 46.5781 43.7693 47.8591 43.7693H56.3286C57.6096 43.7693 58.6477 42.7313 58.6477 41.4502V14.6079H45.54Z" fill="url(#paint9_linear_237_51263)"/>
    <path d="M45.7638 2.97037C45.3252 1.40345 43.346 0.912301 42.2257 2.09225L36.3557 8.27437C35.8377 8.82002 35.4701 9.49061 35.2888 10.2208L24.7003 52.8847C24.365 54.2358 25.1883 55.6028 26.5394 55.9381L34.453 57.9021C35.8041 58.2374 37.1711 57.4141 37.5064 56.063L48.0949 13.3991C48.2762 12.6689 48.2648 11.9042 48.062 11.1796L45.7638 2.97037Z" fill="url(#paint10_linear_237_51263)"/>
    <path d="M47.8494 14.3889L37.5064 56.0634C37.1711 57.4144 35.8047 58.2375 34.4536 57.9022L26.5394 55.938C25.1883 55.6027 24.3653 54.2363 24.7006 52.8852L35.0436 11.2106C35.2165 11.4397 35.4582 11.5914 35.7226 11.657C36.0269 11.7325 36.3613 11.6919 36.652 11.5168L37.3652 11.0872C38.3417 10.4991 39.6078 10.8132 40.1947 11.7894C40.4883 12.2769 40.9524 12.5987 41.4648 12.7259C41.9773 12.8531 42.5381 12.7857 43.0254 12.4921C43.5129 12.1986 44.0739 12.1297 44.585 12.2566C45.0975 12.3838 45.5599 12.7065 45.8549 13.1943L46.2845 13.9075C46.611 14.4495 47.2889 14.6484 47.8494 14.3889Z" fill="url(#paint11_linear_237_51263)"/>
    <path d="M27.5503 56.1891L33.4422 57.6514L44.6998 12.2911C44.6616 12.2792 44.6236 12.2663 44.5848 12.2567C44.0737 12.1299 43.5126 12.1986 43.0252 12.4921C42.5377 12.7858 41.977 12.8531 41.4646 12.7259C40.9523 12.5987 40.488 12.277 40.1945 11.7895C39.8788 11.2643 39.3662 10.933 38.8083 10.8284L27.5503 56.1891Z" fill="url(#paint12_linear_237_51263)"/>
    <path d="M43.1281 6.02287C44.3899 6.336 45.6241 6.54438 46.7958 6.65732L45.7637 2.97049C45.3251 1.40358 43.3459 0.912423 42.2255 2.09238L39.5894 4.86875C40.678 5.31685 41.8664 5.70974 43.1281 6.02287Z" fill="url(#paint13_linear_237_51263)"/>
    <path d="M28.3783 38.0667L24.7006 52.8854C24.3653 54.2364 25.1883 55.6029 26.5394 55.9382L34.4536 57.9024C35.8047 58.2377 37.1711 57.4146 37.5064 56.0635L41.1842 41.2448L28.3783 38.0667Z" fill="url(#paint14_linear_237_51263)"/>
    <path d="M34.2003 14.6079L24.7006 52.8854C24.3653 54.2364 25.1883 55.6029 26.5394 55.9382L34.4536 57.9024C35.8047 58.2377 37.1711 57.4146 37.5064 56.0635L47.7951 14.6079H34.2003Z" fill="url(#paint15_linear_237_51263)"/>
    <path d="M23.808 62.2054C23.0048 63.6205 20.9657 63.6205 20.1625 62.2054L15.9545 54.7914C15.583 54.137 15.3879 53.3977 15.3879 52.6452V8.68693C15.3879 7.29493 16.5164 6.1665 17.9084 6.1665H26.0622C27.4542 6.1665 28.5826 7.29493 28.5826 8.68693V52.6452C28.5826 53.3975 28.3873 54.137 28.016 54.7914L23.808 62.2054Z" fill="url(#paint16_linear_237_51263)"/>
    <path d="M28.5825 51.6253V8.6865C28.5825 7.2945 27.4545 6.1665 26.0625 6.1665H17.9082C16.5162 6.1665 15.3882 7.2945 15.3882 8.6865V51.6253C15.6112 51.4446 15.8823 51.3557 16.1548 51.3557C16.4682 51.3557 16.783 51.4757 17.023 51.7157L17.6117 52.3044C18.4178 53.1105 19.7223 53.1105 20.527 52.3044C20.9294 51.902 21.4574 51.7016 21.9854 51.7016C22.5134 51.7016 23.0414 51.902 23.4437 52.3044C23.8461 52.7067 24.3741 52.9086 24.9007 52.9086C25.4287 52.9086 25.9552 52.7067 26.359 52.3044L26.9477 51.7157C27.3952 51.2682 28.1011 51.2385 28.5825 51.6253Z" fill="url(#paint17_linear_237_51263)"/>
    <path d="M18.95 6.1665H25.0205V52.9028C24.9806 52.9051 24.9406 52.9086 24.9005 52.9086C24.374 52.9086 23.846 52.7067 23.4436 52.3044C23.0412 51.902 22.5132 51.7016 21.9852 51.7016C21.4572 51.7016 20.9292 51.902 20.5269 52.3044C20.094 52.7379 19.5166 52.9362 18.95 52.9033V6.1665Z" fill="url(#paint18_linear_237_51263)"/>
    <path d="M26.0625 6.1665H17.9082C16.5162 6.1665 15.3882 7.2945 15.3882 8.6865V11.1529L28.5825 24.3472V8.6865C28.5825 7.2945 27.4545 6.1665 26.0625 6.1665Z" fill="url(#paint19_linear_237_51263)"/>
    <path d="M21.9853 58.6079C23.2854 58.6079 24.5334 58.7029 25.698 58.8757L23.8082 62.2054C23.005 63.6205 20.9659 63.6205 20.1627 62.2054L18.2729 58.8757C19.4372 58.7029 20.6852 58.6079 21.9853 58.6079Z" fill="url(#paint20_linear_237_51263)"/>
    <path d="M27.6323 7.21965H16.197V4.71786C16.197 2.43503 18.0477 0.584351 20.3305 0.584351H23.4987C25.7816 0.584351 27.6322 2.43503 27.6322 4.71786V7.21965H27.6323Z" fill="url(#paint21_linear_237_51263)"/>
    <path d="M28.341 11.1726H15.6296C14.9293 11.1726 14.3618 10.6049 14.3618 9.90482V6.22858C14.3618 5.52834 14.9295 4.96082 15.6296 4.96082H28.341C29.0412 4.96082 29.6087 5.52849 29.6087 6.22858V9.90482C29.6089 10.6049 29.0412 11.1726 28.341 11.1726Z" fill="url(#paint22_linear_237_51263)"/>
    <path d="M15.3882 14.6079V51.6254C15.6112 51.4447 15.8823 51.3557 16.1548 51.3557C16.4682 51.3557 16.783 51.4757 17.023 51.7157L17.6117 52.3044C18.4178 53.1105 19.7223 53.1105 20.527 52.3044C20.9294 51.9021 21.4574 51.7016 21.9854 51.7016C22.5134 51.7016 23.0414 51.9021 23.4437 52.3044C23.8461 52.7068 24.3741 52.9087 24.9007 52.9087C25.4287 52.9087 25.9552 52.7068 26.359 52.3044L26.9477 51.7157C27.3952 51.2682 28.1011 51.2385 28.5825 51.6254V14.6079H15.3882Z" fill="url(#paint23_linear_237_51263)"/>
    <path d="M50.1807 72.3018H21.8183C17.0965 72.3018 13.2688 68.4741 13.2688 63.7523V31.5985C13.2688 29.5232 14.9512 27.8408 17.0265 27.8408H54.9726C57.0479 27.8408 58.7303 29.5232 58.7303 31.5985V63.7522C58.7303 68.4741 54.9024 72.3018 50.1807 72.3018Z" fill="url(#paint24_linear_237_51263)"/>
    <path d="M13.269 55.5005V63.7523C13.269 68.474 17.0968 72.3018 21.8186 72.3018H50.1809C54.9027 72.3018 58.7304 68.474 58.7304 63.7523V55.5005H13.269Z" fill="url(#paint25_linear_237_51263)"/>
    <path d="M50.42 72.2958C55.0308 72.1688 58.7302 68.3939 58.7302 63.7524V31.5988C58.7302 29.5235 57.0478 27.8411 54.9725 27.8411H17.0265C14.9512 27.8411 13.2688 29.5235 13.2688 31.5988V35.1448L50.42 72.2958Z" fill="url(#paint26_linear_237_51263)"/>
    <path d="M57.7563 35.2678H14.243C11.9682 35.2678 10.124 33.4237 10.124 31.1488V27.6431C10.124 25.3684 11.9681 23.5242 14.243 23.5242H57.7563C60.031 23.5242 61.8752 25.3682 61.8752 27.6431V31.1488C61.8752 33.4237 60.0312 35.2678 57.7563 35.2678Z" fill="url(#paint27_linear_237_51263)"/>
    <path d="M32.8063 31.7843V38.8079H28.8872V27.8667L32.8063 31.7843Z" fill="url(#paint28_linear_237_51263)"/>
    <path d="M61.8759 27.6437V31.1491C61.8759 33.0875 60.5348 34.7138 58.7305 35.1515V63.7524C58.7305 64.6983 58.5766 65.6089 58.2929 66.4588C58.0515 67.1858 57.7141 67.8677 57.2962 68.4931L28.3296 39.5251H29.4223C31.2477 39.5251 32.7286 38.0442 32.7286 36.2188V23.5242H57.7564C60.0308 23.5242 61.8759 25.3679 61.8759 27.6437Z" fill="url(#paint29_linear_237_51263)"/>
    <path d="M33.8608 26.5452V36.8666C33.8608 38.7485 32.329 40.2803 30.4471 40.2803C28.5652 40.2803 27.0349 38.7485 27.0349 36.8666V28.5372C27.0349 27.9527 27.5092 27.4784 28.0937 27.4784C28.6782 27.4784 29.1525 27.9527 29.1525 28.5372V36.8666C29.1525 37.581 29.7342 38.1626 30.4471 38.1626C31.1615 38.1626 31.7431 37.581 31.7431 36.8666V26.5452C31.7431 24.9118 30.4415 23.5777 28.8208 23.524C28.7869 23.5212 28.753 23.5212 28.7177 23.5212C28.6838 23.5212 28.6485 23.5212 28.6146 23.524H24.5601C25.4961 22.2393 27.0109 21.4036 28.7177 21.4036C30.4259 21.4036 31.9408 22.2393 32.8768 23.524C33.4951 24.3725 33.8608 25.4172 33.8608 26.5452Z" fill="url(#paint30_linear_237_51263)"/>
  </g>
  <defs>
    <linearGradient id="paint0_linear_237_51263" x1="46.8038" y1="22.0409" x2="57.8908" y2="22.041" gradientUnits="userSpaceOnUse">
      <stop stop-color="#FEE45A"/>
      <stop offset="1" stop-color="#FEA613"/>
    </linearGradient>
    <linearGradient id="paint1_linear_237_51263" x1="61.3302" y1="22.041" x2="53.6458" y2="22.0409" gradientUnits="userSpaceOnUse">
      <stop stop-color="#FEE45A"/>
      <stop offset="1" stop-color="#FEA613"/>
    </linearGradient>
    <linearGradient id="paint2_linear_237_51263" x1="55.7645" y1="23.1213" x2="44.1271" y2="23.1213" gradientUnits="userSpaceOnUse">
      <stop stop-color="#FE7701" stop-opacity="0"/>
      <stop offset="0.1854" stop-color="#F87204" stop-opacity="0.185"/>
      <stop offset="0.4314" stop-color="#E7630C" stop-opacity="0.431"/>
      <stop offset="0.7114" stop-color="#CB4B19" stop-opacity="0.711"/>
      <stop offset="1" stop-color="#A72B2B"/>
    </linearGradient>
    <linearGradient id="paint3_linear_237_51263" x1="52.0832" y1="40.3428" x2="52.0831" y2="44.4473" gradientUnits="userSpaceOnUse">
      <stop stop-color="#FE7701" stop-opacity="0"/>
      <stop offset="0.1854" stop-color="#F87204" stop-opacity="0.185"/>
      <stop offset="0.4314" stop-color="#E7630C" stop-opacity="0.431"/>
      <stop offset="0.7114" stop-color="#CB4B19" stop-opacity="0.711"/>
      <stop offset="1" stop-color="#A72B2B"/>
    </linearGradient>
    <linearGradient id="paint4_linear_237_51263" x1="56.0931" y1="3.03139" x2="56.0931" y2="5.12122" gradientUnits="userSpaceOnUse">
      <stop stop-color="#5A5A5A"/>
      <stop offset="1" stop-color="#444444"/>
    </linearGradient>
    <linearGradient id="paint5_linear_237_51263" x1="56.0931" y1="7.17252" x2="56.0931" y2="9.26221" gradientUnits="userSpaceOnUse">
      <stop stop-color="#5A5A5A"/>
      <stop offset="1" stop-color="#444444"/>
    </linearGradient>
    <linearGradient id="paint6_linear_237_51263" x1="56.0931" y1="11.3139" x2="56.0931" y2="13.4036" gradientUnits="userSpaceOnUse">
      <stop stop-color="#5A5A5A"/>
      <stop offset="1" stop-color="#444444"/>
    </linearGradient>
    <linearGradient id="paint7_linear_237_51263" x1="56.0931" y1="15.4548" x2="56.0931" y2="17.5447" gradientUnits="userSpaceOnUse">
      <stop stop-color="#5A5A5A"/>
      <stop offset="1" stop-color="#444444"/>
    </linearGradient>
    <linearGradient id="paint8_linear_237_51263" x1="56.0931" y1="19.5961" x2="56.0931" y2="21.6858" gradientUnits="userSpaceOnUse">
      <stop stop-color="#5A5A5A"/>
      <stop offset="1" stop-color="#444444"/>
    </linearGradient>
    <linearGradient id="paint9_linear_237_51263" x1="52.0939" y1="18.3727" x2="52.0939" y2="24.3348" gradientUnits="userSpaceOnUse">
      <stop stop-color="#FE7701" stop-opacity="0"/>
      <stop offset="0.1854" stop-color="#F87204" stop-opacity="0.185"/>
      <stop offset="0.4314" stop-color="#E7630C" stop-opacity="0.431"/>
      <stop offset="0.7114" stop-color="#CB4B19" stop-opacity="0.711"/>
      <stop offset="1" stop-color="#A72B2B"/>
    </linearGradient>
    <linearGradient id="paint10_linear_237_51263" x1="31.0806" y1="27.6631" x2="45.6432" y2="31.2775" gradientUnits="userSpaceOnUse">
      <stop stop-color="#FFDFCF"/>
      <stop offset="1" stop-color="#FFA78F"/>
    </linearGradient>
    <linearGradient id="paint11_linear_237_51263" x1="29.8329" y1="32.6917" x2="44.3949" y2="36.306" gradientUnits="userSpaceOnUse">
      <stop stop-color="#8AC9FE"/>
      <stop offset="1" stop-color="#0593FC"/>
    </linearGradient>
    <linearGradient id="paint12_linear_237_51263" x1="40.1137" y1="35.2438" x2="28.8695" y2="32.453" gradientUnits="userSpaceOnUse">
      <stop stop-color="#8AC9FE"/>
      <stop offset="1" stop-color="#0593FC"/>
    </linearGradient>
    <linearGradient id="paint13_linear_237_51263" x1="42.4717" y1="3.46168" x2="44.9734" y2="4.08258" gradientUnits="userSpaceOnUse">
      <stop stop-color="#8AC9FE"/>
      <stop offset="1" stop-color="#0593FC"/>
    </linearGradient>
    <linearGradient id="paint14_linear_237_51263" x1="31.867" y1="51.4672" x2="30.567" y2="56.7051" gradientUnits="userSpaceOnUse">
      <stop stop-color="#2740B0" stop-opacity="0"/>
      <stop offset="0.9786" stop-color="#192A7E" stop-opacity="0.979"/>
      <stop offset="1" stop-color="#192A7D"/>
    </linearGradient>
    <linearGradient id="paint15_linear_237_51263" x1="36.2104" y1="18.3727" x2="36.2104" y2="24.3348" gradientUnits="userSpaceOnUse">
      <stop stop-color="#2740B0" stop-opacity="0"/>
      <stop offset="0.9786" stop-color="#192A7E" stop-opacity="0.979"/>
      <stop offset="1" stop-color="#192A7D"/>
    </linearGradient>
    <linearGradient id="paint16_linear_237_51263" x1="15.4911" y1="34.7166" x2="30.4885" y2="34.7166" gradientUnits="userSpaceOnUse">
      <stop stop-color="#FFDFCF"/>
      <stop offset="1" stop-color="#FFA78F"/>
    </linearGradient>
    <linearGradient id="paint17_linear_237_51263" x1="15.4914" y1="29.5377" x2="30.4884" y2="29.5377" gradientUnits="userSpaceOnUse">
      <stop stop-color="#FEE45A"/>
      <stop offset="1" stop-color="#FEA613"/>
    </linearGradient>
    <linearGradient id="paint18_linear_237_51263" x1="26.0794" y1="29.5376" x2="14.4995" y2="29.5376" gradientUnits="userSpaceOnUse">
      <stop stop-color="#FEE45A"/>
      <stop offset="1" stop-color="#FEA613"/>
    </linearGradient>
    <linearGradient id="paint19_linear_237_51263" x1="21.9854" y1="20.0667" x2="21.9854" y2="8.76472" gradientUnits="userSpaceOnUse">
      <stop stop-color="#FE7701" stop-opacity="0"/>
      <stop offset="0.1854" stop-color="#F87204" stop-opacity="0.185"/>
      <stop offset="0.4314" stop-color="#E7630C" stop-opacity="0.431"/>
      <stop offset="0.7114" stop-color="#CB4B19" stop-opacity="0.711"/>
      <stop offset="1" stop-color="#A72B2B"/>
    </linearGradient>
    <linearGradient id="paint20_linear_237_51263" x1="20.7147" y1="60.9373" x2="23.2909" y2="60.9373" gradientUnits="userSpaceOnUse">
      <stop stop-color="#FEE45A"/>
      <stop offset="1" stop-color="#FEA613"/>
    </linearGradient>
    <linearGradient id="paint21_linear_237_51263" x1="21.9147" y1="1.1876" x2="21.9147" y2="7.21964" gradientUnits="userSpaceOnUse">
      <stop stop-color="#FE93BB"/>
      <stop offset="1" stop-color="#FE0364"/>
    </linearGradient>
    <linearGradient id="paint22_linear_237_51263" x1="21.9853" y1="5.52552" x2="21.9853" y2="11.1726" gradientUnits="userSpaceOnUse">
      <stop stop-color="#E6EEFF"/>
      <stop offset="1" stop-color="#BAC8FA"/>
    </linearGradient>
    <linearGradient id="paint23_linear_237_51263" x1="21.9854" y1="18.3727" x2="21.9854" y2="24.3348" gradientUnits="userSpaceOnUse">
      <stop stop-color="#FE7701" stop-opacity="0"/>
      <stop offset="0.1854" stop-color="#F87204" stop-opacity="0.185"/>
      <stop offset="0.4314" stop-color="#E7630C" stop-opacity="0.431"/>
      <stop offset="0.7114" stop-color="#CB4B19" stop-opacity="0.711"/>
      <stop offset="1" stop-color="#A72B2B"/>
    </linearGradient>
    <linearGradient id="paint24_linear_237_51263" x1="25.1519" y1="37.8202" x2="53.9886" y2="66.6569" gradientUnits="userSpaceOnUse">
      <stop stop-color="#E6EEFF"/>
      <stop offset="1" stop-color="#BAC8FA"/>
    </linearGradient>
    <linearGradient id="paint25_linear_237_51263" x1="35.9997" y1="65.453" x2="35.9997" y2="71.3859" gradientUnits="userSpaceOnUse">
      <stop stop-color="#A7B7F1" stop-opacity="0"/>
      <stop offset="1" stop-color="#A7B7F1"/>
    </linearGradient>
    <linearGradient id="paint26_linear_237_51263" x1="35.9996" y1="59.8784" x2="35.9996" y2="34.1285" gradientUnits="userSpaceOnUse">
      <stop stop-color="#A7B7F1" stop-opacity="0"/>
      <stop offset="1" stop-color="#A7B7F1"/>
    </linearGradient>
    <linearGradient id="paint27_linear_237_51263" x1="35.9997" y1="24.1867" x2="35.9997" y2="35.577" gradientUnits="userSpaceOnUse">
      <stop stop-color="#E6EEFF"/>
      <stop offset="1" stop-color="#BAC8FA"/>
    </linearGradient>
    <linearGradient id="paint28_linear_237_51263" x1="31.4467" y1="33.3373" x2="29.1879" y2="33.3373" gradientUnits="userSpaceOnUse">
      <stop stop-color="#A7B7F1" stop-opacity="0"/>
      <stop offset="1" stop-color="#A7B7F1"/>
    </linearGradient>
    <linearGradient id="paint29_linear_237_51263" x1="47.5762" y1="46.0086" x2="28.8762" y2="46.0086" gradientUnits="userSpaceOnUse">
      <stop stop-color="#A7B7F1" stop-opacity="0"/>
      <stop offset="1" stop-color="#A7B7F1"/>
    </linearGradient>
    <linearGradient id="paint30_linear_237_51263" x1="25.6466" y1="26.451" x2="32.2818" y2="33.2275" gradientUnits="userSpaceOnUse">
      <stop stop-color="#CCFC5C"/>
      <stop offset="0.1591" stop-color="#C6F95A"/>
      <stop offset="0.3653" stop-color="#B6F053"/>
      <stop offset="0.5975" stop-color="#9BE248"/>
      <stop offset="0.8469" stop-color="#76CF38"/>
      <stop offset="1" stop-color="#5CC12D"/>
    </linearGradient>
    <clipPath id="clip0_237_51263">
      <rect width="72" height="72" fill="white" transform="translate(0 0.302002)"/>
    </clipPath>
  </defs>
</svg>