<svg xmlns="http://www.w3.org/2000/svg" width="72" height="73" viewBox="0 0 72 73" fill="none">
  <g clip-path="url(#clip0_237_51470)">
    <path d="M72 40.278V32.326C72 30.5463 70.5558 29.1016 68.7755 29.1016H66.9661C65.5763 29.1016 64.3502 28.21 63.9075 26.8939C63.4818 25.631 62.9731 24.4082 62.3886 23.2294C61.7684 21.9819 62.0019 20.4828 62.9857 19.4979L64.2667 18.2169C65.5263 16.9584 65.5263 14.9171 64.2667 13.6575L58.6445 8.03583C57.3849 6.7757 55.3436 6.7757 54.0857 8.03583L52.8047 9.31683C51.8198 10.3001 50.3201 10.5336 49.0732 9.91339C47.8943 9.32892 46.671 8.82025 45.4087 8.39453C44.0925 7.95178 43.2004 6.72571 43.2004 5.33594V3.52704C43.2004 1.7467 41.7563 0.302002 39.976 0.302002H32.024C30.2437 0.302002 28.7996 1.7467 28.7996 3.52704V5.33594C28.7996 6.72571 27.908 7.95178 26.5913 8.39453C25.329 8.82025 24.1057 9.32892 22.9274 9.91339C21.6799 10.5336 20.1802 10.3001 19.1959 9.31683L17.9149 8.03583C16.6564 6.7757 14.6151 6.7757 13.3555 8.03583L7.73328 13.6575C6.47369 14.9171 6.47369 16.9584 7.73328 18.2163L9.01428 19.4973C9.99811 20.4822 10.2316 21.9819 9.61139 23.2294C9.02692 24.4077 8.51825 25.631 8.09253 26.8933C7.64978 28.2095 6.42371 29.1016 5.03394 29.1016H3.22449C1.44415 29.1016 0 30.5457 0 32.326V40.278C0 42.0583 1.44415 43.5024 3.22449 43.5024H5.03394C6.42371 43.5024 7.64978 44.3945 8.09253 45.7107C8.51825 46.973 9.02692 48.1964 9.61139 49.3746C10.2316 50.6221 9.99811 52.1218 9.01428 53.1067L7.73328 54.3877C6.47369 55.6456 6.47369 57.6869 7.73328 58.9465L13.3555 64.5687C14.6151 65.8283 16.6564 65.8283 17.9143 64.5687L19.1953 63.2877C20.1802 62.3044 21.6799 62.0704 22.9268 62.6906C24.1057 63.2751 25.329 63.7838 26.5913 64.2095C27.9075 64.6522 28.7996 65.8783 28.7996 67.2681V69.0775C28.7996 70.8578 30.2437 72.302 32.024 72.302H39.976C40.4561 72.302 40.9109 72.196 41.3207 72.0059C41.3234 72.0048 41.3256 72.0037 41.3284 72.0026C41.425 71.957 41.5201 71.9087 41.6113 71.8549C41.6953 71.8076 41.7744 71.7554 41.8524 71.6972C41.8903 71.6697 41.9288 71.6412 41.9667 71.6121C42.0051 71.5829 42.0414 71.5522 42.0765 71.522C42.1133 71.4896 42.1485 71.4577 42.1837 71.4258C42.321 71.2973 42.4479 71.1567 42.5594 71.0056C42.5852 70.9738 42.6099 70.9386 42.6308 70.9051C42.6709 70.8485 42.7088 70.7903 42.7456 70.7293C42.7687 70.6914 42.7901 70.653 42.811 70.6134C42.834 70.5722 42.8571 70.5277 42.8785 70.4838C42.9197 70.3997 42.9576 70.3113 42.9911 70.2223C43.0005 70.1981 43.0098 70.175 43.0175 70.1509C43.0296 70.1168 43.04 70.0833 43.051 70.0498C43.0538 70.0421 43.0571 70.0333 43.0587 70.0256C43.0692 69.9905 43.0796 69.957 43.0889 69.9218C43.095 69.8971 43.1027 69.8713 43.1087 69.8449C43.1241 69.7812 43.1378 69.7169 43.1488 69.651C43.1565 69.6115 43.1625 69.5735 43.1686 69.5334C43.1746 69.4906 43.179 69.4494 43.184 69.4066C43.19 69.3522 43.1927 69.2983 43.196 69.2434C43.1993 69.1885 43.2004 69.1319 43.2004 69.077V67.2675C43.2004 65.8783 44.092 64.6522 45.4087 64.2095C46.671 63.7838 47.8943 63.2751 49.0726 62.6901C50.3201 62.0704 51.8198 62.3039 52.8041 63.2872L54.0851 64.5682C55.3436 65.8278 57.3849 65.8278 58.6445 64.5682L64.2667 58.9465C65.5263 57.6869 65.5263 55.6456 64.2667 54.3871L62.9857 53.1061C62.0019 52.1212 61.7684 50.6221 62.3886 49.3746C62.9731 48.1958 63.4818 46.973 63.9075 45.7101C64.3502 44.394 65.5763 43.5024 66.9661 43.5024H68.7755C68.8299 43.5024 68.887 43.5008 68.942 43.498C68.9963 43.4948 69.0502 43.492 69.1051 43.486C69.1479 43.481 69.1891 43.4766 69.232 43.4706C69.2715 43.4645 69.31 43.4585 69.3495 43.4508C69.4149 43.4404 69.4792 43.4266 69.5435 43.4113C69.5693 43.4052 69.5951 43.3975 69.6198 43.3915C69.655 43.3821 69.6885 43.3717 69.7236 43.3607C69.7313 43.3591 69.7407 43.3563 69.7484 43.353C69.7819 43.3426 69.8154 43.3316 69.8489 43.3195C69.873 43.3118 69.8961 43.3025 69.9208 43.2937C70.0093 43.2602 70.0977 43.2217 70.1818 43.1805C70.2257 43.1591 70.2702 43.136 70.3114 43.1135C70.351 43.0921 70.3894 43.0707 70.4273 43.0476C70.4888 43.0108 70.5465 42.9729 70.6031 42.9333C70.6366 42.9119 70.6718 42.8878 70.7036 42.8614C70.8552 42.7499 70.9953 42.6235 71.1238 42.4857C71.1557 42.4505 71.1876 42.4159 71.22 42.3791C71.2502 42.3439 71.2809 42.3071 71.3101 42.2692C71.3386 42.2308 71.3677 42.1929 71.3958 42.1544C71.4534 42.0764 71.5056 41.9973 71.5529 41.9133C71.6072 41.8221 71.6556 41.7271 71.7006 41.6304C71.7017 41.6276 71.7028 41.6254 71.7039 41.6227C71.8934 41.2134 72 40.7581 72 40.278ZM26.5842 27.5563C26.7704 27.2982 26.9962 27.0724 27.2543 26.8862C40.3682 17.389 54.913 31.9338 45.4158 45.0477C45.2296 45.3058 45.0038 45.5316 44.7457 45.7184C31.6318 55.215 17.087 40.6702 26.5842 27.5563Z" fill="url(#paint0_linear_237_51470)"/>
    <path d="M71.9406 40.6417C71.7176 40.4077 71.4902 40.1802 71.2578 39.9572C71.0348 39.7254 70.8074 39.498 70.5756 39.275C70.3525 39.0432 70.1251 38.8157 69.8928 38.5927C69.6703 38.3604 69.4429 38.1329 69.2105 37.9099C68.9875 37.6781 68.7601 37.4507 68.5266 37.2277C68.3052 36.9958 68.0762 36.7684 67.8444 36.5454C67.6213 36.313 67.3939 36.084 67.1616 35.8626C66.9385 35.6292 66.7111 35.4017 66.4793 35.1787C66.2563 34.9464 66.0289 34.7189 65.7971 34.4959C65.574 34.2641 65.3461 34.0367 65.1143 33.8137C64.8912 33.5813 64.6638 33.3539 64.432 33.1314C64.209 32.899 63.9816 32.6716 63.7481 32.4486C63.5267 32.2168 63.2988 31.9894 63.0653 31.7664C62.8439 31.534 62.6149 31.3066 62.3831 31.0836C62.16 30.8501 61.9326 30.6227 61.7008 30.4013C61.4778 30.1678 61.2504 29.9404 61.018 29.7174C60.795 29.485 60.5676 29.2576 60.3358 29.0352C60.1127 28.8028 59.8853 28.5754 59.653 28.3524C59.4305 28.1205 59.2031 27.8931 58.9707 27.6701C58.7477 27.4377 58.5203 27.2103 58.2868 26.9879C58.0654 26.7555 57.838 26.5281 57.6046 26.3051C57.3832 26.0732 57.1541 25.8458 56.9218 25.6228C56.6987 25.3888 56.4713 25.1614 56.2395 24.94C56.0165 24.7065 55.7891 24.4791 55.5567 24.2561C55.3342 24.0243 55.1068 23.7969 54.8745 23.5739C54.6514 23.3415 54.424 23.1141 54.1922 22.8911C53.9692 22.6592 53.7418 22.4318 53.5094 22.2088C53.2864 21.9764 53.059 21.749 52.8255 21.5266C52.6041 21.2942 52.3767 21.0668 52.1432 20.8438C51.8834 20.5707 51.6148 20.3049 51.3401 20.0467C51.2803 19.9901 51.2209 19.9341 51.16 19.8786C51.0941 19.8176 51.0298 19.7583 50.9644 19.7001C50.4557 19.2392 49.9246 18.8041 49.3736 18.3932C49.306 18.3411 49.2374 18.2911 49.1687 18.2422C48.8759 18.0269 48.5782 17.8192 48.2739 17.6204C48.1992 17.5704 48.1228 17.5215 48.0481 17.4742C47.8223 17.3276 47.5916 17.1853 47.3593 17.0496C47.2812 17.0035 47.2038 16.9579 47.1258 16.9134C47.0478 16.8678 46.9698 16.8233 46.8923 16.7805C46.8127 16.7349 46.7347 16.692 46.6556 16.6492C46.4996 16.5651 46.3441 16.4827 46.187 16.402C45.9426 16.2767 45.6965 16.1564 45.4465 16.04C45.3669 16.0037 45.2889 15.9669 45.2098 15.9301C44.7775 15.7351 44.3364 15.5516 43.8892 15.3835C43.8002 15.35 43.7134 15.3182 43.625 15.2858C43.3438 15.1836 43.0598 15.0875 42.773 14.9957C42.701 14.9727 42.628 14.9501 42.556 14.9287C42.4978 14.91 42.4401 14.8919 42.3819 14.8749C42.2995 14.8507 42.2171 14.826 42.1331 14.8035C42.127 14.8018 42.1193 14.7985 42.1116 14.7974C42.0413 14.7776 41.9699 14.7579 41.8979 14.7375C41.7881 14.7073 41.6782 14.6782 41.5667 14.6508C41.4843 14.6293 41.4019 14.6079 41.3179 14.5881C41.0778 14.5283 40.8367 14.475 40.5928 14.4233C40.5115 14.4063 40.4291 14.3898 40.3483 14.3745C40.2549 14.3558 40.1638 14.3376 40.0704 14.3223C39.9424 14.2964 39.8122 14.275 39.6826 14.2536C39.5897 14.2382 39.498 14.2234 39.4046 14.2091C39.3057 14.1943 39.2047 14.1789 39.1025 14.1652C39.0184 14.1525 38.9333 14.1421 38.8476 14.1311C38.7789 14.1223 38.7086 14.113 38.6383 14.1053C38.5576 14.0959 38.4768 14.0872 38.3955 14.0778C38.2659 14.0641 38.1346 14.052 38.0044 14.0399C37.9099 14.0322 37.8154 14.0229 37.7204 14.0168C37.6259 14.0092 37.5314 14.0031 37.4364 13.9971C37.3403 13.991 37.2425 13.985 37.1447 13.98C37.0519 13.9756 36.9585 13.9713 36.8657 13.968C36.5784 13.957 36.29 13.9509 36.0016 13.9509C23.6568 13.9509 13.6499 23.9578 13.6499 36.3026C13.6499 36.591 13.6559 36.8799 13.6669 37.1667C13.6697 37.2601 13.6741 37.3529 13.679 37.4463C13.6834 37.5435 13.6895 37.6413 13.6955 37.738C13.7021 37.8325 13.7081 37.9269 13.7158 38.022C13.7219 38.1165 13.7307 38.2109 13.7383 38.306C13.751 38.4356 13.7631 38.5669 13.7768 38.6965C13.7856 38.7778 13.7949 38.8586 13.8043 38.9393C13.812 39.0096 13.8207 39.08 13.8301 39.1486C13.8411 39.2343 13.8515 39.32 13.8636 39.4041C13.8773 39.5062 13.8927 39.6068 13.9081 39.7062C13.9218 39.799 13.9372 39.8907 13.9526 39.9841C13.974 40.1138 13.9954 40.2434 14.0212 40.3719C14.0366 40.4648 14.0547 40.5565 14.0729 40.6494C14.0883 40.7307 14.1053 40.813 14.1218 40.8938C14.174 41.1382 14.2272 41.3794 14.2871 41.6189C14.3069 41.7029 14.3283 41.7853 14.3492 41.8683C14.3772 41.9792 14.4058 42.0891 14.4365 42.1995C14.4563 42.2709 14.4761 42.3429 14.4958 42.4132C14.4975 42.4209 14.5008 42.4286 14.5019 42.4346C14.525 42.5187 14.5497 42.6011 14.5739 42.6835C14.5909 42.7411 14.609 42.7994 14.6271 42.8576C14.6486 42.929 14.6716 43.0026 14.6947 43.074C14.7864 43.3613 14.8826 43.6453 14.9847 43.926C15.0166 44.015 15.049 44.1018 15.0825 44.1902C15.2506 44.6379 15.4335 45.079 15.6291 45.5108C15.6653 45.5905 15.7021 45.6685 15.739 45.7476C15.8549 45.998 15.9757 46.2441 16.101 46.488C16.1817 46.6457 16.2641 46.8011 16.3481 46.9566C16.391 47.0363 16.4338 47.1143 16.4794 47.1934C16.5223 47.2714 16.5668 47.3494 16.6124 47.4274C16.6569 47.5048 16.7025 47.5828 16.748 47.6608C16.8843 47.8926 17.026 48.1234 17.1727 48.3497C17.2199 48.4244 17.2688 48.5007 17.3193 48.5754C17.5176 48.8792 17.7253 49.1769 17.9406 49.4703C17.9895 49.5389 18.04 49.6076 18.0922 49.6746C18.5026 50.2261 18.9382 50.7573 19.399 51.2654C19.4573 51.3314 19.5166 51.3956 19.5776 51.461C19.6325 51.522 19.6891 51.5818 19.7457 51.6412C20.0038 51.9164 20.2692 52.185 20.5427 52.4443C20.7652 52.6783 20.9926 52.9057 21.225 53.1271C21.448 53.3605 21.6754 53.588 21.9072 53.811C22.1302 54.0428 22.3577 54.2702 22.59 54.4932C22.813 54.7256 23.0405 54.953 23.2723 55.176C23.4953 55.4078 23.7227 55.6353 23.9545 55.8583C24.1776 56.0906 24.4055 56.3181 24.639 56.5411C24.8604 56.7729 25.0878 57.0003 25.3212 57.2233C25.5443 57.4557 25.7717 57.6842 26.0035 57.9056C26.2265 58.1396 26.4539 58.367 26.6863 58.5884C26.9088 58.8218 27.1367 59.0493 27.3685 59.2723C27.5916 59.5041 27.819 59.7321 28.0508 59.9545C28.2738 60.1869 28.5012 60.4143 28.7336 60.6373C28.9566 60.8691 29.184 61.0966 29.4158 61.3196C29.6389 61.5519 29.8663 61.7794 30.0997 62.0024C30.3211 62.2342 30.5491 62.4616 30.7825 62.6846C31.005 62.917 31.2324 63.1455 31.4648 63.3669C31.6878 63.6009 31.9152 63.8283 32.147 64.0497C32.3701 64.2831 32.5975 64.5106 32.8298 64.7336C33.0529 64.9654 33.2803 65.1928 33.5121 65.4158C33.7351 65.6482 33.9625 65.8756 34.1943 66.0986C34.4174 66.3304 34.6448 66.5579 34.8771 66.7809C35.1002 67.0132 35.3276 67.2407 35.561 67.4637C35.7824 67.6955 36.0115 67.9229 36.2433 68.1459C36.4663 68.3783 36.6937 68.6074 36.9261 68.8287C37.1486 69.0622 37.3765 69.2896 37.6083 69.5126C37.8314 69.7444 38.0588 69.9719 38.2906 70.1949C38.5136 70.4272 38.741 70.6547 38.9734 70.8771C39.1964 71.1095 39.4238 71.3369 39.6556 71.5599C39.8787 71.7917 40.1061 72.0192 40.3395 72.2422C40.3489 72.2532 40.361 72.2636 40.3719 72.2746C40.8207 72.2197 41.2404 72.073 41.6118 71.8544C41.6942 71.8055 41.7749 71.7538 41.8529 71.6973C41.8908 71.6698 41.9293 71.6407 41.9672 71.6116C42.0056 71.5825 42.0424 71.5522 42.0776 71.5215C42.1138 71.4896 42.149 71.4572 42.1841 71.4254C42.3215 71.2974 42.4484 71.1567 42.5599 71.0057C42.5857 70.9733 42.6104 70.9381 42.6318 70.9046C42.6714 70.8486 42.7093 70.7903 42.7461 70.7294C42.7692 70.6909 42.7906 70.653 42.8115 70.6129C42.8345 70.5717 42.8576 70.5278 42.879 70.4833C42.9202 70.3992 42.9581 70.3108 42.9916 70.2224C43.001 70.1976 43.0103 70.1751 43.018 70.1504C43.0301 70.1169 43.0405 70.0834 43.0515 70.0499C43.0543 70.0422 43.0576 70.0328 43.0592 70.0251C43.0696 69.99 43.0806 69.9565 43.0894 69.9213C43.0955 69.8972 43.1031 69.8708 43.1092 69.845C43.1246 69.7807 43.1383 69.717 43.1493 69.6511C43.157 69.6115 43.163 69.5731 43.1691 69.5335C43.1751 69.4907 43.1795 69.4495 43.1844 69.4066C43.1905 69.3517 43.1932 69.2984 43.1965 69.2435C43.1998 69.1885 43.2009 69.132 43.2009 69.077V67.2676C43.2009 65.8778 44.0925 64.6517 45.4092 64.209C46.6715 63.7833 47.8948 63.2746 49.0731 62.6901C50.3206 62.0699 51.8203 62.304 52.8046 63.2872L54.0862 64.5682C55.3441 65.8278 57.3854 65.8278 58.645 64.5682L64.2672 58.9465C65.5268 57.6864 65.5268 55.6451 64.2672 54.3872L62.9862 53.1062C62.0029 52.1213 61.7689 50.6222 62.3891 49.3747C62.9736 48.1959 63.4822 46.9731 63.908 45.7102C64.3507 44.394 65.5768 43.5025 66.9666 43.5025H68.776C68.8309 43.5025 68.8875 43.5009 68.9424 43.4976C68.9974 43.4948 69.0507 43.4915 69.1056 43.4855C69.1484 43.4811 69.1896 43.4767 69.2325 43.4706C69.272 43.4641 69.3105 43.458 69.35 43.4509C69.4154 43.4399 69.4797 43.4261 69.5439 43.4108C69.5698 43.4047 69.5956 43.397 69.6203 43.391C69.6555 43.3817 69.689 43.3712 69.7241 43.3608C69.7318 43.3591 69.7411 43.3558 69.7488 43.3531C69.7823 43.3421 69.8159 43.3317 69.8494 43.3196C69.8741 43.3119 69.8966 43.3026 69.9213 43.2932C70.0098 43.2597 70.0982 43.2218 70.1823 43.1806C70.2267 43.1592 70.2707 43.1361 70.3119 43.113C70.3514 43.0916 70.3899 43.0702 70.4278 43.0477C70.4893 43.0109 70.547 42.973 70.6036 42.9329C70.6371 42.912 70.6722 42.8873 70.7041 42.8615C70.8557 42.7499 70.9958 42.623 71.1243 42.4857C71.1562 42.4506 71.188 42.4154 71.2205 42.3786C71.2507 42.3434 71.2814 42.3072 71.3105 42.2687C71.3391 42.2308 71.3682 42.1924 71.3962 42.1545C71.4523 42.0765 71.5045 41.9957 71.5533 41.9128C71.7714 41.542 71.9181 41.1223 71.973 40.673C71.962 40.6625 71.951 40.6505 71.9406 40.6417ZM27.2543 26.8862C40.3681 17.3891 54.9129 31.9339 45.4158 45.0477C45.2296 45.3059 45.0038 45.5317 44.7456 45.7184C31.6318 55.215 17.087 40.6702 26.5841 27.5564C26.7703 27.2982 26.9961 27.0724 27.2543 26.8862Z" fill="url(#paint1_linear_237_51470)"/>
    <path d="M52.1417 20.8425C51.8824 20.5695 51.6138 20.3036 51.3386 20.0455C51.2793 19.9894 51.2194 19.9329 51.1584 19.8779C51.0931 19.817 51.0288 19.7571 50.9634 19.6989C50.4548 19.238 49.9236 18.8029 49.3721 18.392C49.3051 18.3404 49.2364 18.2899 49.1677 18.241C48.8744 18.0256 48.5767 17.818 48.2729 17.6197C48.1982 17.5692 48.1218 17.5203 48.0471 17.473C47.8208 17.3264 47.5906 17.1841 47.3583 17.0484C47.2803 17.0028 47.2028 16.9567 47.1248 16.9122C47.0468 16.8666 46.9688 16.8221 46.8908 16.7798C46.8117 16.7336 46.7337 16.6908 46.6546 16.6485C46.4986 16.5645 46.3431 16.4821 46.1855 16.4008C45.9416 16.2755 45.6955 16.1552 45.445 16.0393C45.3659 16.0025 45.2879 15.9657 45.2088 15.9289C44.7765 15.7339 44.3354 15.5504 43.8877 15.3823C43.7993 15.3488 43.7125 15.317 43.6235 15.2845C43.3428 15.1824 43.0588 15.0862 42.7715 14.9945C42.7001 14.972 42.627 14.9489 42.5551 14.9275C42.4968 14.9094 42.4386 14.8907 42.3809 14.8742C42.2985 14.8495 42.2161 14.8253 42.1321 14.8022C42.126 14.8006 42.1183 14.7979 42.1107 14.7962C42.0403 14.7764 41.9684 14.7567 41.897 14.7363C41.7871 14.7061 41.6772 14.677 41.5657 14.6495C41.4833 14.6281 41.4004 14.6067 41.3169 14.5869C41.0768 14.5276 40.8357 14.4738 40.5912 14.4221C40.5105 14.4051 40.4281 14.3886 40.3474 14.3732C40.254 14.3551 40.1622 14.3364 40.0694 14.321C39.9409 14.2952 39.8112 14.2738 39.6816 14.2524C39.5882 14.237 39.4965 14.2222 39.4036 14.2084C39.3042 14.1931 39.2037 14.1777 39.1015 14.1639C39.0175 14.1513 38.9318 14.1409 38.8466 14.1304C38.778 14.1211 38.7076 14.1118 38.6373 14.1041C38.5566 14.0953 38.4753 14.0859 38.3945 14.0766C38.2649 14.0629 38.1336 14.0508 38.0034 14.0387C37.9089 14.031 37.8145 14.0217 37.7194 14.0156C37.6249 14.0079 37.5299 14.0019 37.4354 13.9958C37.3393 13.9898 37.2415 13.9838 37.1437 13.9788C37.0504 13.9744 36.9575 13.97 36.8641 13.9667C36.5774 13.9563 36.289 13.9497 36.0001 13.9497C23.6558 13.9497 13.6489 23.9572 13.6489 36.3014C13.6489 36.5898 13.655 36.8787 13.6654 37.1655C13.6687 37.2589 13.6731 37.3517 13.678 37.4451C13.6824 37.5428 13.6885 37.6406 13.6945 37.7368C13.7006 37.8312 13.7072 37.9257 13.7143 38.0208C13.7203 38.1152 13.7297 38.2103 13.7374 38.3047C13.7495 38.4344 13.7615 38.5657 13.7753 38.6959C13.7846 38.7766 13.7939 38.8574 13.8033 38.9387C13.8104 39.0084 13.8198 39.0787 13.8291 39.1479C13.8395 39.2331 13.8505 39.3188 13.8626 39.4028C13.8763 39.505 13.8917 39.6055 13.9071 39.705C13.9208 39.7983 13.9362 39.8895 13.951 39.9829C13.9725 40.1125 13.9939 40.2422 14.0203 40.3707C14.0351 40.4636 14.0538 40.5553 14.0719 40.6487C14.0873 40.7294 14.1038 40.8118 14.1208 40.8926C14.173 41.137 14.2263 41.3782 14.2856 41.6182C14.3054 41.7023 14.3268 41.7847 14.3482 41.8671C14.3757 41.978 14.4048 42.0884 14.4355 42.1983C14.4553 42.2697 14.4751 42.3417 14.4949 42.412C14.4965 42.4197 14.4993 42.4274 14.5009 42.4334C14.524 42.5175 14.5482 42.5999 14.5729 42.6823C14.5894 42.7405 14.608 42.7982 14.6262 42.8564C14.6476 42.9278 14.6707 43.0014 14.6932 43.0734C14.7849 43.3601 14.881 43.6441 14.9838 43.9254C15.0156 44.0138 15.0475 44.1006 15.081 44.189C15.2491 44.6367 15.4326 45.0778 15.6281 45.5101C15.6644 45.5892 15.7012 45.6672 15.738 45.7463C15.8539 45.9968 15.9747 46.2429 16.0994 46.4868C16.1807 46.6445 16.2631 46.7999 16.3472 46.9559C16.39 47.035 16.4323 47.113 16.4785 47.1921C16.5213 47.2701 16.5652 47.3481 16.6114 47.4261C16.6553 47.5042 16.7015 47.5816 16.7471 47.6596C16.8833 47.892 17.025 48.1221 17.1717 48.3484C17.2189 48.4232 17.2678 48.4995 17.3184 48.5742C17.5167 48.878 17.7243 49.1757 17.9396 49.4691C17.9885 49.5377 18.0391 49.6064 18.0907 49.674C18.5016 50.2249 18.9366 50.7561 19.3981 51.2648C19.4557 51.3301 19.5156 51.3944 19.5766 51.4598C19.6315 51.5213 19.6876 51.5806 19.7447 51.64C20.0023 51.9152 20.2682 52.1838 20.5412 52.4431C24.5556 56.2894 30.0032 58.6531 36.0006 58.6531C48.3454 58.6531 58.3523 48.6462 58.3523 36.3014C58.3517 30.3045 55.988 24.8569 52.1417 20.8425ZM45.4972 36.3019C45.4972 41.5468 41.2449 45.7991 36.0001 45.7991C30.7552 45.7991 26.5029 41.5468 26.5029 36.3019C26.5029 31.0571 30.7552 26.8048 36.0001 26.8048C41.2449 26.8048 45.4972 31.0571 45.4972 36.3019Z" fill="url(#paint2_linear_237_51470)"/>
    <path d="M54.3588 35.5923C54.3571 35.516 54.3527 35.438 54.35 35.3616C54.345 35.282 54.3406 35.2012 54.3362 35.1221C54.3313 35.0441 54.3253 34.9661 54.3192 34.8881C54.3148 34.8101 54.3071 34.7327 54.3011 34.6563C54.2901 34.5492 54.2808 34.441 54.2687 34.3339C54.261 34.2685 54.2538 34.2009 54.2478 34.1339C54.2401 34.0773 54.2324 34.0197 54.2258 33.9631C54.217 33.8928 54.2077 33.8224 54.1973 33.7521C54.1863 33.6681 54.1742 33.5857 54.1621 33.5049C54.15 33.4286 54.1374 33.3522 54.1253 33.2759C54.1072 33.1693 54.0901 33.0622 54.0687 32.9567C54.0566 32.8804 54.0413 32.8057 54.0264 32.7293C54.0138 32.6623 54.0001 32.5947 53.9863 32.5277C53.9435 32.3278 53.8995 32.1295 53.8506 31.9323C53.8342 31.8636 53.8171 31.7949 53.799 31.7279C53.7759 31.6362 53.7529 31.5461 53.7271 31.4543C53.71 31.3967 53.6952 31.3368 53.6782 31.2786C53.6765 31.2725 53.6749 31.2665 53.6738 31.2621C53.6551 31.1934 53.6337 31.1248 53.6139 31.0572C53.6002 31.0099 53.5848 30.9611 53.5694 30.9138C53.5529 30.8545 53.5342 30.7946 53.5145 30.7353C53.4398 30.5002 53.3607 30.2667 53.2766 30.036C53.2508 29.963 53.2244 29.891 53.1959 29.8174C53.0585 29.451 52.9069 29.0879 52.7465 28.7319C52.7163 28.6677 52.6872 28.6039 52.6564 28.538C52.562 28.332 52.4625 28.1304 52.3587 27.9288C52.2933 27.8008 52.2247 27.6723 52.156 27.5443C52.1208 27.4784 52.0857 27.4147 52.0472 27.3504C52.0121 27.2861 51.9758 27.2219 51.939 27.1576C51.9022 27.0939 51.8643 27.0296 51.8275 26.9653C51.7144 26.7747 51.5984 26.5852 51.4776 26.399C51.4397 26.338 51.3985 26.2754 51.3573 26.2144C51.1942 25.9639 51.0244 25.7195 50.8475 25.4783C50.8063 25.4218 50.7646 25.3652 50.7223 25.3102C50.3845 24.8571 50.0274 24.4203 49.6489 24.0018C49.6 23.9485 49.5511 23.8947 49.5006 23.8414C49.4561 23.7908 49.4089 23.7425 49.3633 23.6936C49.1512 23.4673 48.9326 23.2459 48.7079 23.0339C45.4088 19.872 40.9302 17.928 36.0001 17.928C25.8525 17.928 17.626 26.1545 17.626 36.3021C17.626 41.2322 19.5695 45.7108 22.7319 49.0099C22.9439 49.2346 23.1653 49.4527 23.3911 49.6653C23.4399 49.7109 23.4888 49.7581 23.5394 49.8026C23.5927 49.8531 23.6465 49.902 23.6998 49.9504C24.1183 50.3294 24.5545 50.6865 25.0082 51.0243C25.0632 51.0666 25.1198 51.1078 25.1763 51.149C25.4175 51.3264 25.6619 51.4956 25.9124 51.6593C25.9734 51.7005 26.036 51.7417 26.097 51.7796C26.2832 51.9005 26.4727 52.0164 26.6633 52.1295C26.7276 52.1663 26.7919 52.2042 26.8561 52.241C26.9199 52.2778 26.9841 52.3141 27.0484 52.3492C27.1127 52.3877 27.1764 52.4229 27.2423 52.458C27.3703 52.5267 27.4988 52.5953 27.6268 52.6607C27.8284 52.7645 28.03 52.864 28.236 52.9584C28.3019 52.9892 28.3657 53.0183 28.4299 53.0485C28.7859 53.2089 29.149 53.36 29.5154 53.4973C29.589 53.5264 29.6604 53.5522 29.734 53.5786C29.9647 53.6627 30.1982 53.7418 30.4333 53.8165C30.4926 53.8368 30.5525 53.8549 30.6118 53.8714C30.6591 53.8868 30.7079 53.9022 30.7552 53.9159C30.8228 53.9357 30.8914 53.9571 30.9601 53.9752C30.9645 53.9769 30.9705 53.9785 30.9766 53.9802C31.0348 53.9966 31.0941 54.012 31.1523 54.0291C31.2441 54.0549 31.3342 54.0779 31.4259 54.101C31.4929 54.1191 31.5616 54.1362 31.6302 54.1526C31.8269 54.2015 32.0258 54.246 32.2257 54.2883C32.2927 54.3021 32.3603 54.3163 32.4273 54.3284C32.5037 54.3433 32.5784 54.3586 32.6547 54.3713C32.7602 54.3922 32.8673 54.4092 32.9739 54.4273C33.0502 54.4399 33.1266 54.452 33.2029 54.4641C33.2837 54.4762 33.3661 54.4883 33.4501 54.4993C33.5204 54.5097 33.5908 54.519 33.6611 54.5284C33.7177 54.5344 33.7753 54.5421 33.8319 54.5498C33.8995 54.5558 33.9665 54.5635 34.0319 54.5707C34.139 54.5833 34.2472 54.5921 34.3543 54.6031C34.4307 54.6091 34.5081 54.6168 34.5861 54.6212C34.6641 54.6273 34.7421 54.6339 34.8201 54.6382C34.8992 54.6426 34.9805 54.6476 35.0596 54.652C35.136 54.6547 35.214 54.6597 35.2903 54.6608C35.5255 54.6701 35.7639 54.6761 36.0001 54.6761C46.1476 54.6761 54.3741 46.4496 54.3741 36.3021C54.3741 36.0653 54.3681 35.8275 54.3588 35.5923ZM45.4983 36.3021C45.4983 41.5469 41.2466 45.8008 36.0001 45.8008C30.7535 45.8008 26.5018 41.5469 26.5018 36.3021C26.5018 31.0561 30.7535 26.8038 36.0001 26.8038C41.2466 26.8038 45.4983 31.0561 45.4983 36.3021Z" fill="url(#paint3_linear_237_51470)"/>
    <path d="M58.3512 36.3403L49.0787 27.0679C49.2007 27.3019 49.2606 27.5721 49.2391 27.8512L48.9546 31.5042C48.9233 31.8892 49.0502 32.271 49.2985 32.5627L51.6759 35.3532C52.139 35.8954 52.139 36.6957 51.6759 37.2407L49.2985 40.029C49.0502 40.3229 48.9233 40.7025 48.9546 41.087L49.2391 44.7399C49.2941 45.4546 48.8233 46.1017 48.1279 46.2692L44.5656 47.1245C44.1882 47.2151 43.8657 47.4519 43.6625 47.7815L41.7514 50.9044C41.3762 51.5157 40.6143 51.764 39.9524 51.4894L36.567 50.0848C36.211 49.9365 35.8094 49.9365 35.4535 50.0848L32.0681 51.4894C31.4067 51.764 30.6442 51.5157 30.269 50.9044L28.358 47.7815C28.1553 47.4519 27.8323 47.2151 27.4549 47.1245L23.8926 46.2692C23.7756 46.2401 23.6657 46.1995 23.563 46.1473L36.0687 58.6525C48.3685 58.6157 58.3303 48.6439 58.3512 36.3403Z" fill="url(#paint4_linear_237_51470)"/>
    <path d="M51.6654 35.3582L49.288 32.5682C49.0386 32.276 48.9139 31.8948 48.9435 31.5108L49.2286 27.8573C49.2836 27.1443 48.8134 26.4966 48.1168 26.3291L44.5545 25.4727C44.1788 25.3821 43.8558 25.147 43.6531 24.8179L41.7404 21.695C41.3663 21.0837 40.6038 20.8359 39.9413 21.1095L36.5576 22.513C36.2005 22.6618 35.7995 22.6618 35.4419 22.513L32.0581 21.1095C31.3973 20.8359 30.6332 21.0837 30.2591 21.695L28.3469 24.8179C28.1453 25.147 27.8207 25.3821 27.4449 25.4727L23.8826 26.3291C23.1866 26.4966 22.7159 27.1443 22.7708 27.8573L23.0559 31.5108C23.0856 31.8948 22.9625 32.2749 22.7115 32.5682L20.334 35.3582C19.8704 35.9009 19.8704 36.7018 20.334 37.2462L22.7115 40.0351C22.9625 40.3284 23.0856 40.708 23.0559 41.0925L22.7708 44.7455C22.7159 45.4585 23.1866 46.1078 23.8826 46.2737L27.4449 47.13C27.8207 47.2207 28.1453 47.4563 28.3469 47.7865L30.2591 50.9093C30.6332 51.5207 31.3962 51.7685 32.0581 51.4938L35.4419 50.0903C35.799 49.9425 36.2005 49.9425 36.5576 50.0903L39.9413 51.4938C40.6033 51.7685 41.3663 51.5207 41.7404 50.9093L43.6531 47.7865C43.8541 47.4558 44.1788 47.2207 44.5545 47.13L48.1168 46.2753C48.8134 46.1078 49.2836 45.4601 49.2286 44.7455L48.9435 41.0925C48.9139 40.708 49.0386 40.3284 49.288 40.0351L51.6654 37.2462C52.129 36.7018 52.129 35.9009 51.6654 35.3582Z" fill="url(#paint5_linear_237_51470)"/>
    <path d="M48.4634 36.5098C48.4189 39.247 47.4917 42.1815 45.4158 45.0478C45.2296 45.306 45.0038 45.5317 44.7457 45.7185C34.6437 53.0338 23.6931 46.0833 23.5371 36.5098H0V40.2781C0 42.0584 1.44415 43.5026 3.22449 43.5026H5.03394C6.42371 43.5026 7.64978 44.3947 8.09253 45.7108C8.51825 46.9731 9.02692 48.1965 9.61139 49.3748C10.2316 50.6223 9.99811 52.1219 9.01428 53.1068L7.73328 54.3878C6.47369 55.6458 6.47369 57.687 7.73328 58.9466L13.3555 64.5688C14.6151 65.8284 16.6564 65.8284 17.9143 64.5688L19.1953 63.2878C20.1802 62.3046 21.6799 62.0706 22.9268 62.6907C24.1057 63.2752 25.329 63.7839 26.5913 64.2096C27.9075 64.6523 28.7996 65.8784 28.7996 67.2682V69.0776C28.7996 70.858 30.2437 72.3021 32.024 72.3021H39.976C40.4561 72.3021 40.9109 72.1961 41.3207 72.006C41.3234 72.0049 41.3256 72.0038 41.3284 72.0027C41.425 71.9572 41.5201 71.9088 41.6113 71.855C41.6953 71.8077 41.7744 71.7556 41.8524 71.6973C41.8903 71.6699 41.9288 71.6413 41.9667 71.6122C42.0051 71.5831 42.0414 71.5523 42.0765 71.5221C42.1133 71.4897 42.1485 71.4578 42.1837 71.426C42.321 71.2974 42.4479 71.1568 42.5594 71.0057C42.5852 70.9739 42.6099 70.9387 42.6308 70.9052C42.6709 70.8486 42.7088 70.7904 42.7456 70.7294C42.7687 70.6915 42.7901 70.6531 42.811 70.6135C42.834 70.5723 42.8571 70.5278 42.8785 70.4839C42.9197 70.3998 42.9576 70.3114 42.9911 70.2224C43.0005 70.1982 43.0098 70.1752 43.0175 70.151C43.0296 70.1169 43.04 70.0834 43.051 70.0499C43.0538 70.0422 43.0571 70.0334 43.0587 70.0258C43.0692 69.9906 43.0796 69.9571 43.0889 69.9219C43.095 69.8972 43.1027 69.8714 43.1087 69.845C43.1241 69.7813 43.1378 69.717 43.1488 69.6511C43.1565 69.6116 43.1625 69.5737 43.1686 69.5336C43.1746 69.4907 43.179 69.4495 43.184 69.4067C43.19 69.3523 43.1927 69.2985 43.196 69.2435C43.1993 69.1886 43.2004 69.132 43.2004 69.0771V67.2676C43.2004 65.8784 44.092 64.6523 45.4087 64.2096C46.671 63.7839 47.8943 63.2752 49.0726 62.6902C50.3201 62.0706 51.8198 62.304 52.8041 63.2873L54.0851 64.5683C55.3436 65.8279 57.3849 65.8279 58.6445 64.5683L64.2667 58.9466C65.5263 57.687 65.5263 55.6458 64.2667 54.3873L62.9857 53.1063C62.0019 52.1213 61.7684 50.6223 62.3886 49.3748C62.9731 48.1959 63.4818 46.9731 63.9075 45.7103C64.3502 44.3941 65.5763 43.5026 66.9661 43.5026H68.7755C68.8299 43.5026 68.887 43.5009 68.942 43.4982C68.9963 43.4949 69.0502 43.4921 69.1051 43.4861C69.1479 43.4811 69.1891 43.4767 69.232 43.4707C69.2715 43.4647 69.31 43.4586 69.3495 43.4509C69.4149 43.4405 69.4792 43.4268 69.5435 43.4114C69.5693 43.4053 69.5951 43.3976 69.6198 43.3916C69.655 43.3823 69.6885 43.3718 69.7236 43.3608C69.7313 43.3592 69.7407 43.3564 69.7484 43.3531C69.7819 43.3427 69.8154 43.3317 69.8489 43.3196C69.873 43.312 69.8961 43.3026 69.9208 43.2938C70.0093 43.2603 70.0977 43.2219 70.1818 43.1807C70.2257 43.1592 70.2702 43.1362 70.3114 43.1136C70.351 43.0922 70.3894 43.0708 70.4273 43.0477C70.4888 43.0109 70.5465 42.973 70.6031 42.9335C70.6366 42.912 70.6718 42.8879 70.7036 42.8615C70.8552 42.75 70.9953 42.6237 71.1238 42.4858C71.1557 42.4506 71.1876 42.416 71.22 42.3792C71.2502 42.3441 71.2809 42.3073 71.3101 42.2693C71.3386 42.2309 71.3677 42.193 71.3958 42.1545C71.4534 42.0765 71.5056 41.9974 71.5529 41.9134C71.6072 41.8222 71.6556 41.7272 71.7006 41.6305C71.7017 41.6277 71.7028 41.6255 71.7039 41.6228C71.894 41.2136 72 40.7582 72 40.2781V36.5098H48.4634Z" fill="url(#paint6_linear_237_51470)"/>
    <path d="M48.1174 46.2755C48.8134 46.1079 49.2841 45.4603 49.2286 44.7456L48.9435 41.0927C48.9139 40.7081 49.0386 40.3286 49.288 40.0352L51.0688 37.9462L42.9022 29.7795C41.1707 27.9475 38.7197 26.8027 36.0005 26.8027C30.754 26.8027 26.5012 31.0561 26.5012 36.3021C26.5012 39.0217 27.646 41.4722 29.478 43.2037L36.2812 50.007C36.3752 50.0251 36.468 50.0531 36.5576 50.0899L39.9419 51.4934C40.6038 51.7686 41.3663 51.5203 41.7409 50.9095L43.6531 47.7866C43.8541 47.4559 44.1788 47.2208 44.5545 47.1302L48.1174 46.2755Z" fill="url(#paint7_linear_237_51470)"/>
    <path d="M36.0005 45.8003C30.754 45.8003 26.5012 41.5475 26.5012 36.3021C26.5012 31.0555 30.754 26.8027 36.0005 26.8027C41.246 26.8027 45.4988 31.0561 45.4988 36.3021C45.4988 41.5475 41.246 45.8003 36.0005 45.8003Z" fill="url(#paint8_linear_237_51470)"/>
  </g>
  <defs>
    <linearGradient id="paint0_linear_237_51470" x1="20.4453" y1="20.7474" x2="76.7759" y2="77.078" gradientUnits="userSpaceOnUse">
      <stop stop-color="#F2F2F2"/>
      <stop offset="1" stop-color="#C3C3C3"/>
    </linearGradient>
    <linearGradient id="paint1_linear_237_51470" x1="58.3969" y1="58.6992" x2="14.972" y2="15.2742" gradientUnits="userSpaceOnUse">
      <stop stop-color="#C3C3C3" stop-opacity="0"/>
      <stop offset="0.0516" stop-color="#BDBCBC" stop-opacity="0.05098"/>
      <stop offset="0.3065" stop-color="#A39F9D" stop-opacity="0.305882"/>
      <stop offset="0.5545" stop-color="#918B86" stop-opacity="0.552941"/>
      <stop offset="0.7901" stop-color="#867E79" stop-opacity="0.788235"/>
      <stop offset="1" stop-color="#827A74"/>
    </linearGradient>
    <linearGradient id="paint2_linear_237_51470" x1="47.2796" y1="47.5811" x2="23.1928" y2="23.4945" gradientUnits="userSpaceOnUse">
      <stop stop-color="#F2F2F2"/>
      <stop offset="1" stop-color="#C3C3C3"/>
    </linearGradient>
    <linearGradient id="paint3_linear_237_51470" x1="26.7277" y1="27.0303" x2="46.5279" y2="46.8305" gradientUnits="userSpaceOnUse">
      <stop stop-color="#F2F2F2"/>
      <stop offset="1" stop-color="#C3C3C3"/>
    </linearGradient>
    <linearGradient id="paint4_linear_237_51470" x1="51.5925" y1="51.8792" x2="37.9797" y2="38.2664" gradientUnits="userSpaceOnUse">
      <stop stop-color="#C3C3C3" stop-opacity="0"/>
      <stop offset="0.0516" stop-color="#BDBCBC" stop-opacity="0.05098"/>
      <stop offset="0.3065" stop-color="#A39F9D" stop-opacity="0.305882"/>
      <stop offset="0.5545" stop-color="#918B86" stop-opacity="0.552941"/>
      <stop offset="0.7901" stop-color="#867E79" stop-opacity="0.788235"/>
      <stop offset="1" stop-color="#827A74"/>
    </linearGradient>
    <linearGradient id="paint5_linear_237_51470" x1="29.1758" y1="29.4778" x2="46.5478" y2="46.8497" gradientUnits="userSpaceOnUse">
      <stop stop-color="#FFB92D"/>
      <stop offset="1" stop-color="#F59500"/>
    </linearGradient>
    <linearGradient id="paint6_linear_237_51470" x1="35.9999" y1="52.6472" x2="35.9999" y2="76.1369" gradientUnits="userSpaceOnUse">
      <stop stop-color="#C3C3C3" stop-opacity="0"/>
      <stop offset="0.0516" stop-color="#BDBCBC" stop-opacity="0.05098"/>
      <stop offset="0.3065" stop-color="#A39F9D" stop-opacity="0.305882"/>
      <stop offset="0.5545" stop-color="#918B86" stop-opacity="0.552941"/>
      <stop offset="0.7901" stop-color="#867E79" stop-opacity="0.788235"/>
      <stop offset="1" stop-color="#827A74"/>
    </linearGradient>
    <linearGradient id="paint7_linear_237_51470" x1="46.5022" y1="46.804" x2="29.9885" y2="30.2903" gradientUnits="userSpaceOnUse">
      <stop stop-color="#BE3F45" stop-opacity="0"/>
      <stop offset="1" stop-color="#BE3F45"/>
    </linearGradient>
    <linearGradient id="paint8_linear_237_51470" x1="31.9064" y1="32.208" x2="42.3272" y2="42.629" gradientUnits="userSpaceOnUse">
      <stop stop-color="#FFF9B4"/>
      <stop offset="1" stop-color="#FFF465"/>
    </linearGradient>
    <clipPath id="clip0_237_51470">
      <rect width="72.0001" height="72" fill="white" transform="translate(0 0.302002)"/>
    </clipPath>
  </defs>
</svg>