<svg width="73" height="72" viewBox="0 0 73 72" fill="none" xmlns="http://www.w3.org/2000/svg">
<g clip-path="url(#clip0_237_51138)">
<path fill-rule="evenodd" clip-rule="evenodd" d="M32.875 13.7948V-0.243469C38.1808 0.402276 42.8577 4.99945 45.9061 11.8448C41.666 13.0603 37.2852 13.7159 32.875 13.7948ZM32.875 16.3661C37.6144 16.2862 42.3217 15.5707 46.8708 14.2386C48.5753 19.0651 49.4892 24.1353 49.5771 29.2531H32.875V16.3661ZM41.6579 57.1229L41.6582 57.124C41.6608 57.133 41.6633 57.142 41.6666 57.151L42.3998 59.4496C39.3475 60.5945 36.1323 61.2458 32.875 61.379V47.3073C34.8149 47.3483 36.7512 47.4969 38.6747 47.7522L41.6498 57.097C41.6529 57.1056 41.6554 57.1143 41.6579 57.1229ZM30.303 61.3159V47.2841C25.9008 47.3628 21.5279 48.0163 17.2949 49.2276C20.4399 56.2647 25.2055 60.6895 30.303 61.3159ZM39.1082 34.5411L49.0897 37.7169C49.3639 35.7642 49.524 33.7971 49.5694 31.8259H32.875V44.7116C34.5382 44.7489 36.1897 44.8492 37.8091 45.0306L35.5852 38.0461C35.2636 37.048 35.5292 35.9537 36.2725 35.214C37.0161 34.4743 38.1117 34.2143 39.1082 34.5411ZM38.3149 36.9887L72.5475 47.8821C72.6712 47.9118 72.756 48.0253 72.7497 48.1522C72.7628 48.2784 72.682 48.3952 72.5593 48.4275L56.9042 54.1655C56.1138 54.4553 55.491 55.0782 55.2012 55.8685L49.4785 71.5107C49.4462 71.6298 49.3339 71.7091 49.2109 71.6998C49.0821 71.7121 48.9642 71.6267 48.9356 71.5005L38.0332 37.2511C38.0042 37.1753 38.0259 37.0893 38.0872 37.0363C38.1242 36.9956 38.1763 36.972 38.2313 36.9707C38.26 36.9714 38.2884 36.9775 38.3149 36.9887ZM30.3027 16.3661C25.5633 16.2859 20.856 15.5704 16.3069 14.2386C14.6024 19.0651 13.6887 24.1353 13.6006 29.2533H30.3027V16.3661ZM7.99528 10.6525C9.87385 11.7667 11.8553 12.6975 13.9121 13.4321C12.0946 18.5133 11.1207 23.8576 11.0296 29.2532H0.750977C1.02883 22.4197 3.57819 15.874 7.99528 10.6525ZM14.8459 50.038C13.083 50.6642 11.3783 51.4431 9.75098 52.3662C13.052 55.6561 17.0531 58.1583 21.456 59.6863C18.6094 56.9616 16.3587 53.6764 14.8459 50.038ZM17.2715 11.8474C20.3211 4.9993 24.9968 0.399603 30.3026 -0.243469V13.7948C25.8925 13.7177 21.5115 13.063 17.2715 11.8474ZM30.3025 31.8257H13.6094C13.6953 36.9427 14.615 42.0116 16.3323 46.8326C20.8737 45.5058 25.572 44.793 30.3025 44.7129V31.8257ZM55.1795 10.6577C59.5969 15.8772 62.1475 22.4209 62.4276 29.2531V29.2533H52.1491C52.056 23.8591 51.0809 18.5166 49.2627 13.4373C51.3197 12.7029 53.3011 11.772 55.1795 10.6577ZM53.4094 8.72311C50.0906 5.40294 46.0597 2.88158 41.6221 1.35022C44.4944 4.09049 46.7713 7.39335 48.3107 11.0526C50.0751 10.4267 51.7812 9.64713 53.4094 8.72311ZM9.76855 8.72311C13.0873 5.40294 17.1182 2.88158 21.5559 1.35022C18.6876 4.09161 16.4148 7.39434 14.8789 11.0526C13.1107 10.4268 11.4008 9.64727 9.76855 8.72311ZM62.4283 31.8257H52.1381C52.0885 34.0625 51.8981 36.2938 51.5684 38.5066L60.4989 41.3493C61.6452 38.2978 62.2966 35.0827 62.4283 31.8257ZM11.0376 31.8257C11.1257 37.2193 12.0901 42.5627 13.8931 47.6468C11.8449 48.38 9.87221 49.3087 8.00194 50.42C3.59554 45.1963 1.05392 38.6542 0.77832 31.8257H11.0376Z" fill="#75BDFF"/>
</g>
<defs>
<clipPath id="clip0_237_51138">
<rect width="72" height="72" fill="white" transform="translate(0.750977 0.00012207)"/>
</clipPath>
</defs>
</svg>
