<svg xmlns="http://www.w3.org/2000/svg" width="72" height="73" viewBox="0 0 72 73" fill="none">
  <g clip-path="url(#clip0_237_51567)">
    <path d="M11.7637 61.3683H9.80982C8.92705 61.3683 8.19476 60.6851 8.13363 59.8043L7.58276 51.8694H13.9908L13.4399 59.8043C13.3788 60.6851 12.6465 61.3683 11.7637 61.3683Z" fill="url(#paint0_linear_237_51567)"/>
    <path d="M11.7637 61.3683H9.80982C8.92705 61.3683 8.19476 60.6851 8.13363 59.8043L7.58276 51.8694H13.9908L13.4399 59.8043C13.3788 60.6851 12.6465 61.3683 11.7637 61.3683Z" fill="url(#paint1_linear_237_51567)"/>
    <path d="M11.7637 61.3683H9.80982C8.92705 61.3683 8.19476 60.6851 8.13363 59.8043L7.58276 51.8694H13.9908L13.4399 59.8043C13.3788 60.6851 12.6465 61.3683 11.7637 61.3683Z" fill="url(#paint2_linear_237_51567)"/>
    <path d="M11.7637 61.3683H9.80982C8.92705 61.3683 8.19476 60.6851 8.13363 59.8043L7.58276 51.8694H13.9908L13.4399 59.8043C13.3788 60.6851 12.6465 61.3683 11.7637 61.3683Z" fill="url(#paint3_linear_237_51567)"/>
    <path d="M62.1902 61.3683H60.2363C59.3536 61.3683 58.6213 60.6851 58.5601 59.8043L58.0093 51.8694H64.4173L63.8664 59.8043C63.8053 60.6851 63.073 61.3683 62.1902 61.3683Z" fill="url(#paint4_linear_237_51567)"/>
    <path d="M62.1902 61.3683H60.2363C59.3536 61.3683 58.6213 60.6851 58.5601 59.8043L58.0093 51.8694H64.4173L63.8664 59.8043C63.8053 60.6851 63.073 61.3683 62.1902 61.3683Z" fill="url(#paint5_linear_237_51567)"/>
    <path d="M62.1902 61.3683H60.2363C59.3536 61.3683 58.6213 60.6851 58.5601 59.8043L58.0093 51.8694H64.4173L63.8664 59.8043C63.8053 60.6851 63.073 61.3683 62.1902 61.3683Z" fill="url(#paint6_linear_237_51567)"/>
    <path d="M62.1902 61.3683H60.2363C59.3536 61.3683 58.6213 60.6851 58.5601 59.8043L58.0093 51.8694H64.4173L63.8664 59.8043C63.8053 60.6851 63.073 61.3683 62.1902 61.3683Z" fill="url(#paint7_linear_237_51567)"/>
    <path d="M65.1766 56.8502H6.82354C4.19851 56.8502 2.07056 54.7222 2.07056 52.0972V40.6619H69.9294V52.0972C69.9294 54.7222 67.8015 56.8502 65.1766 56.8502Z" fill="url(#paint8_linear_237_51567)"/>
    <path d="M65.1766 56.8502H6.82354C4.19851 56.8502 2.07056 54.7222 2.07056 52.0972V40.6619H69.9294V52.0972C69.9294 54.7222 67.8015 56.8502 65.1766 56.8502Z" fill="url(#paint9_linear_237_51567)"/>
    <path d="M41.7883 56.8502H65.1766C67.8016 56.8502 69.9296 54.7222 69.9296 52.0972V40.6619H41.7883V56.8502Z" fill="url(#paint10_linear_237_51567)"/>
    <path d="M50.6709 11.2356H48.7354C46.1041 11.2356 43.6376 11.8274 41.4445 12.8751C38 14.5203 34.0001 14.5203 30.5557 12.8751C28.3625 11.8275 25.896 11.2356 23.2647 11.2356H21.3292C10.4864 11.2356 2.43599 21.2819 4.79872 31.864L7.67901 44.764H35.0852H36.9148H64.321L67.2013 31.864C69.5641 21.282 61.5135 11.2356 50.6709 11.2356Z" fill="url(#paint11_linear_237_51567)"/>
    <path d="M17.7911 41.4991C22.962 41.4991 27.1538 37.3072 27.1538 32.1364C27.1538 26.9655 22.962 22.7737 17.7911 22.7737C12.6203 22.7737 8.42847 26.9655 8.42847 32.1364C8.42847 37.3072 12.6203 41.4991 17.7911 41.4991Z" fill="url(#paint12_linear_237_51567)"/>
    <path d="M29.9442 38.0889C35.1151 38.0889 39.3069 33.8971 39.3069 28.7262C39.3069 23.5553 35.1151 19.3635 29.9442 19.3635C24.7734 19.3635 20.5815 23.5553 20.5815 28.7262C20.5815 33.8971 24.7734 38.0889 29.9442 38.0889Z" fill="url(#paint13_linear_237_51567)"/>
    <path d="M26.8026 41.4991C31.9735 41.4991 36.1653 37.3072 36.1653 32.1364C36.1653 26.9655 31.9735 22.7737 26.8026 22.7737C21.6318 22.7737 17.4399 26.9655 17.4399 32.1364C17.4399 37.3072 21.6318 41.4991 26.8026 41.4991Z" fill="url(#paint14_linear_237_51567)"/>
    <path d="M14.6495 38.0889C19.8204 38.0889 24.0122 33.8971 24.0122 28.7262C24.0122 23.5553 19.8204 19.3635 14.6495 19.3635C9.47868 19.3635 5.28687 23.5553 5.28687 28.7262C5.28687 33.8971 9.47868 38.0889 14.6495 38.0889Z" fill="url(#paint15_linear_237_51567)"/>
    <path d="M22.2968 26.9847C23.5609 26.9847 24.5856 25.96 24.5856 24.696C24.5856 23.4319 23.5609 22.4072 22.2968 22.4072C21.0328 22.4072 20.0081 23.4319 20.0081 24.696C20.0081 25.96 21.0328 26.9847 22.2968 26.9847Z" fill="url(#paint16_linear_237_51567)"/>
    <path d="M20.0083 24.6961C20.0083 25.96 21.033 26.9848 22.2971 26.9848C23.561 26.9848 24.5858 25.9602 24.5858 24.6961C24.5858 24.4223 24.5375 24.1599 24.4494 23.9165H20.1448C20.0564 24.1599 20.0083 24.4223 20.0083 24.6961Z" fill="url(#paint17_linear_237_51567)"/>
    <path d="M20.6785 26.3143C21.5723 27.2081 23.0214 27.2081 23.9152 26.3143C24.809 25.4205 24.809 23.9713 23.9152 23.0775C23.7217 22.884 23.502 22.7325 23.2676 22.6228L20.2239 25.6666C20.3334 25.9011 20.4849 26.1207 20.6785 26.3143Z" fill="url(#paint18_linear_237_51567)"/>
    <path d="M50.6709 11.2356H48.7354C48.5066 11.2356 48.2796 11.2417 48.0535 11.2506V44.764H64.3211L67.2014 31.864C69.5641 21.282 61.5135 11.2356 50.6709 11.2356Z" fill="url(#paint19_linear_237_51567)"/>
    <path d="M66.944 23.45H39.5378H32.4621H5.05591C4.28819 26.0822 4.14857 28.9526 4.79869 31.8641L7.67897 44.7641H35.0851H36.9148H64.3209L67.2012 31.8641C67.8514 28.9526 67.7117 26.0822 66.944 23.45Z" fill="url(#paint20_linear_237_51567)"/>
    <path d="M25.8904 44.7639L10.8 29.6736V44.7639H25.8904Z" fill="url(#paint21_linear_237_51567)"/>
    <path d="M45.1974 41.4991C50.3683 41.4991 54.5601 37.3072 54.5601 32.1364C54.5601 26.9655 50.3683 22.7737 45.1974 22.7737C40.0265 22.7737 35.8347 26.9655 35.8347 32.1364C35.8347 37.3072 40.0265 41.4991 45.1974 41.4991Z" fill="url(#paint22_linear_237_51567)"/>
    <path d="M57.3505 38.0889C62.5213 38.0889 66.7132 33.8971 66.7132 28.7262C66.7132 23.5553 62.5213 19.3635 57.3505 19.3635C52.1796 19.3635 47.9878 23.5553 47.9878 28.7262C47.9878 33.8971 52.1796 38.0889 57.3505 38.0889Z" fill="url(#paint23_linear_237_51567)"/>
    <path d="M54.2089 41.4991C59.3797 41.4991 63.5716 37.3072 63.5716 32.1364C63.5716 26.9655 59.3797 22.7737 54.2089 22.7737C49.038 22.7737 44.8462 26.9655 44.8462 32.1364C44.8462 37.3072 49.038 41.4991 54.2089 41.4991Z" fill="url(#paint24_linear_237_51567)"/>
    <path d="M42.0558 38.0889C47.2267 38.0889 51.4185 33.8971 51.4185 28.7262C51.4185 23.5553 47.2267 19.3635 42.0558 19.3635C36.8849 19.3635 32.6931 23.5553 32.6931 28.7262C32.6931 33.8971 36.8849 38.0889 42.0558 38.0889Z" fill="url(#paint25_linear_237_51567)"/>
    <path d="M49.7033 26.9847C50.9673 26.9847 51.9921 25.96 51.9921 24.696C51.9921 23.4319 50.9673 22.4072 49.7033 22.4072C48.4393 22.4072 47.4146 23.4319 47.4146 24.696C47.4146 25.96 48.4393 26.9847 49.7033 26.9847Z" fill="url(#paint26_linear_237_51567)"/>
    <path d="M47.4146 24.6961C47.4146 25.96 48.4392 26.9848 49.7033 26.9848C50.9673 26.9848 51.9921 25.9602 51.9921 24.6961C51.9921 24.4223 51.9438 24.1599 51.8557 23.9165H47.5511C47.4628 24.1599 47.4146 24.4223 47.4146 24.6961Z" fill="url(#paint27_linear_237_51567)"/>
    <path d="M48.085 26.3143C48.9787 27.2081 50.4279 27.2081 51.3217 26.3143C52.2155 25.4205 52.2155 23.9713 51.3217 23.0775C51.1282 22.884 50.9085 22.7325 50.6741 22.6228L47.6304 25.6666C47.7399 25.9011 47.8914 26.1207 48.085 26.3143Z" fill="url(#paint28_linear_237_51567)"/>
    <path d="M35.647 47.1089C50.5003 47.1089 62.5412 44.8967 62.5412 42.1677C62.5412 39.4388 50.5003 37.2266 35.647 37.2266C20.7938 37.2266 8.75293 39.4388 8.75293 42.1677C8.75293 44.8967 20.7938 47.1089 35.647 47.1089Z" fill="url(#paint29_linear_237_51567)"/>
    <path d="M35.647 47.1089C50.5003 47.1089 62.5412 44.8967 62.5412 42.1677C62.5412 39.4388 50.5003 37.2266 35.647 37.2266C20.7938 37.2266 8.75293 39.4388 8.75293 42.1677C8.75293 44.8967 20.7938 47.1089 35.647 47.1089Z" fill="url(#paint30_linear_237_51567)"/>
    <path d="M34.447 37.2319C20.151 37.3473 8.75293 39.5129 8.75293 42.168C8.75293 44.8231 20.151 46.9886 34.447 47.1041V37.2319Z" fill="url(#paint31_linear_237_51567)"/>
    <path d="M59.5807 34.3704L60.0009 38.971C60.1917 41.0614 58.546 42.8642 56.447 42.8642H15.5533C13.4541 42.8642 11.8084 41.0614 11.9994 38.971L12.4196 34.3704C12.7525 30.7256 9.88307 27.582 6.22307 27.582C2.56307 27.582 -0.306347 30.7255 0.0265475 34.3704L0.57163 40.3386C1.10612 46.1906 6.01356 50.6705 11.89 50.6705H60.1103C65.9867 50.6705 70.8942 46.1908 71.4287 40.3386L71.9737 34.3704C72.3066 30.7256 69.4372 27.582 65.7772 27.582C62.1174 27.582 59.2478 30.7256 59.5807 34.3704Z" fill="url(#paint32_linear_237_51567)"/>
    <path d="M59.8447 37.2612L60.0008 38.9712C60.1917 41.0616 58.546 42.8644 56.447 42.8644H15.5533C13.4541 42.8644 11.8084 41.0616 11.9994 38.9712L12.1556 37.2612H0.290527L0.57161 40.3386C1.1061 46.1906 6.01354 50.6705 11.89 50.6705H60.1102C65.9867 50.6705 70.8941 46.1908 71.4286 40.3386L71.7097 37.2612H59.8447Z" fill="url(#paint33_linear_237_51567)"/>
    <path d="M65.7771 27.582C62.1171 27.582 59.2477 30.7255 59.5806 34.3704L60.0007 38.971C60.1916 41.0614 58.5459 42.8642 56.4469 42.8642H55.2393V50.6703H60.1101C65.9866 50.6703 70.894 46.1906 71.4285 40.3385L71.9736 34.3702C72.3066 30.7256 69.4371 27.582 65.7771 27.582Z" fill="url(#paint34_linear_237_51567)"/>
    <path d="M12.7991 41.5654C12.2238 40.868 11.9097 39.9512 11.9992 38.9713L12.4193 34.3706C12.7522 30.7259 9.88282 27.5823 6.22282 27.5823C2.56282 27.5823 -0.306591 30.7257 0.0263034 34.3706L0.571386 40.3388C1.10588 46.1909 6.01332 50.6707 11.8898 50.6707H12.799V41.5654H12.7991Z" fill="url(#paint35_linear_237_51567)"/>
  </g>
  <defs>
    <linearGradient id="paint0_linear_237_51567" x1="9.05763" y1="56.619" x2="11.9783" y2="56.619" gradientUnits="userSpaceOnUse">
      <stop stop-color="#B9ACAC"/>
      <stop offset="1" stop-color="#766E6E"/>
    </linearGradient>
    <linearGradient id="paint1_linear_237_51567" x1="9.78893" y1="59.3838" x2="10.8569" y2="54.1963" gradientUnits="userSpaceOnUse">
      <stop stop-color="#384949" stop-opacity="0"/>
      <stop offset="0.3044" stop-color="#354545" stop-opacity="0.304"/>
      <stop offset="0.5863" stop-color="#2E3A3A" stop-opacity="0.586"/>
      <stop offset="0.8583" stop-color="#222727" stop-opacity="0.858"/>
      <stop offset="1" stop-color="#1A1A1A"/>
    </linearGradient>
    <linearGradient id="paint2_linear_237_51567" x1="10.7868" y1="59.4561" x2="10.7868" y2="61.3886" gradientUnits="userSpaceOnUse">
      <stop stop-color="#384949" stop-opacity="0"/>
      <stop offset="0.3044" stop-color="#354545" stop-opacity="0.304"/>
      <stop offset="0.5863" stop-color="#2E3A3A" stop-opacity="0.586"/>
      <stop offset="0.8583" stop-color="#222727" stop-opacity="0.858"/>
      <stop offset="1" stop-color="#1A1A1A"/>
    </linearGradient>
    <linearGradient id="paint3_linear_237_51567" x1="9.61712" y1="56.619" x2="13.6505" y2="56.619" gradientUnits="userSpaceOnUse">
      <stop stop-color="#384949" stop-opacity="0"/>
      <stop offset="0.3044" stop-color="#354545" stop-opacity="0.304"/>
      <stop offset="0.5863" stop-color="#2E3A3A" stop-opacity="0.586"/>
      <stop offset="0.8583" stop-color="#222727" stop-opacity="0.858"/>
      <stop offset="1" stop-color="#1A1A1A"/>
    </linearGradient>
    <linearGradient id="paint4_linear_237_51567" x1="59.4841" y1="56.619" x2="62.4048" y2="56.619" gradientUnits="userSpaceOnUse">
      <stop stop-color="#B9ACAC"/>
      <stop offset="1" stop-color="#766E6E"/>
    </linearGradient>
    <linearGradient id="paint5_linear_237_51567" x1="60.2154" y1="59.3838" x2="61.2834" y2="54.1963" gradientUnits="userSpaceOnUse">
      <stop stop-color="#384949" stop-opacity="0"/>
      <stop offset="0.3044" stop-color="#354545" stop-opacity="0.304"/>
      <stop offset="0.5863" stop-color="#2E3A3A" stop-opacity="0.586"/>
      <stop offset="0.8583" stop-color="#222727" stop-opacity="0.858"/>
      <stop offset="1" stop-color="#1A1A1A"/>
    </linearGradient>
    <linearGradient id="paint6_linear_237_51567" x1="61.2133" y1="59.4561" x2="61.2133" y2="61.3886" gradientUnits="userSpaceOnUse">
      <stop stop-color="#384949" stop-opacity="0"/>
      <stop offset="0.3044" stop-color="#354545" stop-opacity="0.304"/>
      <stop offset="0.5863" stop-color="#2E3A3A" stop-opacity="0.586"/>
      <stop offset="0.8583" stop-color="#222727" stop-opacity="0.858"/>
      <stop offset="1" stop-color="#1A1A1A"/>
    </linearGradient>
    <linearGradient id="paint7_linear_237_51567" x1="60.0435" y1="56.619" x2="64.077" y2="56.619" gradientUnits="userSpaceOnUse">
      <stop stop-color="#384949" stop-opacity="0"/>
      <stop offset="0.3044" stop-color="#354545" stop-opacity="0.304"/>
      <stop offset="0.5863" stop-color="#2E3A3A" stop-opacity="0.586"/>
      <stop offset="0.8583" stop-color="#222727" stop-opacity="0.858"/>
      <stop offset="1" stop-color="#1A1A1A"/>
    </linearGradient>
    <linearGradient id="paint8_linear_237_51567" x1="36.0001" y1="49.8855" x2="36.0001" y2="56.2917" gradientUnits="userSpaceOnUse">
      <stop stop-color="#A6E7F0"/>
      <stop offset="0.1228" stop-color="#9FE4F0"/>
      <stop offset="0.2967" stop-color="#8DDDF0"/>
      <stop offset="0.5012" stop-color="#6ED1F0"/>
      <stop offset="0.7289" stop-color="#44C0F1"/>
      <stop offset="0.9732" stop-color="#0EABF1"/>
      <stop offset="1" stop-color="#08A9F1"/>
    </linearGradient>
    <linearGradient id="paint9_linear_237_51567" x1="36.0001" y1="48.9443" x2="36.0001" y2="58.1306" gradientUnits="userSpaceOnUse">
      <stop stop-color="#0290CF" stop-opacity="0"/>
      <stop offset="0.3673" stop-color="#028ECC" stop-opacity="0.367"/>
      <stop offset="0.6836" stop-color="#0187C1" stop-opacity="0.684"/>
      <stop offset="0.9801" stop-color="#017CB0" stop-opacity="0.98"/>
      <stop offset="1" stop-color="#017BAE"/>
    </linearGradient>
    <linearGradient id="paint10_linear_237_51567" x1="56.753" y1="48.7561" x2="70.306" y2="48.7561" gradientUnits="userSpaceOnUse">
      <stop stop-color="#0290CF" stop-opacity="0"/>
      <stop offset="0.3673" stop-color="#028ECC" stop-opacity="0.367"/>
      <stop offset="0.6836" stop-color="#0187C1" stop-opacity="0.684"/>
      <stop offset="0.9801" stop-color="#017CB0" stop-opacity="0.98"/>
      <stop offset="1" stop-color="#017BAE"/>
    </linearGradient>
    <linearGradient id="paint11_linear_237_51567" x1="30.9243" y1="14.3985" x2="37.7008" y2="35.2926" gradientUnits="userSpaceOnUse">
      <stop stop-color="#A6E7F0"/>
      <stop offset="0.1228" stop-color="#9FE4F0"/>
      <stop offset="0.2967" stop-color="#8DDDF0"/>
      <stop offset="0.5012" stop-color="#6ED1F0"/>
      <stop offset="0.7289" stop-color="#44C0F1"/>
      <stop offset="0.9732" stop-color="#0EABF1"/>
      <stop offset="1" stop-color="#08A9F1"/>
    </linearGradient>
    <linearGradient id="paint12_linear_237_51567" x1="18.9499" y1="29.2271" x2="21.8642" y2="21.9105" gradientUnits="userSpaceOnUse">
      <stop stop-color="#0290CF" stop-opacity="0"/>
      <stop offset="0.3673" stop-color="#028ECC" stop-opacity="0.367"/>
      <stop offset="0.6836" stop-color="#0187C1" stop-opacity="0.684"/>
      <stop offset="0.9801" stop-color="#017CB0" stop-opacity="0.98"/>
      <stop offset="1" stop-color="#017BAE"/>
    </linearGradient>
    <linearGradient id="paint13_linear_237_51567" x1="28.6372" y1="27.1233" x2="22.0646" y2="19.0627" gradientUnits="userSpaceOnUse">
      <stop stop-color="#0290CF" stop-opacity="0"/>
      <stop offset="0.3673" stop-color="#028ECC" stop-opacity="0.367"/>
      <stop offset="0.6836" stop-color="#0187C1" stop-opacity="0.684"/>
      <stop offset="0.9801" stop-color="#017CB0" stop-opacity="0.98"/>
      <stop offset="1" stop-color="#017BAE"/>
    </linearGradient>
    <linearGradient id="paint14_linear_237_51567" x1="25.6438" y1="29.2271" x2="22.7295" y2="21.9105" gradientUnits="userSpaceOnUse">
      <stop stop-color="#0290CF" stop-opacity="0"/>
      <stop offset="0.3673" stop-color="#028ECC" stop-opacity="0.367"/>
      <stop offset="0.6836" stop-color="#0187C1" stop-opacity="0.684"/>
      <stop offset="0.9801" stop-color="#017CB0" stop-opacity="0.98"/>
      <stop offset="1" stop-color="#017BAE"/>
    </linearGradient>
    <linearGradient id="paint15_linear_237_51567" x1="15.9566" y1="27.1233" x2="22.529" y2="19.0627" gradientUnits="userSpaceOnUse">
      <stop stop-color="#0290CF" stop-opacity="0"/>
      <stop offset="0.3673" stop-color="#028ECC" stop-opacity="0.367"/>
      <stop offset="0.6836" stop-color="#0187C1" stop-opacity="0.684"/>
      <stop offset="0.9801" stop-color="#017CB0" stop-opacity="0.98"/>
      <stop offset="1" stop-color="#017BAE"/>
    </linearGradient>
    <linearGradient id="paint16_linear_237_51567" x1="21.4126" y1="23.8117" x2="23.4931" y2="25.8923" gradientUnits="userSpaceOnUse">
      <stop stop-color="#FEF1DA"/>
      <stop offset="0.3731" stop-color="#FEECD4"/>
      <stop offset="0.9004" stop-color="#FEDEC1"/>
      <stop offset="1" stop-color="#FEDBBD"/>
    </linearGradient>
    <linearGradient id="paint17_linear_237_51567" x1="22.2969" y1="24.725" x2="22.2969" y2="27.4174" gradientUnits="userSpaceOnUse">
      <stop stop-color="#FFB09E" stop-opacity="0"/>
      <stop offset="0.2673" stop-color="#FCAC9A" stop-opacity="0.267"/>
      <stop offset="0.4974" stop-color="#F3A390" stop-opacity="0.497"/>
      <stop offset="0.7138" stop-color="#E4927E" stop-opacity="0.714"/>
      <stop offset="0.9206" stop-color="#CF7B65" stop-opacity="0.921"/>
      <stop offset="1" stop-color="#C5715A"/>
    </linearGradient>
    <linearGradient id="paint18_linear_237_51567" x1="22.3585" y1="24.7" x2="24.3622" y2="26.7036" gradientUnits="userSpaceOnUse">
      <stop stop-color="#FFB09E" stop-opacity="0"/>
      <stop offset="0.2673" stop-color="#FCAC9A" stop-opacity="0.267"/>
      <stop offset="0.4974" stop-color="#F3A390" stop-opacity="0.497"/>
      <stop offset="0.7138" stop-color="#E4927E" stop-opacity="0.714"/>
      <stop offset="0.9206" stop-color="#CF7B65" stop-opacity="0.921"/>
      <stop offset="1" stop-color="#C5715A"/>
    </linearGradient>
    <linearGradient id="paint19_linear_237_51567" x1="58.6848" y1="27.9999" x2="66.9556" y2="27.9999" gradientUnits="userSpaceOnUse">
      <stop stop-color="#0290CF" stop-opacity="0"/>
      <stop offset="0.3673" stop-color="#028ECC" stop-opacity="0.367"/>
      <stop offset="0.6836" stop-color="#0187C1" stop-opacity="0.684"/>
      <stop offset="0.9801" stop-color="#017CB0" stop-opacity="0.98"/>
      <stop offset="1" stop-color="#017BAE"/>
    </linearGradient>
    <linearGradient id="paint20_linear_237_51567" x1="36" y1="29.2431" x2="36" y2="39.9725" gradientUnits="userSpaceOnUse">
      <stop stop-color="#0290CF" stop-opacity="0"/>
      <stop offset="0.3673" stop-color="#028ECC" stop-opacity="0.367"/>
      <stop offset="0.6836" stop-color="#0187C1" stop-opacity="0.684"/>
      <stop offset="0.9801" stop-color="#017CB0" stop-opacity="0.98"/>
      <stop offset="1" stop-color="#017BAE"/>
    </linearGradient>
    <linearGradient id="paint21_linear_237_51567" x1="17.7866" y1="37.7091" x2="9.73953" y2="37.1444" gradientUnits="userSpaceOnUse">
      <stop stop-color="#0290CF" stop-opacity="0"/>
      <stop offset="0.3673" stop-color="#028ECC" stop-opacity="0.367"/>
      <stop offset="0.6836" stop-color="#0187C1" stop-opacity="0.684"/>
      <stop offset="0.9801" stop-color="#017CB0" stop-opacity="0.98"/>
      <stop offset="1" stop-color="#017BAE"/>
    </linearGradient>
    <linearGradient id="paint22_linear_237_51567" x1="46.3562" y1="29.2271" x2="49.2705" y2="21.9105" gradientUnits="userSpaceOnUse">
      <stop stop-color="#0290CF" stop-opacity="0"/>
      <stop offset="0.3673" stop-color="#028ECC" stop-opacity="0.367"/>
      <stop offset="0.6836" stop-color="#0187C1" stop-opacity="0.684"/>
      <stop offset="0.9801" stop-color="#017CB0" stop-opacity="0.98"/>
      <stop offset="1" stop-color="#017BAE"/>
    </linearGradient>
    <linearGradient id="paint23_linear_237_51567" x1="56.0435" y1="27.1233" x2="49.471" y2="19.0627" gradientUnits="userSpaceOnUse">
      <stop stop-color="#0290CF" stop-opacity="0"/>
      <stop offset="0.3673" stop-color="#028ECC" stop-opacity="0.367"/>
      <stop offset="0.6836" stop-color="#0187C1" stop-opacity="0.684"/>
      <stop offset="0.9801" stop-color="#017CB0" stop-opacity="0.98"/>
      <stop offset="1" stop-color="#017BAE"/>
    </linearGradient>
    <linearGradient id="paint24_linear_237_51567" x1="53.0501" y1="29.2271" x2="50.1358" y2="21.9105" gradientUnits="userSpaceOnUse">
      <stop stop-color="#0290CF" stop-opacity="0"/>
      <stop offset="0.3673" stop-color="#028ECC" stop-opacity="0.367"/>
      <stop offset="0.6836" stop-color="#0187C1" stop-opacity="0.684"/>
      <stop offset="0.9801" stop-color="#017CB0" stop-opacity="0.98"/>
      <stop offset="1" stop-color="#017BAE"/>
    </linearGradient>
    <linearGradient id="paint25_linear_237_51567" x1="43.3628" y1="27.1233" x2="49.9353" y2="19.0627" gradientUnits="userSpaceOnUse">
      <stop stop-color="#0290CF" stop-opacity="0"/>
      <stop offset="0.3673" stop-color="#028ECC" stop-opacity="0.367"/>
      <stop offset="0.6836" stop-color="#0187C1" stop-opacity="0.684"/>
      <stop offset="0.9801" stop-color="#017CB0" stop-opacity="0.98"/>
      <stop offset="1" stop-color="#017BAE"/>
    </linearGradient>
    <linearGradient id="paint26_linear_237_51567" x1="48.819" y1="23.8117" x2="50.8995" y2="25.8923" gradientUnits="userSpaceOnUse">
      <stop stop-color="#FEF1DA"/>
      <stop offset="0.3731" stop-color="#FEECD4"/>
      <stop offset="0.9004" stop-color="#FEDEC1"/>
      <stop offset="1" stop-color="#FEDBBD"/>
    </linearGradient>
    <linearGradient id="paint27_linear_237_51567" x1="49.7033" y1="24.725" x2="49.7033" y2="27.4174" gradientUnits="userSpaceOnUse">
      <stop stop-color="#FFB09E" stop-opacity="0"/>
      <stop offset="0.2673" stop-color="#FCAC9A" stop-opacity="0.267"/>
      <stop offset="0.4974" stop-color="#F3A390" stop-opacity="0.497"/>
      <stop offset="0.7138" stop-color="#E4927E" stop-opacity="0.714"/>
      <stop offset="0.9206" stop-color="#CF7B65" stop-opacity="0.921"/>
      <stop offset="1" stop-color="#C5715A"/>
    </linearGradient>
    <linearGradient id="paint28_linear_237_51567" x1="49.7609" y1="24.6999" x2="51.7645" y2="26.7035" gradientUnits="userSpaceOnUse">
      <stop stop-color="#FFB09E" stop-opacity="0"/>
      <stop offset="0.2673" stop-color="#FCAC9A" stop-opacity="0.267"/>
      <stop offset="0.4974" stop-color="#F3A390" stop-opacity="0.497"/>
      <stop offset="0.7138" stop-color="#E4927E" stop-opacity="0.714"/>
      <stop offset="0.9206" stop-color="#CF7B65" stop-opacity="0.921"/>
      <stop offset="1" stop-color="#C5715A"/>
    </linearGradient>
    <linearGradient id="paint29_linear_237_51567" x1="35.6471" y1="37.5795" x2="35.6471" y2="44.6393" gradientUnits="userSpaceOnUse">
      <stop stop-color="#FEF1DA"/>
      <stop offset="0.3731" stop-color="#FEECD4"/>
      <stop offset="0.9004" stop-color="#FEDEC1"/>
      <stop offset="1" stop-color="#FEDBBD"/>
    </linearGradient>
    <linearGradient id="paint30_linear_237_51567" x1="35.647" y1="40.2854" x2="35.647" y2="44.7449" gradientUnits="userSpaceOnUse">
      <stop stop-color="#FFB09E" stop-opacity="0"/>
      <stop offset="0.2673" stop-color="#FCAC9A" stop-opacity="0.267"/>
      <stop offset="0.4974" stop-color="#F3A390" stop-opacity="0.497"/>
      <stop offset="0.7138" stop-color="#E4927E" stop-opacity="0.714"/>
      <stop offset="0.9206" stop-color="#CF7B65" stop-opacity="0.921"/>
      <stop offset="1" stop-color="#C5715A"/>
    </linearGradient>
    <linearGradient id="paint31_linear_237_51567" x1="23.6815" y1="43.2103" x2="12.8581" y2="48.1044" gradientUnits="userSpaceOnUse">
      <stop stop-color="#FFB09E" stop-opacity="0"/>
      <stop offset="0.2673" stop-color="#FCAC9A" stop-opacity="0.267"/>
      <stop offset="0.4974" stop-color="#F3A390" stop-opacity="0.497"/>
      <stop offset="0.7138" stop-color="#E4927E" stop-opacity="0.714"/>
      <stop offset="0.9206" stop-color="#CF7B65" stop-opacity="0.921"/>
      <stop offset="1" stop-color="#C5715A"/>
    </linearGradient>
    <linearGradient id="paint32_linear_237_51567" x1="36.0001" y1="41.2228" x2="36.0001" y2="50.2657" gradientUnits="userSpaceOnUse">
      <stop stop-color="#A6E7F0"/>
      <stop offset="0.1228" stop-color="#9FE4F0"/>
      <stop offset="0.2967" stop-color="#8DDDF0"/>
      <stop offset="0.5012" stop-color="#6ED1F0"/>
      <stop offset="0.7289" stop-color="#44C0F1"/>
      <stop offset="0.9732" stop-color="#0EABF1"/>
      <stop offset="1" stop-color="#08A9F1"/>
    </linearGradient>
    <linearGradient id="paint33_linear_237_51567" x1="36.0001" y1="44.6765" x2="36.0001" y2="51.6862" gradientUnits="userSpaceOnUse">
      <stop stop-color="#0290CF" stop-opacity="0"/>
      <stop offset="0.3673" stop-color="#028ECC" stop-opacity="0.367"/>
      <stop offset="0.6836" stop-color="#0187C1" stop-opacity="0.684"/>
      <stop offset="0.9801" stop-color="#017CB0" stop-opacity="0.98"/>
      <stop offset="1" stop-color="#017BAE"/>
    </linearGradient>
    <linearGradient id="paint34_linear_237_51567" x1="64.5909" y1="39.7632" x2="71.9047" y2="40.9821" gradientUnits="userSpaceOnUse">
      <stop stop-color="#0290CF" stop-opacity="0"/>
      <stop offset="0.3673" stop-color="#028ECC" stop-opacity="0.367"/>
      <stop offset="0.6836" stop-color="#0187C1" stop-opacity="0.684"/>
      <stop offset="0.9801" stop-color="#017CB0" stop-opacity="0.98"/>
      <stop offset="1" stop-color="#017BAE"/>
    </linearGradient>
    <linearGradient id="paint35_linear_237_51567" x1="8.69143" y1="39.0018" x2="16.6189" y2="33.362" gradientUnits="userSpaceOnUse">
      <stop stop-color="#0290CF" stop-opacity="0"/>
      <stop offset="0.3673" stop-color="#028ECC" stop-opacity="0.367"/>
      <stop offset="0.6836" stop-color="#0187C1" stop-opacity="0.684"/>
      <stop offset="0.9801" stop-color="#017CB0" stop-opacity="0.98"/>
      <stop offset="1" stop-color="#017BAE"/>
    </linearGradient>
    <clipPath id="clip0_237_51567">
      <rect width="72" height="72" fill="white" transform="translate(0 0.302002)"/>
    </clipPath>
  </defs>
</svg>