<svg width="72" height="73" viewBox="0 0 72 73" fill="none" xmlns="http://www.w3.org/2000/svg">
<g clip-path="url(#clip0_237_51231)">
<path d="M70.3651 25.9879L66.5675 22.1902C61.3371 16.9598 54.2433 14.0215 46.8463 14.0215H25.1534C17.7565 14.0215 10.6627 16.9599 5.4322 22.1902L1.63526 25.9872C0.650414 26.972 0.264156 29.5118 1.249 30.4966L9.40448 38.6521C10.3893 39.637 11.4755 39.5908 12.4604 38.606L13.601 37.9083V69.7803C13.601 71.1731 14.7301 72.3021 16.1228 72.3021H55.8767C57.2695 72.3021 58.3985 71.173 58.3985 69.7803V37.9083L59.5391 38.606C60.5239 39.5908 61.8232 39.2932 62.808 38.3084L70.9635 30.1529C71.9485 29.1679 71.3499 26.9727 70.3651 25.9879Z" fill="url(#paint0_linear_237_51231)"/>
<path d="M66.5674 22.1902C61.3369 16.9598 54.2431 14.0215 46.8462 14.0215H25.1534C22.8452 14.0215 20.5663 14.3078 18.3645 14.8604V19.5255L58.3986 59.5596V37.9081L59.5392 38.6058C60.524 39.5907 62.1207 39.5907 63.1057 38.6058L71.2612 30.4503C72.2461 29.4655 72.2461 27.8688 71.2612 26.8838L66.5674 22.1902Z" fill="url(#paint1_linear_237_51231)"/>
<path d="M5.43254 22.1902L1.63602 25.9878C0.651173 26.9727 -0.046239 28.9565 0.938608 29.9413L9.09409 38.0968C10.0789 39.0816 11.4365 39.0047 12.4213 38.0199L13.6014 37.9081V16.5286C10.5899 17.8991 7.81701 19.8056 5.43254 22.1902Z" fill="url(#paint2_linear_237_51231)"/>
<path d="M66.5674 22.1902L70.3649 25.9878C71.3498 26.9727 71.7588 28.9784 70.7741 29.9632L62.6186 38.1187C61.6337 39.1035 60.5241 39.5906 59.5392 38.6059L58.3987 37.9082V16.5286C61.4101 17.8991 64.183 19.8056 66.5674 22.1902Z" fill="url(#paint3_linear_237_51231)"/>
<path d="M1.63613 25.9878L0.738244 26.8843C-0.245756 27.8683 -0.245756 29.465 0.738244 30.4504L8.89401 38.6061C9.87942 39.5901 11.5925 39.815 12.5765 38.831L13.574 37.9257L1.63613 25.9878Z" fill="url(#paint4_linear_237_51231)"/>
<path d="M71.2615 26.8843L70.3651 25.9878L58.4258 37.9257L59.449 38.8037C60.433 39.7877 62.1204 39.5901 63.1058 38.6061L71.2615 30.4504C72.2455 29.465 72.2455 27.8683 71.2615 26.8843Z" fill="url(#paint5_linear_237_51231)"/>
<path d="M25.7372 13.5137C24.4745 13.5137 23.5624 14.75 23.9661 15.9464C25.3601 20.0767 30.2194 29.2653 36 29.2653C41.7806 29.2653 46.6399 20.0767 48.0339 15.9464C48.4377 14.75 47.5255 13.5137 46.2628 13.5137H25.7372Z" fill="url(#paint6_linear_237_51231)"/>
<path d="M28.1952 13.5137C27.1525 13.5137 26.4281 14.5736 26.8303 15.5356C28.0236 18.39 31.6775 26.6078 35.9999 26.6078C40.3223 26.6078 43.9762 18.3899 45.1694 15.5356C45.5717 14.5736 44.8471 13.5137 43.8045 13.5137H28.1952Z" fill="url(#paint7_linear_237_51231)"/>
<path d="M44.3209 17.4661C43.9524 18.2609 43.5119 19.156 43.0094 20.068C41.2602 23.2402 38.767 26.6072 35.9999 26.6072C33.2329 26.6072 30.7397 23.2402 28.9905 20.068C28.4894 19.156 28.0475 18.2609 27.6804 17.4661C28.9778 16.2209 30.6748 15.5376 32.4776 15.5376H39.5223C41.3124 15.5376 43.0305 16.2294 44.3209 17.4661Z" fill="url(#paint8_linear_237_51231)"/>
<path d="M13.6011 56.9072V69.78C13.6011 71.1728 14.7302 72.3018 16.1229 72.3018H55.8768C57.2696 72.3018 58.3986 71.1727 58.3986 69.78V56.9072H13.6011Z" fill="url(#paint9_linear_237_51231)"/>
<path d="M24.0075 52.5841L23.6751 52.6738L14.4836 43.4822H13.6011V69.78C13.6011 71.1728 14.7302 72.3018 16.1229 72.3018H43.7252L24.0075 52.5841Z" fill="url(#paint10_linear_237_51231)"/>
<path d="M36.3389 0.302002C32.9015 0.302002 31.3228 2.33904 31.3228 3.71395C31.3228 4.70699 32.163 5.16525 32.8506 5.16525C34.2255 5.16525 33.6654 3.20459 36.2625 3.20459C37.5356 3.20459 38.5542 3.76478 38.5542 4.93612C38.5542 6.31104 37.1284 7.10036 36.2881 7.8133C35.5496 8.45 34.5821 9.49386 34.5821 11.6837C34.5821 13.0077 34.9386 13.3896 35.9826 13.3896C37.2303 13.3896 37.4848 12.8294 37.4848 12.3456C37.4848 11.0215 37.5104 10.2576 38.9107 9.1628C39.5982 8.62803 41.7625 6.89664 41.7625 4.50313C41.7625 2.10977 39.5981 0.302002 36.3389 0.302002Z" fill="url(#paint11_linear_237_51231)"/>
<path d="M37.6378 6.71802C37.1961 7.13378 36.6788 7.48192 36.288 7.81355C35.5495 8.45025 34.582 9.49411 34.582 11.6839C34.582 13.008 34.9385 13.3899 35.9825 13.3899C37.2302 13.3899 37.4848 12.8297 37.4848 12.3459C37.4848 11.0218 37.5103 10.2579 38.9106 9.16305C39.3614 8.81237 40.4473 7.9471 41.1415 6.71802H37.6378Z" fill="url(#paint12_linear_237_51231)"/>
<path d="M37.6339 14.5566H34.366C33.9197 14.5566 33.5579 14.1948 33.5579 13.7485V12.5308C33.5579 12.0845 33.9197 11.7227 34.366 11.7227H37.6339C38.0802 11.7227 38.442 12.0845 38.442 12.5308V13.7485C38.442 14.1948 38.0802 14.5566 37.6339 14.5566Z" fill="url(#paint13_linear_237_51231)"/>
<path d="M44.8391 16.3114C44.3816 17.3645 43.728 18.7805 42.9219 20.2248L41.0908 18.3937C40.6249 17.9278 40.0052 17.6709 39.3459 17.6709H32.6541C31.9948 17.6709 31.3751 17.9278 30.9092 18.3937L29.0781 20.2248C28.272 18.7805 27.6184 17.3631 27.1624 16.3099L27.9939 15.4784C29.2391 14.2332 30.8936 13.5471 32.6541 13.5471H39.3459C41.0936 13.5471 42.7694 14.2417 44.0061 15.4784L44.8391 16.3114Z" fill="url(#paint14_linear_237_51231)"/>
<path d="M44.1812 17.7641C43.8212 18.5292 43.3977 19.3721 42.9219 20.2248L41.0908 18.3937C40.625 17.9278 40.0052 17.6709 39.3459 17.6709H32.6541C31.9948 17.6709 31.3751 17.9278 30.9092 18.3937L29.0781 20.2248C28.6024 19.3721 28.1788 18.5278 27.8188 17.7641L27.9939 17.589C29.2391 16.3438 30.8937 15.6577 32.6541 15.6577H39.3459C41.0937 15.6577 42.7694 16.3523 44.0061 17.589L44.1812 17.7641Z" fill="url(#paint15_linear_237_51231)"/>
<path d="M13.4404 62.7511C11.4014 58.7356 8.03465 55.5082 3.91667 53.6492C3.46039 53.4432 3.46039 52.7904 3.91667 52.5844C8.03465 50.7254 11.4014 47.498 13.4404 43.4825C13.6574 43.055 14.2665 43.055 14.4836 43.4825C16.5226 47.498 19.8894 50.7254 24.0074 52.5844C24.4636 52.7904 24.4636 53.4433 24.0074 53.6492C19.8894 55.5082 16.5226 58.7356 14.4836 62.7511C14.2665 63.1786 13.6574 63.1786 13.4404 62.7511Z" fill="url(#paint16_linear_237_51231)"/>
<path d="M18.2405 19.3811C16.8458 16.6343 14.5429 14.4269 11.726 13.1552C11.4139 13.0143 11.4139 12.5677 11.726 12.4269C14.5428 11.1553 16.8457 8.9477 18.2405 6.20097C18.389 5.9086 18.8055 5.9086 18.954 6.20097C20.3487 8.9477 22.6517 11.1551 25.4685 12.4269C25.7806 12.5677 25.7806 13.0143 25.4685 13.1552C22.6517 14.4268 20.3488 16.6343 18.954 19.3811C18.8055 19.6734 18.3889 19.6734 18.2405 19.3811Z" fill="url(#paint17_linear_237_51231)"/>
<path d="M60.9295 62.8674C59.5348 60.1207 57.2318 57.9132 54.415 56.6415C54.1029 56.5006 54.1029 56.0541 54.415 55.9132C57.2318 54.6416 59.5346 52.434 60.9295 49.6873C61.078 49.3949 61.4944 49.3949 61.643 49.6873C63.0376 52.434 65.3407 54.6415 68.1574 55.9132C68.4696 56.0541 68.4696 56.5006 68.1574 56.6415C65.3407 57.9131 63.0378 60.1207 61.643 62.8674C61.4944 63.1598 61.0778 63.1598 60.9295 62.8674Z" fill="url(#paint18_linear_237_51231)"/>
</g>
<defs>
<linearGradient id="paint0_linear_237_51231" x1="18.9513" y1="25.3745" x2="60.4059" y2="66.8291" gradientUnits="userSpaceOnUse">
<stop stop-color="#FEDF30"/>
<stop offset="1" stop-color="#FE7701"/>
</linearGradient>
<linearGradient id="paint1_linear_237_51231" x1="34.2079" y1="12.5997" x2="24.6466" y2="3.03852" gradientUnits="userSpaceOnUse">
<stop stop-color="#FEA613" stop-opacity="0"/>
<stop offset="1" stop-color="#E94444"/>
</linearGradient>
<linearGradient id="paint2_linear_237_51231" x1="7.03207" y1="25.5109" x2="7.03207" y2="38.4689" gradientUnits="userSpaceOnUse">
<stop stop-color="#FEA613" stop-opacity="0"/>
<stop offset="1" stop-color="#E94444"/>
</linearGradient>
<linearGradient id="paint3_linear_237_51231" x1="64.8689" y1="25.6505" x2="64.8689" y2="38.81" gradientUnits="userSpaceOnUse">
<stop stop-color="#FEA613" stop-opacity="0"/>
<stop offset="1" stop-color="#E94444"/>
</linearGradient>
<linearGradient id="paint4_linear_237_51231" x1="7.3381" y1="32.223" x2="4.18126" y2="35.3797" gradientUnits="userSpaceOnUse">
<stop stop-color="#EAF6FF"/>
<stop offset="1" stop-color="#B3DAFE"/>
</linearGradient>
<linearGradient id="paint5_linear_237_51231" x1="64.2852" y1="31.8465" x2="67.4385" y2="34.9998" gradientUnits="userSpaceOnUse">
<stop stop-color="#EAF6FF"/>
<stop offset="1" stop-color="#B3DAFE"/>
</linearGradient>
<linearGradient id="paint6_linear_237_51231" x1="36" y1="16.2621" x2="36" y2="32.0432" gradientUnits="userSpaceOnUse">
<stop stop-color="#EAF6FF"/>
<stop offset="1" stop-color="#B3DAFE"/>
</linearGradient>
<linearGradient id="paint7_linear_237_51231" x1="35.9999" y1="47.0013" x2="35.9999" y2="16.1744" gradientUnits="userSpaceOnUse">
<stop stop-color="#EAF6FF"/>
<stop offset="1" stop-color="#B3DAFE"/>
</linearGradient>
<linearGradient id="paint8_linear_237_51231" x1="36.0007" y1="22.7019" x2="36.0007" y2="17.0499" gradientUnits="userSpaceOnUse">
<stop stop-color="#D8ECFE" stop-opacity="0"/>
<stop offset="1" stop-color="#678D98"/>
</linearGradient>
<linearGradient id="paint9_linear_237_51231" x1="36" y1="67.634" x2="36" y2="74.625" gradientUnits="userSpaceOnUse">
<stop stop-color="#FEA613" stop-opacity="0"/>
<stop offset="1" stop-color="#E94444"/>
</linearGradient>
<linearGradient id="paint10_linear_237_51231" x1="31.5203" y1="64.2161" x2="8.01444" y2="55.1808" gradientUnits="userSpaceOnUse">
<stop stop-color="#FEA613" stop-opacity="0"/>
<stop offset="1" stop-color="#E94444"/>
</linearGradient>
<linearGradient id="paint11_linear_237_51231" x1="32.3035" y1="1.97254" x2="40.2581" y2="9.92699" gradientUnits="userSpaceOnUse">
<stop stop-color="#EAF6FF"/>
<stop offset="1" stop-color="#B3DAFE"/>
</linearGradient>
<linearGradient id="paint12_linear_237_51231" x1="37.8618" y1="9.1903" x2="37.8618" y2="11.8436" gradientUnits="userSpaceOnUse">
<stop stop-color="#D8ECFE" stop-opacity="0"/>
<stop offset="1" stop-color="#678D98"/>
</linearGradient>
<linearGradient id="paint13_linear_237_51231" x1="34.363" y1="11.5027" x2="37.6788" y2="14.8185" gradientUnits="userSpaceOnUse">
<stop stop-color="#5A5A5A"/>
<stop offset="1" stop-color="#444444"/>
</linearGradient>
<linearGradient id="paint14_linear_237_51231" x1="36.0007" y1="12.9584" x2="36.0007" y2="20.2908" gradientUnits="userSpaceOnUse">
<stop stop-color="#FFDFCF"/>
<stop offset="1" stop-color="#FFA78F"/>
</linearGradient>
<linearGradient id="paint15_linear_237_51231" x1="36" y1="17.8126" x2="36" y2="14.3298" gradientUnits="userSpaceOnUse">
<stop stop-color="#F89580" stop-opacity="0"/>
<stop offset="0.9972" stop-color="#C5715A"/>
</linearGradient>
<linearGradient id="paint16_linear_237_51231" x1="9.27983" y1="48.4347" x2="20.5367" y2="59.6915" gradientUnits="userSpaceOnUse">
<stop stop-color="#ADE194"/>
<stop offset="1" stop-color="#97D729"/>
</linearGradient>
<linearGradient id="paint17_linear_237_51231" x1="17.1928" y1="11.3867" x2="24.8891" y2="19.083" gradientUnits="userSpaceOnUse">
<stop stop-color="#ADE194"/>
<stop offset="1" stop-color="#97D729"/>
</linearGradient>
<linearGradient id="paint18_linear_237_51231" x1="59.9809" y1="54.9721" x2="67.1241" y2="62.1155" gradientUnits="userSpaceOnUse">
<stop stop-color="#ADE194"/>
<stop offset="1" stop-color="#97D729"/>
</linearGradient>
<clipPath id="clip0_237_51231">
<rect width="72" height="72" fill="white" transform="translate(0 0.302002)"/>
</clipPath>
</defs>
</svg>
