<svg xmlns="http://www.w3.org/2000/svg" width="72" height="73" viewBox="0 0 72 73" fill="none">
  <path d="M13.6126 60.7145C13.6126 62.3738 12.2626 63.7238 10.6032 63.7238H9.07041C7.41104 63.7238 6.06104 62.3738 6.06104 60.7145C6.06104 59.0551 7.41104 57.7051 9.07041 57.7051H10.6032C12.2626 57.7051 13.6126 59.0551 13.6126 60.7145Z" fill="url(#paint0_linear_237_51482)"/>
  <path d="M65.9393 60.7145C65.9393 62.3738 64.5893 63.7238 62.9299 63.7238H61.3971C59.7377 63.7238 58.3877 62.3738 58.3877 60.7145C58.3877 59.0551 59.7377 57.7051 61.3971 57.7051H62.9299C64.5893 57.7051 65.9393 59.0551 65.9393 60.7145Z" fill="url(#paint1_linear_237_51482)"/>
  <path d="M2.67188 8.88013H69.3281C70.8047 8.88013 72 10.0754 72 11.552V57.5083C72 58.9848 70.8047 60.1801 69.3281 60.1801H2.67188C1.19531 60.1801 0 58.9848 0 57.5083V11.552C0 10.0754 1.19531 8.88013 2.67188 8.88013Z" fill="url(#paint2_linear_237_51482)"/>
  <path d="M0 32.8989V57.4942C0 58.9708 1.19531 60.1661 2.67188 60.1661H69.3281C70.8047 60.1661 72 58.9708 72 57.4942V32.8989H0Z" fill="url(#paint3_linear_237_51482)"/>
  <path d="M69.3282 8.88013H41.9485V60.1801H69.3282C70.8047 60.1801 72 58.9848 72 57.5083V11.552C72 10.0754 70.8047 8.88013 69.3282 8.88013Z" fill="url(#paint4_linear_237_51482)"/>
  <path d="M59.6672 47.5662H68.3157C68.7797 47.5662 69.1594 47.9458 69.1594 48.4099C69.1594 48.874 68.7797 49.2537 68.3157 49.2537H59.6672C59.2032 49.2537 58.8235 48.874 58.8235 48.4099C58.8235 47.9458 59.2032 47.5662 59.6672 47.5662Z" fill="url(#paint5_linear_237_51482)"/>
  <path d="M59.6672 50.5334H68.3157C68.7797 50.5334 69.1594 50.9131 69.1594 51.3772C69.1594 51.8413 68.7797 52.2209 68.3157 52.2209H59.6672C59.2032 52.2209 58.8235 51.8413 58.8235 51.3772C58.8235 50.9131 59.2032 50.5334 59.6672 50.5334Z" fill="url(#paint6_linear_237_51482)"/>
  <path d="M59.6672 53.5005H68.3157C68.7797 53.5005 69.1594 53.8802 69.1594 54.3442C69.1594 54.8083 68.7797 55.188 68.3157 55.188H59.6672C59.2032 55.188 58.8235 54.8083 58.8235 54.3442C58.8235 53.8802 59.2032 53.5005 59.6672 53.5005Z" fill="url(#paint7_linear_237_51482)"/>
  <path d="M69.3282 8.88013H55.9829V60.1801H69.3282C70.8048 60.1801 72.0001 58.9848 72.0001 57.5083V11.552C72.0001 10.0754 70.8048 8.88013 69.3282 8.88013Z" fill="url(#paint8_linear_237_51482)"/>
  <path d="M41.9485 8.88013H55.9829V60.1801H41.9485V8.88013Z" fill="url(#paint9_linear_237_51482)"/>
  <path d="M54.2249 14.8567V54.1895C54.2249 55.5114 53.1562 56.5801 51.8343 56.5801H4.62647C3.30459 56.5801 2.23584 55.5114 2.23584 54.1895V14.8567C2.23584 13.5348 3.30459 12.4661 4.62647 12.4661H51.8343C53.1562 12.4661 54.2249 13.5348 54.2249 14.8567Z" fill="url(#paint10_linear_237_51482)"/>
  <path d="M4.62647 13.8723H51.8343C52.3827 13.8723 52.8187 14.3083 52.8187 14.8567V54.1895C52.8187 54.7379 52.3827 55.1739 51.8343 55.1739H4.62647C4.07803 55.1739 3.64209 54.7379 3.64209 54.1895V14.8567C3.65615 14.3223 4.09209 13.8723 4.62647 13.8723Z" fill="url(#paint11_linear_237_51482)"/>
  <path d="M24.8483 13.8723H4.62647C4.07803 13.8723 3.64209 14.3083 3.64209 14.8567V54.1895C3.64209 54.7379 4.07803 55.1739 4.62647 55.1739H24.8483V13.8723Z" fill="url(#paint12_linear_237_51482)"/>
  <path d="M51.8343 13.8723H4.62647C4.07803 13.8723 3.64209 14.3083 3.64209 14.8567V32.8989H52.8187V14.8567C52.8187 14.3223 52.3827 13.8723 51.8343 13.8723Z" fill="url(#paint13_linear_237_51482)"/>
  <path d="M51.8344 13.8723H27.8438L3.65625 38.0739V54.2036C3.65625 54.752 4.09219 55.1879 4.64062 55.1879H51.8484C52.3969 55.1879 52.8328 54.752 52.8328 54.2036V14.8567C52.8188 14.3223 52.3828 13.8723 51.8344 13.8723Z" fill="url(#paint14_linear_237_51482)"/>
  <path d="M51.8344 55.1879C52.3829 55.1879 52.8188 54.752 52.8188 54.2036V14.8567C52.8188 14.3083 52.3829 13.8723 51.8344 13.8723H51.2579L9.9563 55.1879H51.8344Z" fill="url(#paint15_linear_237_51482)"/>
  <path d="M59.8219 13.8723H68.175C68.7234 13.8723 69.1594 14.3083 69.1594 14.8567V26.2192C69.1594 26.7676 68.7234 27.2036 68.175 27.2036H59.8219C59.2734 27.2036 58.8375 26.7676 58.8375 26.2192V14.8567C58.8234 14.3223 59.2734 13.8723 59.8219 13.8723Z" fill="url(#paint16_linear_237_51482)"/>
  <path d="M63.9844 13.8723V27.2176H59.8079C59.2594 27.2176 58.8235 26.7676 58.8235 26.2333V14.8708C58.8235 14.3223 59.2594 13.8864 59.8079 13.8864C59.8219 13.8723 63.9844 13.8723 63.9844 13.8723Z" fill="url(#paint17_linear_237_51482)"/>
  <path d="M68.161 13.8723H59.8079C59.2594 13.8723 58.8235 14.3083 58.8235 14.8567V21.1004H69.1454V14.8567C69.1454 14.3223 68.7094 13.8723 68.161 13.8723Z" fill="url(#paint18_linear_237_51482)"/>
  <path d="M63.0421 30.6068C63.0421 31.5349 62.2968 32.2802 61.3687 32.2802H60.5108C59.5827 32.2802 58.8374 31.5349 58.8374 30.6068C58.8374 29.6787 59.5827 28.9333 60.5108 28.9333H61.3687C62.2827 28.9333 63.0421 29.6787 63.0421 30.6068Z" fill="url(#paint19_linear_237_51482)"/>
  <path d="M69.1451 30.6068C69.1451 31.5349 68.3998 32.2802 67.4717 32.2802H66.6139C65.6857 32.2802 64.9404 31.5349 64.9404 30.6068C64.9404 29.6787 65.6857 28.9333 66.6139 28.9333H67.4717C68.3998 28.9333 69.1451 29.6787 69.1451 30.6068Z" fill="url(#paint20_linear_237_51482)"/>
  <path d="M63.0421 35.0504C63.0421 35.9785 62.2968 36.7238 61.3687 36.7238H60.5108C59.5827 36.7238 58.8374 35.9785 58.8374 35.0504C58.8374 34.1223 59.5827 33.377 60.5108 33.377H61.3687C62.2827 33.377 63.0421 34.1223 63.0421 35.0504Z" fill="url(#paint21_linear_237_51482)"/>
  <path d="M69.1451 35.0504C69.1451 35.9785 68.3998 36.7238 67.4717 36.7238H66.6139C65.6857 36.7238 64.9404 35.9785 64.9404 35.0504C64.9404 34.1223 65.6857 33.377 66.6139 33.377H67.4717C68.3998 33.377 69.1451 34.1223 69.1451 35.0504Z" fill="url(#paint22_linear_237_51482)"/>
  <path d="M63.0421 39.4942C63.0421 40.4223 62.2968 41.1676 61.3687 41.1676H60.5108C59.5827 41.1676 58.8374 40.4223 58.8374 39.4942C58.8374 38.5661 59.5827 37.8207 60.5108 37.8207H61.3687C62.2827 37.8067 63.0421 38.5661 63.0421 39.4942Z" fill="url(#paint23_linear_237_51482)"/>
  <path d="M69.1451 39.4942C69.1451 40.4223 68.3998 41.1676 67.4717 41.1676H66.6139C65.6857 41.1676 64.9404 40.4223 64.9404 39.4942C64.9404 38.5661 65.6857 37.8207 66.6139 37.8207H67.4717C68.3998 37.8067 69.1451 38.5661 69.1451 39.4942Z" fill="url(#paint24_linear_237_51482)"/>
  <path d="M66.4172 19.6801C66.4172 19.5958 66.4032 19.4973 66.3891 19.3708C66.3751 19.2442 66.3329 19.1317 66.2485 19.0051C66.1782 18.8926 66.0657 18.7801 65.925 18.6958C65.7844 18.6114 65.5876 18.5692 65.3204 18.5692C64.9688 18.5692 64.7016 18.6676 64.5047 18.8645C64.3079 19.0614 64.2235 19.3708 64.2235 19.7926V23.027C64.2235 23.4489 64.3219 23.7442 64.5047 23.9551C64.7016 24.152 64.9688 24.2504 65.3344 24.2504C65.5735 24.2504 65.7704 24.2083 65.911 24.1239C66.0516 24.0395 66.1501 23.9411 66.2344 23.8145C66.3047 23.6879 66.361 23.5614 66.3751 23.4208C66.3891 23.2801 66.4032 23.1395 66.4172 23.027C66.4313 22.802 66.5297 22.6473 66.7125 22.5629C66.8954 22.4926 67.1063 22.4504 67.3594 22.4504C67.6969 22.4504 67.936 22.5067 68.0907 22.6333C68.2454 22.7458 68.3297 22.9989 68.3297 23.3645C68.3297 23.7723 68.2454 24.1379 68.0907 24.4473C67.936 24.7708 67.7251 25.0379 67.4438 25.2489C67.1626 25.4598 66.8391 25.6286 66.4735 25.7411C66.1079 25.8536 65.7001 25.9098 65.2641 25.9098C64.8704 25.9098 64.4907 25.8536 64.1391 25.7551C63.7876 25.6567 63.4782 25.4879 63.211 25.2489C62.9438 25.0098 62.7329 24.7145 62.5782 24.3629C62.4235 23.9973 62.3391 23.5473 62.3391 23.027V19.7926C62.3391 19.2723 62.4235 18.8223 62.5782 18.4567C62.7329 18.0911 62.9438 17.7958 63.211 17.5567C63.4782 17.3176 63.7876 17.1629 64.1391 17.0504C64.4907 16.952 64.8704 16.8958 65.2641 16.8958C65.7001 16.8958 66.1079 16.952 66.4735 17.0504C66.8391 17.1629 67.1626 17.3176 67.4438 17.5145C67.7251 17.7254 67.936 17.9786 68.0907 18.2739C68.2454 18.5692 68.3297 18.9208 68.3297 19.3145C68.3297 19.6801 68.2454 19.9192 68.0907 20.0458C67.936 20.1583 67.6969 20.2286 67.3735 20.2286C67.1063 20.2286 66.8954 20.1864 66.7125 20.102C66.5438 20.0458 66.4454 19.9051 66.4172 19.6801Z" fill="url(#paint25_linear_237_51482)"/>
  <path d="M61.2704 15.166C60.3704 15.166 59.6392 15.8973 59.6392 16.7973C59.6392 17.6973 60.3704 18.4285 61.2704 18.4285C62.1704 18.4285 62.9017 17.6973 62.9017 16.7973C62.9017 15.8973 62.1704 15.166 61.2704 15.166ZM61.2704 17.3176C60.9751 17.3176 60.736 17.0785 60.736 16.7832C60.736 16.4879 60.9751 16.2488 61.2704 16.2488C61.5657 16.2488 61.8048 16.4879 61.8048 16.7832C61.8048 17.0785 61.5657 17.3176 61.2704 17.3176Z" fill="url(#paint26_linear_237_51482)"/>
  <defs>
    <linearGradient id="paint0_linear_237_51482" x1="7.06861" y1="57.9462" x2="10.8991" y2="61.7767" gradientUnits="userSpaceOnUse">
      <stop stop-color="#766E6E"/>
      <stop offset="0.2493" stop-color="#716B6B"/>
      <stop offset="0.5076" stop-color="#656464"/>
      <stop offset="0.769" stop-color="#505757"/>
      <stop offset="1" stop-color="#384949"/>
    </linearGradient>
    <linearGradient id="paint1_linear_237_51482" x1="59.3979" y1="57.9463" x2="63.2284" y2="61.7767" gradientUnits="userSpaceOnUse">
      <stop stop-color="#766E6E"/>
      <stop offset="0.2493" stop-color="#716B6B"/>
      <stop offset="0.5076" stop-color="#656464"/>
      <stop offset="0.769" stop-color="#505757"/>
      <stop offset="1" stop-color="#384949"/>
    </linearGradient>
    <linearGradient id="paint2_linear_237_51482" x1="21.8742" y1="6.37897" x2="50.1439" y2="62.7181" gradientUnits="userSpaceOnUse">
      <stop stop-color="#B6C4CF"/>
      <stop offset="0.3084" stop-color="#B1BFCB"/>
      <stop offset="0.6279" stop-color="#A5B3BF"/>
      <stop offset="0.9515" stop-color="#909FAB"/>
      <stop offset="1" stop-color="#8D9CA8"/>
    </linearGradient>
    <linearGradient id="paint3_linear_237_51482" x1="36" y1="52.1838" x2="36" y2="62.6116" gradientUnits="userSpaceOnUse">
      <stop stop-color="#596C76" stop-opacity="0"/>
      <stop offset="0.179" stop-color="#596C76" stop-opacity="0.035"/>
      <stop offset="0.3646" stop-color="#596C76" stop-opacity="0.141"/>
      <stop offset="0.5532" stop-color="#596C76" stop-opacity="0.316"/>
      <stop offset="0.7438" stop-color="#596C76" stop-opacity="0.563"/>
      <stop offset="0.9342" stop-color="#596C76" stop-opacity="0.876"/>
      <stop offset="1" stop-color="#596C76"/>
    </linearGradient>
    <linearGradient id="paint4_linear_237_51482" x1="63.7978" y1="34.5305" x2="73.2297" y2="34.5305" gradientUnits="userSpaceOnUse">
      <stop stop-color="#596C76" stop-opacity="0"/>
      <stop offset="0.179" stop-color="#596C76" stop-opacity="0.035"/>
      <stop offset="0.3646" stop-color="#596C76" stop-opacity="0.141"/>
      <stop offset="0.5532" stop-color="#596C76" stop-opacity="0.316"/>
      <stop offset="0.7438" stop-color="#596C76" stop-opacity="0.563"/>
      <stop offset="0.9342" stop-color="#596C76" stop-opacity="0.876"/>
      <stop offset="1" stop-color="#596C76"/>
    </linearGradient>
    <linearGradient id="paint5_linear_237_51482" x1="63.9892" y1="49.1361" x2="63.9892" y2="47.7262" gradientUnits="userSpaceOnUse">
      <stop stop-color="#B6C4CF"/>
      <stop offset="0.3084" stop-color="#B1BFCB"/>
      <stop offset="0.6279" stop-color="#A5B3BF"/>
      <stop offset="0.9515" stop-color="#909FAB"/>
      <stop offset="1" stop-color="#8D9CA8"/>
    </linearGradient>
    <linearGradient id="paint6_linear_237_51482" x1="63.9892" y1="52.1073" x2="63.9892" y2="50.6976" gradientUnits="userSpaceOnUse">
      <stop stop-color="#B6C4CF"/>
      <stop offset="0.3084" stop-color="#B1BFCB"/>
      <stop offset="0.6279" stop-color="#A5B3BF"/>
      <stop offset="0.9515" stop-color="#909FAB"/>
      <stop offset="1" stop-color="#8D9CA8"/>
    </linearGradient>
    <linearGradient id="paint7_linear_237_51482" x1="63.9892" y1="55.0784" x2="63.9892" y2="53.6687" gradientUnits="userSpaceOnUse">
      <stop stop-color="#B6C4CF"/>
      <stop offset="0.3084" stop-color="#B1BFCB"/>
      <stop offset="0.6279" stop-color="#A5B3BF"/>
      <stop offset="0.9515" stop-color="#909FAB"/>
      <stop offset="1" stop-color="#8D9CA8"/>
    </linearGradient>
    <linearGradient id="paint8_linear_237_51482" x1="40.1896" y1="34.5305" x2="76.5639" y2="34.5305" gradientUnits="userSpaceOnUse">
      <stop stop-color="#596C76" stop-opacity="0"/>
      <stop offset="0.179" stop-color="#596C76" stop-opacity="0.035"/>
      <stop offset="0.3646" stop-color="#596C76" stop-opacity="0.141"/>
      <stop offset="0.5532" stop-color="#596C76" stop-opacity="0.316"/>
      <stop offset="0.7438" stop-color="#596C76" stop-opacity="0.563"/>
      <stop offset="0.9342" stop-color="#596C76" stop-opacity="0.876"/>
      <stop offset="1" stop-color="#596C76"/>
    </linearGradient>
    <linearGradient id="paint9_linear_237_51482" x1="49.262" y1="34.5305" x2="58.3928" y2="34.5305" gradientUnits="userSpaceOnUse">
      <stop stop-color="#596C76" stop-opacity="0"/>
      <stop offset="0.179" stop-color="#596C76" stop-opacity="0.035"/>
      <stop offset="0.3646" stop-color="#596C76" stop-opacity="0.141"/>
      <stop offset="0.5532" stop-color="#596C76" stop-opacity="0.316"/>
      <stop offset="0.7438" stop-color="#596C76" stop-opacity="0.563"/>
      <stop offset="0.9342" stop-color="#596C76" stop-opacity="0.876"/>
      <stop offset="1" stop-color="#596C76"/>
    </linearGradient>
    <linearGradient id="paint10_linear_237_51482" x1="60.131" y1="66.4267" x2="3.91786" y2="10.2134" gradientUnits="userSpaceOnUse">
      <stop stop-color="#B6C4CF"/>
      <stop offset="0.3084" stop-color="#B1BFCB"/>
      <stop offset="0.6279" stop-color="#A5B3BF"/>
      <stop offset="0.9515" stop-color="#909FAB"/>
      <stop offset="1" stop-color="#8D9CA8"/>
    </linearGradient>
    <linearGradient id="paint11_linear_237_51482" x1="8.77926" y1="15.0748" x2="44.507" y2="50.8027" gradientUnits="userSpaceOnUse">
      <stop stop-color="#766E6E"/>
      <stop offset="0.2493" stop-color="#716B6B"/>
      <stop offset="0.5076" stop-color="#656464"/>
      <stop offset="0.769" stop-color="#505757"/>
      <stop offset="1" stop-color="#384949"/>
    </linearGradient>
    <linearGradient id="paint12_linear_237_51482" x1="9.8144" y1="34.5305" x2="1.99509" y2="34.5305" gradientUnits="userSpaceOnUse">
      <stop stop-color="#464646" stop-opacity="0"/>
      <stop offset="0.6727" stop-color="#252529" stop-opacity="0.463"/>
      <stop offset="1" stop-color="#000009"/>
    </linearGradient>
    <linearGradient id="paint13_linear_237_51482" x1="28.2349" y1="22.9115" x2="28.2349" y2="11.4202" gradientUnits="userSpaceOnUse">
      <stop stop-color="#464646" stop-opacity="0"/>
      <stop offset="0.6727" stop-color="#252529" stop-opacity="0.463"/>
      <stop offset="1" stop-color="#000009"/>
    </linearGradient>
    <linearGradient id="paint14_linear_237_51482" x1="27.1202" y1="31.2374" x2="16.1932" y2="-1.04237" gradientUnits="userSpaceOnUse">
      <stop stop-color="white" stop-opacity="0"/>
      <stop offset="0.1205" stop-color="white" stop-opacity="0.016"/>
      <stop offset="0.2454" stop-color="white" stop-opacity="0.065"/>
      <stop offset="0.3724" stop-color="white" stop-opacity="0.147"/>
      <stop offset="0.5008" stop-color="white" stop-opacity="0.261"/>
      <stop offset="0.6304" stop-color="white" stop-opacity="0.408"/>
      <stop offset="0.761" stop-color="white" stop-opacity="0.588"/>
      <stop offset="0.8898" stop-color="white" stop-opacity="0.797"/>
      <stop offset="1" stop-color="white"/>
    </linearGradient>
    <linearGradient id="paint15_linear_237_51482" x1="42.3165" y1="39.5635" x2="-10.7647" y2="15.9553" gradientUnits="userSpaceOnUse">
      <stop stop-color="white" stop-opacity="0"/>
      <stop offset="0.1205" stop-color="white" stop-opacity="0.016"/>
      <stop offset="0.2454" stop-color="white" stop-opacity="0.065"/>
      <stop offset="0.3724" stop-color="white" stop-opacity="0.147"/>
      <stop offset="0.5008" stop-color="white" stop-opacity="0.261"/>
      <stop offset="0.6304" stop-color="white" stop-opacity="0.408"/>
      <stop offset="0.761" stop-color="white" stop-opacity="0.588"/>
      <stop offset="0.8898" stop-color="white" stop-opacity="0.797"/>
      <stop offset="1" stop-color="white"/>
    </linearGradient>
    <linearGradient id="paint16_linear_237_51482" x1="57.9354" y1="16.1829" x2="70.6334" y2="25.3389" gradientUnits="userSpaceOnUse">
      <stop stop-color="#99E6FC"/>
      <stop offset="0.1572" stop-color="#94E3FC"/>
      <stop offset="0.3201" stop-color="#88DBFC"/>
      <stop offset="0.4856" stop-color="#73CDFC"/>
      <stop offset="0.6531" stop-color="#56BAFC"/>
      <stop offset="0.8219" stop-color="#31A1FC"/>
      <stop offset="0.9897" stop-color="#0483FC"/>
      <stop offset="1" stop-color="#0182FC"/>
    </linearGradient>
    <linearGradient id="paint17_linear_237_51482" x1="61.2248" y1="20.5482" x2="57.9501" y2="20.5482" gradientUnits="userSpaceOnUse">
      <stop stop-color="#0172FB" stop-opacity="0"/>
      <stop offset="0.1214" stop-color="#0172FB" stop-opacity="0.017"/>
      <stop offset="0.2474" stop-color="#0172FB" stop-opacity="0.066"/>
      <stop offset="0.3754" stop-color="#0172FB" stop-opacity="0.149"/>
      <stop offset="0.5049" stop-color="#0172FB" stop-opacity="0.265"/>
      <stop offset="0.6355" stop-color="#0172FB" stop-opacity="0.414"/>
      <stop offset="0.7672" stop-color="#0172FB" stop-opacity="0.598"/>
      <stop offset="0.897" stop-color="#0172FB" stop-opacity="0.81"/>
      <stop offset="1" stop-color="#0172FB"/>
    </linearGradient>
    <linearGradient id="paint18_linear_237_51482" x1="63.9893" y1="16.0948" x2="63.9893" y2="13.511" gradientUnits="userSpaceOnUse">
      <stop stop-color="#0172FB" stop-opacity="0"/>
      <stop offset="0.1214" stop-color="#0172FB" stop-opacity="0.017"/>
      <stop offset="0.2474" stop-color="#0172FB" stop-opacity="0.066"/>
      <stop offset="0.3754" stop-color="#0172FB" stop-opacity="0.149"/>
      <stop offset="0.5049" stop-color="#0172FB" stop-opacity="0.265"/>
      <stop offset="0.6355" stop-color="#0172FB" stop-opacity="0.414"/>
      <stop offset="0.7672" stop-color="#0172FB" stop-opacity="0.598"/>
      <stop offset="0.897" stop-color="#0172FB" stop-opacity="0.81"/>
      <stop offset="1" stop-color="#0172FB"/>
    </linearGradient>
    <linearGradient id="paint19_linear_237_51482" x1="59.3887" y1="29.0654" x2="61.5242" y2="31.2008" gradientUnits="userSpaceOnUse">
      <stop stop-color="#766E6E"/>
      <stop offset="0.2493" stop-color="#716B6B"/>
      <stop offset="0.5076" stop-color="#656464"/>
      <stop offset="0.769" stop-color="#505757"/>
      <stop offset="1" stop-color="#384949"/>
    </linearGradient>
    <linearGradient id="paint20_linear_237_51482" x1="65.5042" y1="29.0654" x2="67.6397" y2="31.2008" gradientUnits="userSpaceOnUse">
      <stop stop-color="#766E6E"/>
      <stop offset="0.2493" stop-color="#716B6B"/>
      <stop offset="0.5076" stop-color="#656464"/>
      <stop offset="0.769" stop-color="#505757"/>
      <stop offset="1" stop-color="#384949"/>
    </linearGradient>
    <linearGradient id="paint21_linear_237_51482" x1="59.3887" y1="33.5055" x2="61.5242" y2="35.6409" gradientUnits="userSpaceOnUse">
      <stop stop-color="#766E6E"/>
      <stop offset="0.2493" stop-color="#716B6B"/>
      <stop offset="0.5076" stop-color="#656464"/>
      <stop offset="0.769" stop-color="#505757"/>
      <stop offset="1" stop-color="#384949"/>
    </linearGradient>
    <linearGradient id="paint22_linear_237_51482" x1="65.5042" y1="33.5055" x2="67.6397" y2="35.6409" gradientUnits="userSpaceOnUse">
      <stop stop-color="#766E6E"/>
      <stop offset="0.2493" stop-color="#716B6B"/>
      <stop offset="0.5076" stop-color="#656464"/>
      <stop offset="0.769" stop-color="#505757"/>
      <stop offset="1" stop-color="#384949"/>
    </linearGradient>
    <linearGradient id="paint23_linear_237_51482" x1="59.3887" y1="37.9458" x2="61.5242" y2="40.0812" gradientUnits="userSpaceOnUse">
      <stop stop-color="#766E6E"/>
      <stop offset="0.2493" stop-color="#716B6B"/>
      <stop offset="0.5076" stop-color="#656464"/>
      <stop offset="0.769" stop-color="#505757"/>
      <stop offset="1" stop-color="#384949"/>
    </linearGradient>
    <linearGradient id="paint24_linear_237_51482" x1="65.5042" y1="37.9458" x2="67.6397" y2="40.0812" gradientUnits="userSpaceOnUse">
      <stop stop-color="#766E6E"/>
      <stop offset="0.2493" stop-color="#716B6B"/>
      <stop offset="0.5076" stop-color="#656464"/>
      <stop offset="0.769" stop-color="#505757"/>
      <stop offset="1" stop-color="#384949"/>
    </linearGradient>
    <linearGradient id="paint25_linear_237_51482" x1="53.6062" y1="11.7977" x2="70.715" y2="25.8323" gradientUnits="userSpaceOnUse">
      <stop stop-color="#0172FB" stop-opacity="0"/>
      <stop offset="0.1214" stop-color="#0172FB" stop-opacity="0.017"/>
      <stop offset="0.2474" stop-color="#0172FB" stop-opacity="0.066"/>
      <stop offset="0.3754" stop-color="#0172FB" stop-opacity="0.149"/>
      <stop offset="0.5049" stop-color="#0172FB" stop-opacity="0.265"/>
      <stop offset="0.6355" stop-color="#0172FB" stop-opacity="0.414"/>
      <stop offset="0.7672" stop-color="#0172FB" stop-opacity="0.598"/>
      <stop offset="0.897" stop-color="#0172FB" stop-opacity="0.81"/>
      <stop offset="1" stop-color="#0172FB"/>
    </linearGradient>
    <linearGradient id="paint26_linear_237_51482" x1="54.2403" y1="11.0246" x2="71.3491" y2="25.0593" gradientUnits="userSpaceOnUse">
      <stop stop-color="#0172FB" stop-opacity="0"/>
      <stop offset="0.1214" stop-color="#0172FB" stop-opacity="0.017"/>
      <stop offset="0.2474" stop-color="#0172FB" stop-opacity="0.066"/>
      <stop offset="0.3754" stop-color="#0172FB" stop-opacity="0.149"/>
      <stop offset="0.5049" stop-color="#0172FB" stop-opacity="0.265"/>
      <stop offset="0.6355" stop-color="#0172FB" stop-opacity="0.414"/>
      <stop offset="0.7672" stop-color="#0172FB" stop-opacity="0.598"/>
      <stop offset="0.897" stop-color="#0172FB" stop-opacity="0.81"/>
      <stop offset="1" stop-color="#0172FB"/>
    </linearGradient>
  </defs>
</svg>