<svg xmlns="http://www.w3.org/2000/svg" width="24" height="24" viewBox="0 0 24 24" fill="none">
  <path d="M22 6C22 4.89543 21.1046 4 20 4H4C2.89543 4 2 4.89543 2 6V18C2 19.1046 2.89543 20 4 20H20C21.1046 20 22 19.1046 22 18V6ZM20 7.53C20 7.82238 19.8494 8.09414 19.6014 8.2491L13.06 12.3375C12.4115 12.7428 11.5885 12.7428 10.94 12.3375L4.39856 8.2491C4.15062 8.09414 4 7.82238 4 7.53C4 6.86395 4.73263 6.45789 5.29744 6.8109L10.94 10.3375C11.5885 10.7428 12.4115 10.7428 13.06 10.3375L18.7026 6.8109C19.2674 6.45789 20 6.86395 20 7.53Z" fill="white"/>
</svg>