<svg width="82" height="42" viewBox="0 0 82 42" fill="none" xmlns="http://www.w3.org/2000/svg">
<path d="M54.3719 20.9947L45.8089 32.6235C45.0077 33.7418 44.5987 34.8268 44.5987 35.8812C44.5987 37.1832 45.1106 38.2849 46.1372 39.1835C47.161 40.082 48.2598 40.5327 49.4394 40.5327C50.925 40.5327 52.1046 39.9123 52.9726 38.6716L60.2086 28.8622L53.9351 20.4077L54.3719 20.9947Z" fill="url(#paint0_linear_235_2271)"/>
<path d="M45.5334 8.99309L53.9406 20.4077L60.2141 28.8622L64.2341 23.415C64.7933 22.6694 65.0715 21.8321 65.0715 20.9029C65.0715 20.0321 64.796 19.1641 64.2341 18.2989L53.1645 2.94779C52.7305 2.3274 52.1852 1.84611 51.5342 1.50392C50.886 1.16174 50.2211 0.992035 49.5367 0.992035C48.3571 0.992035 47.2277 1.43994 46.1399 2.34131C45.0549 3.2399 44.5096 4.43338 44.5096 5.92175C44.5068 7.10133 44.8518 8.1251 45.5334 8.99309Z" fill="url(#paint1_linear_235_2271)"/>
<path d="M55.3851 5.36812C55.6076 4.07171 55.2738 2.78921 54.4392 1.7543L54.4336 1.74873C53.6992 0.841798 52.7227 0.257576 51.6127 0.0656172C50.7113 -0.0901753 49.7932 0.0322333 48.9503 0.424497C48.2353 0.76112 47.6261 1.26466 47.1309 1.93791L24.0931 33.753C23.6591 34.3455 23.3753 35.0049 23.2529 35.7115C23.0248 37.0274 23.3753 38.3266 24.2405 39.3698C24.8108 40.057 25.5202 40.555 26.3214 40.8304C26.5551 40.9111 26.7972 40.9751 27.0448 41.0168C27.9434 41.1726 28.8614 41.0502 29.7127 40.6551C30.4221 40.3213 31.023 39.8233 31.5154 39.1584L54.5366 7.33501C54.9761 6.74522 55.2627 6.08032 55.3851 5.36812Z" fill="url(#paint2_linear_235_2271)"/>
<path d="M26.863 20.5328L35.426 8.90399C36.2272 7.78562 36.6362 6.70064 36.6362 5.64625C36.6362 4.34427 36.1243 3.2426 35.0977 2.34401C34.0739 1.44542 32.975 0.994736 31.7955 0.994736C30.3099 0.994736 29.1303 1.61512 28.2623 2.8559L21.0263 12.6653L27.2997 21.1198L26.863 20.5328Z" fill="url(#paint3_linear_235_2271)"/>
<path d="M35.7013 32.5344L27.294 21.1198L21.0206 12.6653L17.0006 18.1125C16.4414 18.858 16.1632 19.6954 16.1632 20.6246C16.1632 21.4954 16.4386 22.3634 17.0006 23.2286L28.0702 38.5797C28.5042 39.2001 29.0467 39.6814 29.7005 40.0236C30.3487 40.3657 31.0136 40.5354 31.6979 40.5354C32.8775 40.5354 34.007 40.0875 35.0948 39.1862C36.1798 38.2876 36.725 37.0941 36.725 35.6057C36.7278 34.4262 36.3828 33.4024 35.7013 32.5344Z" fill="#3A76F0"/>
<defs>
<linearGradient id="paint0_linear_235_2271" x1="52.4037" y1="40.5327" x2="52.4037" y2="20.4077" gradientUnits="userSpaceOnUse">
<stop stop-color="#3872E8"/>
<stop offset="1" stop-color="#1F4082"/>
</linearGradient>
<linearGradient id="paint1_linear_235_2271" x1="61.7608" y1="24.2035" x2="50.4936" y2="8.06782" gradientUnits="userSpaceOnUse">
<stop stop-color="#3872E8"/>
<stop offset="1" stop-color="#1F4082"/>
</linearGradient>
<linearGradient id="paint2_linear_235_2271" x1="39.3186" y1="0" x2="39.3186" y2="41.0823" gradientUnits="userSpaceOnUse">
<stop stop-color="#3872E8"/>
<stop offset="1" stop-color="#1F4082"/>
</linearGradient>
<linearGradient id="paint3_linear_235_2271" x1="28.8312" y1="0.994736" x2="28.8312" y2="21.1198" gradientUnits="userSpaceOnUse">
<stop stop-color="#3872E8"/>
<stop offset="1" stop-color="#1F4082"/>
</linearGradient>
</defs>
</svg>
