<svg width="73" height="72" viewBox="0 0 73 72" fill="none" xmlns="http://www.w3.org/2000/svg">
<g clip-path="url(#clip0_237_51123)">
<path fill-rule="evenodd" clip-rule="evenodd" d="M72.1245 1.78656C72.0487 0.743408 71.2181 -0.0811154 70.1783 -0.159118C64.9977 -0.549133 59.8374 0.0880741 54.7793 1.63495C55.16 5.10992 56.9573 8.87054 60.0258 11.939C63.1311 15.0438 66.9939 16.8406 70.5309 17.1767C71.8932 12.4026 72.5392 7.28961 72.1245 1.78656ZM42.1276 29.8374C39.6606 27.3699 39.6606 23.356 42.1276 20.8885C44.5951 18.421 48.6095 18.421 51.077 20.8885C53.5446 23.356 53.5446 27.3699 51.077 29.8374C48.6095 32.3049 44.5951 32.3049 42.1276 29.8374ZM0.866892 33.7793L6.83301 27.8132C11.907 22.7391 17.8193 22.1003 19.6085 23.2472C16.5153 27.288 13.5945 31.7364 10.8765 36.5687C8.96601 36.0787 6.12879 36.444 2.90431 37.3086C1.97486 37.5575 0.998179 37.1416 0.53181 36.3254C0.0539046 35.4981 0.192332 34.4538 0.866892 33.7793ZM11.1525 48.3032C10.5103 47.6605 10.3516 46.6778 10.7592 45.8648C10.8133 45.7576 10.89 45.6011 10.9894 45.3983C11.4818 44.3943 12.5302 42.2563 14.1353 39.3532L17.4537 42.6722C17.385 42.7353 17.3155 42.7846 17.246 42.834C17.1643 42.8919 17.0826 42.9499 17.0022 43.0303C14.8955 45.1364 13.1586 47.053 11.6683 48.819L11.1525 48.3032ZM23.1553 60.3058C24.9114 58.8144 26.8231 57.0742 28.9346 54.9626C29.0159 54.8817 29.0742 54.7996 29.1326 54.7175C29.1816 54.6485 29.2307 54.5795 29.2933 54.511L32.7683 57.986C29.8954 59.586 28.2193 60.4274 27.1031 60.9878L27.1031 60.9878C26.8022 61.1389 26.542 61.2695 26.31 61.389C25.4943 61.8087 24.5022 61.6527 23.854 61.0045L23.1553 60.3058ZM27.8107 44.1575C26.2864 42.6332 21.9995 43.9999 19.9857 46.0131C13.2489 52.7499 10.2062 57.5262 8.84007 60.3464C8.44841 61.1544 8.61156 62.1218 9.24657 62.7568C9.88268 63.3935 10.8517 63.555 11.6603 63.1633C14.4173 61.8246 19.1354 58.7962 25.9524 51.9798C28.1667 49.7644 29.2592 45.6066 27.8123 44.1592L27.8107 44.1575ZM35.9528 71.5025C36.7653 71.9134 37.7491 71.7546 38.3923 71.1108L44.359 65.1447C48.9782 60.5244 49.7912 54.5632 48.7431 52.673C44.2365 56.0695 39.6711 58.9374 35.4117 61.3385C35.7056 62.998 35.5101 64.608 34.8152 69.3102C34.6795 70.2204 35.1497 71.1009 35.9528 71.5025ZM50.7021 3.10327C51.3899 7.20227 53.5333 11.4122 57.0434 14.9224C60.6107 18.4896 64.9519 20.6369 69.1509 21.2713C63.0804 36.7615 48.8048 48.4043 36.543 55.7942L31.626 50.8773C32.946 47.6292 33.3014 43.6823 30.7938 41.1742C28.2895 38.6704 24.341 39.0192 21.0885 40.3398L16.3281 35.5794C25.9098 19.6426 38.0354 8.29815 50.7021 3.10327ZM39.1445 32.8207C43.2567 36.9323 49.9479 36.9323 54.0595 32.8207C58.1717 28.7085 58.1717 22.0173 54.0595 17.9051C49.9479 13.7935 43.2567 13.7935 39.1445 17.9051C35.0323 22.0168 35.0323 28.7085 39.1445 32.8207Z" fill="#75BDFF"/>
</g>
<defs>
<clipPath id="clip0_237_51123">
<rect width="72" height="72" fill="white" transform="translate(0.249023 0.00012207)"/>
</clipPath>
</defs>
</svg>
