<svg width="73" height="72" viewBox="0 0 73 72" fill="none" xmlns="http://www.w3.org/2000/svg">
<path fill-rule="evenodd" clip-rule="evenodd" d="M10.6902 66.2139H6.32642C5.55185 66.2139 4.92017 65.5822 4.92017 64.8077V46.8231C4.92017 46.0486 5.55185 45.4169 6.32642 45.4169H10.6902V66.2139ZM21.3421 35.0188C21.3421 40.2659 16.6286 42.6428 12.9354 45.4169H12.9368C12.9487 59.3036 12.9487 66.236 12.9368 66.2139H12.9355C17.4574 70.5449 21.8277 69.7515 29.3734 68.4431H35.9773C37.6322 68.4431 38.986 67.0893 38.986 65.4346C38.986 63.7798 37.6324 62.4258 35.9773 62.4258H37.7719C39.4267 62.4256 40.7805 61.0718 40.7805 59.417C40.7805 57.7621 39.4266 56.4083 37.7719 56.4083H39.8831C41.5381 56.4083 42.8919 55.0545 42.8919 53.3996C42.8917 51.7447 41.5379 50.3908 39.8831 50.3908H38.6156C40.2705 50.3908 41.6243 49.037 41.6243 47.382C41.6243 45.7271 40.2698 44.3733 38.6156 44.3733H27.4033C28.3102 43.2485 28.7945 42.0443 28.9143 41.1742V36.2767C28.9143 32.1117 25.5065 28.7052 21.3418 28.7052V35.0188H21.3421ZM58.8624 29.7302L61.1782 35.8296C61.2478 36.013 61.4098 36.1307 61.6057 36.1403L68.1222 36.458C68.5654 36.4795 68.7469 37.0379 68.401 37.3158L63.3155 41.4032C63.1627 41.5261 63.1008 41.7165 63.1523 41.9058L64.864 48.2016C64.9804 48.6298 64.5055 48.9748 64.1343 48.7317L58.6755 45.1583C58.5114 45.0508 58.3111 45.0508 58.147 45.1583L52.6884 48.7317C52.3171 48.9747 51.8422 48.6298 51.9587 48.2016L53.6702 41.9058C53.7215 41.7165 53.6598 41.5261 53.507 41.4032L48.4217 37.3159C48.0759 37.0379 48.2573 36.4796 48.7004 36.4581L55.2169 36.1404C55.4128 36.1309 55.575 36.0132 55.6444 35.8298L57.9603 29.7303C58.1169 29.3177 58.7059 29.3177 58.8624 29.7302ZM51.2176 11.7603L50.1733 18.2005C50.1419 18.3941 50.2234 18.5771 50.3883 18.6832L55.873 22.2166C56.246 22.4568 56.124 23.0311 55.6854 23.0989L49.2377 24.0959C49.0439 24.1258 48.895 24.2599 48.8451 24.4496L47.1795 30.7576C47.0663 31.1866 46.4824 31.2479 46.2825 30.8519L43.3417 25.028C43.2534 24.8529 43.0799 24.7528 42.8841 24.7637L36.3701 25.1291C35.9271 25.154 35.6884 24.6176 36.0032 24.305L40.6334 19.7084C40.7725 19.5703 40.8143 19.3744 40.7433 19.1915L38.3827 13.1093C38.2221 12.6956 38.6585 12.3028 39.0531 12.5057L44.8554 15.4889C45.0298 15.5787 45.2291 15.5577 45.3811 15.4337L50.4364 11.3093C50.7781 11.0303 51.2882 11.3249 51.2176 11.7603ZM22.9296 2.28819L25.2454 8.38766C25.315 8.57103 25.4771 8.68874 25.6729 8.6983L32.1895 9.01597C32.6326 9.03749 32.8141 9.59591 32.4682 9.87393L27.3828 13.9612C27.2299 14.0841 27.168 14.2745 27.2195 14.4638L28.9312 20.7596C29.0476 21.1878 28.5727 21.5327 28.2015 21.2897L22.7427 17.7163C22.5787 17.6089 22.3783 17.6089 22.2142 17.7163L16.7556 21.2897C16.3843 21.5327 15.9094 21.1878 16.0259 20.7596L17.7374 14.4638C17.7889 14.2745 17.727 14.0841 17.5742 13.9612L12.4889 9.87378C12.1429 9.59577 12.3245 9.03749 12.7676 9.01583L19.2842 8.69816C19.4801 8.6886 19.6421 8.57089 19.7117 8.38752L22.0275 2.28819C22.1841 1.87574 22.7731 1.87574 22.9296 2.28819Z" fill="#75BDFF"/>
</svg>
