<svg xmlns="http://www.w3.org/2000/svg" width="32" height="32" viewBox="0 0 32 32" fill="none">
  <path d="M7.77543 29.1219C4.68529 30.1325 0.528683 25.9102 1.53642 22.8188C1.69142 22.3433 2.36875 22.334 2.53902 22.8043C3.36369 25.0822 5.48243 27.2718 7.78176 28.1158C8.25576 28.2898 8.25536 28.965 7.77543 29.1219Z" fill="white"/>
  <path d="M23.0228 29.7835L22.8728 30.5315C22.7128 31.3342 22.0275 31.9295 21.2068 31.9789C17.8207 32.1821 14.5681 30.9107 12.2277 28.5011C11.9999 28.2667 12.0416 27.8839 12.3094 27.6965C12.4341 27.6093 12.5555 27.5147 12.6735 27.4129C13.0356 27.0998 14.4771 25.5939 16.7531 24.1501C17.0023 23.9921 17.3303 24.0667 17.4898 24.3149C18.4696 25.8405 19.9794 27.0273 21.8855 27.7409C22.7188 28.0529 23.1968 28.9122 23.0228 29.7835Z" fill="white"/>
  <path d="M27.6162 3.53455C27.1454 3.53455 26.9021 2.96108 27.2391 2.62408L27.8068 2.05635C28.0151 1.84808 28.3528 1.84808 28.561 2.05635C28.7694 2.26461 28.7694 2.60228 28.561 2.81055L27.9933 3.37828C27.8892 3.48248 27.7528 3.53455 27.6162 3.53455Z" fill="white"/>
  <path d="M23.5195 7.63137C23.0487 7.63137 22.8054 7.0579 23.1424 6.7209L25.323 4.54029C25.5313 4.33203 25.8689 4.33203 26.0772 4.54029C26.2855 4.74856 26.2855 5.08623 26.0772 5.2945L23.8966 7.4751C23.7925 7.5793 23.656 7.63137 23.5195 7.63137Z" fill="white"/>
  <path d="M20.5198 4.36484C20.1655 4.36484 19.9082 4.02457 20.0072 3.6829L20.9632 0.385028C21.0451 0.102027 21.3412 -0.0607733 21.6239 0.0212269C21.9068 0.103227 22.0697 0.399028 21.9877 0.681962L21.0318 3.97984C20.9641 4.21317 20.751 4.36484 20.5198 4.36484Z" fill="white"/>
  <path d="M26.7859 10.6315C26.5546 10.6315 26.3415 10.4799 26.2739 10.2465C26.1919 9.9636 26.3548 9.6678 26.6377 9.5858L29.9356 8.62986C30.2185 8.54786 30.5143 8.71073 30.5963 8.99367C30.6783 9.2766 30.5154 9.5724 30.2325 9.6544C26.6226 10.7007 26.8938 10.6315 26.7859 10.6315Z" fill="white"/>
  <path d="M28.3202 20.0135C27.2904 21.0433 25.6214 21.044 24.5908 20.0135L10.6128 6.03548C9.5848 5.00681 9.5848 3.33414 10.6128 2.30614C11.6418 1.2758 13.3117 1.27434 14.3421 2.30614L28.3202 16.2842C29.3482 17.3122 29.3482 18.9848 28.3202 20.0135Z" fill="white"/>
  <path d="M22.3905 20.4275C19.7099 21.2605 17.4334 22.3478 15.3429 23.8054C15.1407 23.9465 14.8683 23.9299 14.6842 23.7659C12.1823 21.5372 9.33452 18.7138 6.85992 15.9402C6.69605 15.7565 6.68032 15.4842 6.82105 15.2822C8.27805 13.192 9.36566 10.9156 10.1982 8.23522C10.3173 7.85195 10.8006 7.73189 11.0843 8.01569L22.6101 19.5414C22.8938 19.8252 22.7738 20.3084 22.3905 20.4275Z" fill="white"/>
  <path d="M13.6694 24.2886C13.912 24.5068 13.9034 24.8878 13.6526 25.0968C13.1348 25.5283 12.6254 25.9868 12.1208 26.4736C8.31056 30.151 0.591543 22.1954 4.15275 18.505C4.63975 18.0001 5.09795 17.4906 5.52942 16.9728C5.73782 16.7227 6.11815 16.7128 6.33602 16.9548C8.64829 19.5225 11.3032 22.1612 13.6694 24.2886Z" fill="white"/>
</svg>