<svg xmlns="http://www.w3.org/2000/svg" width="15" height="16" viewBox="0 0 15 16" fill="none">
  <path d="M8.80193 1.76754L10.1219 4.40754C10.3019 4.76754 10.7819 5.12754 11.1819 5.18754L13.5719 5.58754C15.1019 5.84754 15.4619 6.94754 14.3619 8.04754L12.5019 9.91754C12.1919 10.2275 12.0119 10.8375 12.1119 11.2775L12.6419 13.5875C13.0619 15.4075 12.0919 16.1175 10.4819 15.1675L8.24193 13.8375C7.83193 13.5975 7.17193 13.5975 6.76193 13.8375L4.51193 15.1575C2.90193 16.1075 1.93193 15.3975 2.35193 13.5775L2.88193 11.2675C2.98193 10.8375 2.80193 10.2275 2.49193 9.90754L0.641926 8.05754C-0.458074 6.95754 -0.0980735 5.84754 1.43193 5.59754L3.82193 5.19754C4.22193 5.12754 4.70193 4.77754 4.88193 4.41754L6.20193 1.77754C6.91193 0.337542 8.09193 0.337542 8.80193 1.76754Z" fill="#F3CC40"/>
</svg>