<svg xmlns="http://www.w3.org/2000/svg" width="24" height="25" viewBox="0 0 24 25" fill="none">
  <g clip-path="url(#clip0_346_1687)">
    <path fill-rule="evenodd" clip-rule="evenodd" d="M13.6388 19.4427C13.6366 19.4367 13.6353 19.4307 13.6332 19.4247L12.6415 16.3098C12.0003 16.2247 11.3549 16.1752 10.7083 16.1615V20.8521C11.794 20.8077 12.8658 20.5906 13.8832 20.209L13.6388 19.4427Z" fill="white"/>
    <path fill-rule="evenodd" clip-rule="evenodd" d="M15.3735 5.13867C13.8572 5.58267 12.2881 5.82118 10.7083 5.84782V10.1435H16.2756C16.2463 8.43755 15.9417 6.7475 15.3735 5.13867Z" fill="white"/>
    <path fill-rule="evenodd" clip-rule="evenodd" d="M9.85066 20.8311V16.1538C8.38327 16.1801 6.92563 16.3979 5.51465 16.8017C6.56299 19.1474 8.15151 20.6223 9.85066 20.8311Z" fill="white"/>
    <path fill-rule="evenodd" clip-rule="evenodd" d="M10.7083 0.311279V4.9907C12.1783 4.9644 13.6386 4.74586 15.052 4.34069C14.0358 2.05892 12.4769 0.526528 10.7083 0.311279Z" fill="white"/>
    <path fill-rule="evenodd" clip-rule="evenodd" d="M12.786 11.9062L16.1131 12.9648C16.2045 12.3139 16.2579 11.6582 16.2731 11.0011H10.7083V15.2964C11.2626 15.3088 11.8131 15.3422 12.353 15.4027L11.6116 13.0745C11.5044 12.7418 11.593 12.377 11.8408 12.1305C12.0886 11.8839 12.4538 11.7972 12.786 11.9062Z" fill="white"/>
    <path fill-rule="evenodd" clip-rule="evenodd" d="M23.9323 16.3532L12.5215 12.7221C12.5126 12.7183 12.5032 12.7163 12.4936 12.7161C12.4753 12.7165 12.4579 12.7244 12.4456 12.7379C12.4251 12.7556 12.4179 12.7843 12.4276 12.8095L16.0617 24.226C16.0712 24.2681 16.1105 24.2965 16.1535 24.2924C16.1945 24.2955 16.2319 24.2691 16.2427 24.2294L18.1502 19.0153C18.2468 18.7519 18.4544 18.5443 18.7179 18.4477L23.9363 16.535C23.9772 16.5242 24.0041 16.4853 23.9997 16.4432C24.0018 16.4009 23.9736 16.3631 23.9323 16.3532Z" fill="white"/>
    <path fill-rule="evenodd" clip-rule="evenodd" d="M9.85058 5.84782C8.27078 5.82109 6.70168 5.58258 5.18532 5.13867C4.61714 6.7475 4.31256 8.43755 4.2832 10.1435H9.85058V5.84782Z" fill="white"/>
    <path fill-rule="evenodd" clip-rule="evenodd" d="M4.38703 4.86979C3.70143 4.6249 3.04096 4.31465 2.41477 3.94324C0.942403 5.68375 0.0926178 7.86563 0 10.1435H3.4262C3.45659 8.34495 3.7812 6.5635 4.38703 4.86979Z" fill="white"/>
    <path fill-rule="evenodd" clip-rule="evenodd" d="M4.6983 17.0718C4.11066 17.2805 3.54244 17.5402 3 17.8478C4.10035 18.9445 5.43404 19.7786 6.90167 20.2879C5.95279 19.3797 5.20257 18.2846 4.6983 17.0718Z" fill="white"/>
    <path fill-rule="evenodd" clip-rule="evenodd" d="M9.85054 0.311279C8.08194 0.525637 6.52338 2.05887 5.50684 4.34158C6.92016 4.74675 8.38052 4.965 9.85054 4.9907V0.311279Z" fill="white"/>
    <path fill-rule="evenodd" clip-rule="evenodd" d="M9.85076 11.001H4.28638C4.31503 12.7066 4.62158 14.3963 5.19403 16.0033C6.7078 15.561 8.27391 15.3234 9.85076 15.2967V11.001Z" fill="white"/>
    <path fill-rule="evenodd" clip-rule="evenodd" d="M20.5587 10.1434C20.4653 7.86603 19.6151 5.6848 18.1427 3.94495C17.5165 4.3164 16.8561 4.62671 16.1704 4.8715C16.7765 6.5646 17.1015 8.34544 17.1326 10.1435H20.5587V10.1434Z" fill="white"/>
    <path fill-rule="evenodd" clip-rule="evenodd" d="M17.5529 3.30016C16.4466 2.19344 15.103 1.35298 13.6238 0.842529C14.5812 1.75595 15.3402 2.85691 15.8533 4.07665C16.4415 3.86801 17.0102 3.60817 17.5529 3.30016Z" fill="white"/>
    <path fill-rule="evenodd" clip-rule="evenodd" d="M6.93521 0.842529C5.456 1.35298 4.11236 2.19344 3.0061 3.30016C3.55018 3.60821 4.12014 3.86806 4.70957 4.07665C5.22152 2.85723 5.97911 1.75633 6.93521 0.842529Z" fill="white"/>
    <path fill-rule="evenodd" clip-rule="evenodd" d="M20.5592 11.001H17.1291C17.1126 11.7466 17.0491 12.4903 16.9392 13.2279L19.9161 14.1755C20.2982 13.1583 20.5153 12.0866 20.5592 11.001Z" fill="white"/>
    <path fill-rule="evenodd" clip-rule="evenodd" d="M4.38064 16.2747C3.77963 14.58 3.45816 12.7988 3.42881 11.001H0.0090332C0.100901 13.2771 0.948107 15.4578 2.41691 17.199C3.04033 16.8286 3.69789 16.5191 4.38064 16.2747Z" fill="white"/>
  </g>
  <defs>
    <clipPath id="clip0_346_1687">
      <rect width="24" height="24" fill="white" transform="translate(0 0.302002)"/>
    </clipPath>
  </defs>
</svg>