<svg width="24" height="25" viewBox="0 0 24 25" fill="none" xmlns="http://www.w3.org/2000/svg">
<path d="M3.01996 11.4595C2.75995 11.1995 2.75995 10.7795 3.01996 10.5195L8.05328 5.48619C8.64663 4.89284 9.55996 4.73285 10.32 5.09283L14.2933 6.95953C14.5399 7.07953 14.8466 7.02618 15.0466 6.82619L20.0333 1.83954C20.2933 1.57953 20.7199 1.57953 20.98 1.83954C21.24 2.09951 21.24 2.51951 20.98 2.77952L15.9866 7.77285C15.3933 8.36619 14.48 8.52618 13.7199 8.1662L9.75327 6.29954C9.49994 6.1795 9.1933 6.23285 8.99331 6.42617L3.96661 11.4595C3.83327 11.5928 3.66661 11.6529 3.49331 11.6529C3.31997 11.6529 3.1533 11.5928 3.01996 11.4595Z" fill="white"/>
<path d="M11.1667 13.3596V21.6263C11.1667 22.3663 10.5668 22.9596 9.83341 22.9596H8.50008C7.76676 22.9596 7.16675 22.3663 7.16675 21.6263V13.3596C7.16675 12.6263 7.76676 12.0262 8.50008 12.0262H9.83341C10.5668 12.0262 11.1667 12.6263 11.1667 13.3596Z" fill="white"/>
<path d="M22.5 8.67952V21.6262C22.5 22.3662 21.9 22.9596 21.1667 22.9596H19.8333C19.1 22.9596 18.5 22.3662 18.5 21.6262V8.67952C18.5 7.94621 19.1 7.34619 19.8333 7.34619H21.1667C21.9 7.34619 22.5 7.94621 22.5 8.67952Z" fill="white"/>
<path d="M5.5 19.3195V21.6262C5.5 22.3662 4.90002 22.9596 4.16667 22.9596H2.83333C2.10002 22.9596 1.5 22.3662 1.5 21.6262V19.3195C1.5 18.5862 2.10002 17.9862 2.83333 17.9862H4.16667C4.90002 17.9862 5.5 18.5862 5.5 19.3195Z" fill="white"/>
<path d="M16.8333 15.6795V21.6262C16.8333 22.3662 16.2333 22.9596 15.4999 22.9596H14.1666C13.4333 22.9596 12.8333 22.3662 12.8333 21.6262V15.6795C12.8333 14.9462 13.4333 14.3462 14.1666 14.3462H15.4999C16.2333 14.3462 16.8333 14.9462 16.8333 15.6795Z" fill="white"/>
</svg>
