<svg xmlns="http://www.w3.org/2000/svg" width="25" height="25" viewBox="0 0 25 25" fill="none">
  <g clip-path="url(#clip0_346_1918)">
    <path d="M23.6053 2.65921L21.8991 2.90301L22.1429 1.1968C22.2489 0.455195 21.3456 0.00191396 20.815 0.533008L17.6848 3.66323C17.5651 3.78295 17.4874 3.93834 17.4634 4.10596L17.1091 6.58659L13.2444 10.4513C12.9383 10.3049 12.5998 10.2161 12.2385 10.2161C10.944 10.2161 9.89087 11.2692 9.89087 12.5637C9.89087 13.8583 10.944 14.9114 12.2385 14.9114C13.5331 14.9114 14.5862 13.8583 14.5862 12.5637C14.5862 12.2024 14.4974 11.8639 14.3509 11.5579L18.2156 7.69316L20.6963 7.33879C20.8639 7.31484 21.0192 7.23716 21.139 7.11745L24.2692 3.98723C24.7981 3.45815 24.3503 2.55482 23.6053 2.65921Z" fill="white"/>
    <path d="M18.5872 9.53494L16.108 12.014C16.1335 12.1941 16.1513 12.3766 16.1513 12.5637C16.1513 14.7213 14.3961 16.4764 12.2385 16.4764C10.0809 16.4764 8.32578 14.7213 8.32578 12.5637C8.32578 10.4061 10.0809 8.65092 12.2385 8.65092C12.4255 8.65092 12.608 8.66864 12.7881 8.69414L15.2673 6.21497C14.3483 5.77472 13.3237 5.52075 12.2385 5.52075C8.35507 5.52075 5.19556 8.68027 5.19556 12.5637C5.19556 16.4472 8.35507 19.6067 12.2385 19.6067C16.122 19.6067 19.2815 16.4472 19.2815 12.5637C19.2814 11.4785 19.0276 10.4539 18.5872 9.53494Z" fill="white"/>
    <path d="M22.8707 7.59878L22.2455 8.22405C21.8889 8.58096 21.4171 8.81683 20.9176 8.88813L20.0691 9.00939C20.5637 10.0945 20.8465 11.2955 20.8465 12.5637C20.8465 17.3103 16.9849 21.1718 12.2384 21.1718C7.4919 21.1718 3.63034 17.3103 3.63034 12.5637C3.63034 7.81722 7.49195 3.95566 12.2384 3.95566C13.5066 3.95566 14.7077 4.23846 15.7928 4.73303L15.914 3.8846C15.9853 3.38505 16.2212 2.9133 16.5781 2.55639L17.2032 1.93136C15.6611 1.20916 13.98 0.825439 12.2384 0.825439C5.76578 0.825439 0.500122 6.09114 0.500122 12.5637C0.500122 19.0363 5.76582 24.302 12.2384 24.302C18.711 24.302 23.9767 19.0363 23.9767 12.5637C23.9767 10.822 23.593 9.14083 22.8707 7.59878Z" fill="white"/>
  </g>
  <defs>
    <clipPath id="clip0_346_1918">
      <rect width="24" height="24" fill="white" transform="translate(0.5 0.302002)"/>
    </clipPath>
  </defs>
</svg>