<svg xmlns="http://www.w3.org/2000/svg" width="24" height="25" viewBox="0 0 24 25" fill="none">
  <path d="M21.105 5.552L19.8412 6.98825H20.625C20.7245 6.98825 20.8198 7.02776 20.8902 7.09808C20.9605 7.16841 21 7.26379 21 7.36325V15.857C21 15.9565 20.9605 16.0518 20.8902 16.1222C20.8198 16.1925 20.7245 16.232 20.625 16.232H3.375C3.27554 16.232 3.18016 16.1925 3.10984 16.1222C3.03951 16.0518 3 15.9565 3 15.857V7.3595C3 7.26004 3.03951 7.16466 3.10984 7.09433C3.18016 7.02401 3.27554 6.9845 3.375 6.9845H14.0438L15.6825 5.4845H3.375C2.87772 5.4845 2.40081 5.68204 2.04917 6.03367C1.69754 6.3853 1.5 6.86222 1.5 7.3595V16.7345C1.5 17.2318 1.69754 17.7087 2.04917 18.0603C2.40081 18.412 2.87772 18.6095 3.375 18.6095H20.625C21.1223 18.6095 21.5992 18.412 21.9508 18.0603C22.3025 17.7087 22.5 17.2318 22.5 16.7345V7.3595C22.4989 6.94667 22.3616 6.54575 22.1093 6.21893C21.8571 5.89212 21.5041 5.65768 21.105 5.552ZM12.1912 17.867C12.0924 17.9097 11.9819 17.9171 11.8783 17.8879C11.7747 17.8587 11.6842 17.7948 11.6222 17.7068C11.5602 17.6188 11.5303 17.5122 11.5376 17.4047C11.545 17.2973 11.5891 17.1957 11.6625 17.117C11.71 17.066 11.7683 17.0263 11.8332 17.0007C11.898 16.9751 11.9677 16.9643 12.0373 16.969C12.1068 16.9738 12.1744 16.994 12.2351 17.0282C12.2959 17.0624 12.3483 17.1096 12.3884 17.1666C12.4286 17.2236 12.4555 17.2888 12.4673 17.3575C12.4791 17.4262 12.4754 17.4966 12.4565 17.5637C12.4376 17.6308 12.404 17.6929 12.3581 17.7453C12.3122 17.7978 12.2552 17.8393 12.1912 17.867Z" fill="white"/>
  <path d="M14.79 20.6307H13.8037V19.3669H10.1962V20.6307H9.20995C8.79745 20.6307 8.7937 21.3807 9.20995 21.3807H14.79C15.2025 21.3769 15.2062 20.6307 14.79 20.6307Z" fill="white"/>
  <path d="M3.75 15.482H20.25V7.73448H19.1813L16.395 10.8995C16.211 11.1089 15.9557 11.2426 15.6788 11.2745C15.4892 11.6322 15.2065 11.9322 14.8607 12.1427C14.5149 12.3533 14.1186 12.4666 13.7137 12.4707H11.3212C11.2624 12.4827 11.2015 12.4804 11.1438 12.464C11.086 12.4476 11.033 12.4175 10.9893 12.3764C10.9456 12.3352 10.9123 12.2841 10.8925 12.2275C10.8726 12.1708 10.8666 12.1102 10.875 12.0507C10.8847 11.9623 10.9254 11.8803 10.99 11.8191C11.0545 11.758 11.1387 11.7218 11.2275 11.717C11.3541 11.6227 11.4548 11.498 11.5204 11.3545C11.5859 11.2109 11.6142 11.0531 11.6025 10.8957C11.5725 9.77073 11.9775 8.91948 12.855 8.46948C12.8787 8.1805 13.013 7.91182 13.23 7.71948H3.75V15.482Z" fill="white"/>
  <path d="M12.8175 9.4182C12.6478 9.61813 12.521 9.85076 12.4449 10.1017C12.3688 10.3526 12.345 10.6165 12.375 10.8769C12.3848 11.1671 12.3244 11.4553 12.1987 11.7169H13.7287C13.9638 11.7139 14.1949 11.6557 14.4034 11.5469C14.6118 11.4381 14.7918 11.2818 14.9287 11.0907C14.8697 11.0452 14.8134 10.9964 14.76 10.9444L13.1962 9.3507C13.065 9.1407 12.9562 9.30195 12.8175 9.4182Z" fill="white"/>
  <path d="M14.3361 7.7345C14.3361 7.7345 13.8336 8.1995 13.8299 8.19575C13.7692 8.23532 13.7179 8.28773 13.6797 8.34929C13.6414 8.41085 13.6172 8.48005 13.6086 8.552C13.6086 8.71325 13.7324 8.8445 13.8374 8.9495L15.1761 10.3108C15.2064 10.3674 15.2495 10.4161 15.302 10.453C15.3546 10.4898 15.4151 10.5138 15.4786 10.5229C15.5422 10.5321 15.607 10.5261 15.6678 10.5055C15.7286 10.4849 15.7837 10.4503 15.8286 10.4045C16.7549 9.347 18.5924 7.2695 19.4999 6.2345C19.7211 5.9795 20.2986 5.33075 20.5161 5.0795C21.4124 4.052 19.9949 2.57825 18.9561 3.512L14.3361 7.7345Z" fill="white"/>
</svg>