<svg xmlns="http://www.w3.org/2000/svg"  viewBox="0 0 24 25" fill="none">
  <path d="M20.8 9.7024C20.5329 9.43312 20.3824 9.06965 20.381 8.6904V7.4124C20.3799 6.63547 20.0708 5.89067 19.5213 5.34139C18.9718 4.79211 18.2269 4.48319 17.45 4.4824H16.174C15.9861 4.48289 15.7999 4.44622 15.6262 4.37448C15.4526 4.30274 15.2948 4.19736 15.162 4.0644L14.072 2.9734C13.522 2.42479 12.7768 2.1167 12 2.1167C11.2231 2.1167 10.478 2.42479 9.92798 2.9734L8.83798 4.0644C8.70527 4.19754 8.54753 4.3031 8.37385 4.37502C8.20016 4.44693 8.01397 4.48376 7.82598 4.4834H6.54898C5.77205 4.48419 5.02715 4.79311 4.47768 5.34239C3.92821 5.89167 3.61904 6.63647 3.61798 7.4134V8.6904C3.61696 9.06924 3.4668 9.43245 3.19998 9.7014L2.10798 10.7924C1.55937 11.3424 1.25128 12.0876 1.25128 12.8644C1.25128 13.6412 1.55937 14.3864 2.10798 14.9364L3.19998 16.0264C3.46704 16.2957 3.61753 16.6592 3.61898 17.0384V18.3164C3.62004 19.0933 3.92921 19.8381 4.47868 20.3874C5.02815 20.9367 5.77305 21.2456 6.54998 21.2464H7.82598C8.01397 21.246 8.20016 21.2829 8.37385 21.3548C8.54753 21.4267 8.70527 21.5323 8.83798 21.6654L9.92798 22.7564C10.4779 23.3053 11.2231 23.6135 12 23.6135C12.7769 23.6135 13.5221 23.3053 14.072 22.7564L15.162 21.6654C15.2947 21.5323 15.4524 21.4267 15.6261 21.3548C15.7998 21.2829 15.986 21.246 16.174 21.2464H17.451C18.2279 21.2456 18.9728 20.9367 19.5223 20.3874C20.0718 19.8381 20.3809 19.0933 20.382 18.3164V17.0384C20.3828 16.6593 20.5334 16.2959 20.801 16.0274L21.892 14.9364C22.4406 14.3864 22.7487 13.6412 22.7487 12.8644C22.7487 12.0876 22.4406 11.3424 21.892 10.7924L20.8 9.7024Z" fill="#2196F3"/>
  <path d="M12 19.6144C15.7279 19.6144 18.75 16.5923 18.75 12.8644C18.75 9.13646 15.7279 6.11438 12 6.11438C8.27208 6.11438 5.25 9.13646 5.25 12.8644C5.25 16.5923 8.27208 19.6144 12 19.6144Z" fill="#29B3FF"/>
  <path d="M11 15.6143C10.9015 15.6146 10.8039 15.5953 10.7129 15.5575C10.6219 15.5197 10.5393 15.4643 10.47 15.3943L8.46997 13.3943C8.33749 13.2522 8.26537 13.0641 8.26879 12.8698C8.27222 12.6755 8.35093 12.4901 8.48835 12.3527C8.62576 12.2153 8.81115 12.1366 9.00545 12.1332C9.19975 12.1297 9.38779 12.2019 9.52997 12.3343L11 13.8033L14.47 10.3343C14.6121 10.2019 14.8002 10.1297 14.9945 10.1332C15.1888 10.1366 15.3742 10.2153 15.5116 10.3527C15.649 10.4901 15.7277 10.6755 15.7311 10.8698C15.7346 11.0641 15.6624 11.2522 15.53 11.3943L11.53 15.3943C11.4606 15.4643 11.378 15.5197 11.287 15.5575C11.1961 15.5953 11.0985 15.6146 11 15.6143Z" fill="white"/>
</svg>