<svg xmlns="http://www.w3.org/2000/svg" width="32" height="32" viewBox="0 0 32 32" fill="none">
  <g clip-path="url(#clip0_488_46066)">
    <path d="M23.674 27.785C23.0282 28.3269 22.3265 28.7983 21.5808 29.1913C21.3482 29.3137 21.2291 29.579 21.2921 29.8342C21.3552 30.0894 21.5843 30.2686 21.8471 30.2685C21.9397 30.2688 22.031 30.2463 22.1128 30.2028C22.9306 29.7716 23.7001 29.2543 24.4083 28.6599C24.5696 28.5302 24.6482 28.3234 24.6137 28.1193C24.5792 27.9152 24.4371 27.7457 24.2421 27.6762C24.0471 27.6067 23.8297 27.6487 23.674 27.785Z" fill="white"/>
    <path d="M27.8354 22.8571C27.9802 22.9021 28.1369 22.8877 28.2711 22.817C28.4053 22.7464 28.5059 22.6253 28.5508 22.4805C28.8251 21.5978 29.0054 20.6885 29.0885 19.7679C29.1084 19.5637 29.0172 19.3644 28.8496 19.2459C28.6821 19.1275 28.4638 19.108 28.2779 19.1948C28.0919 19.2817 27.9669 19.4616 27.9502 19.6662C27.8741 20.5065 27.7096 21.3364 27.4594 22.1422C27.366 22.4434 27.5343 22.7634 27.8354 22.8571Z" fill="white"/>
    <path d="M3.42812 17.9999H3.47955C3.7763 18.0011 4.02457 17.7749 4.05098 17.4794C4.12713 16.6391 4.29165 15.8092 4.54184 15.0034C4.60677 14.8071 4.56063 14.5911 4.42118 14.4384C4.28174 14.2858 4.07073 14.2204 3.86941 14.2674C3.66809 14.3144 3.50786 14.4665 3.45041 14.6651C3.17608 15.5478 2.99584 16.457 2.91269 17.3777C2.88322 17.6918 3.11397 17.9704 3.42812 17.9999Z" fill="white"/>
    <path d="M5.91112 26.9787C6.0407 27.1406 6.24783 27.2196 6.45232 27.1851C6.65681 27.1506 6.82655 27.008 6.89584 26.8126C6.96513 26.6171 6.92308 26.3994 6.78597 26.2438C6.24404 25.5985 5.77278 24.897 5.38026 24.1513C5.28533 23.9705 5.10117 23.8541 4.89714 23.8459C4.69312 23.8377 4.50024 23.939 4.39114 24.1116C4.28205 24.2842 4.27333 24.5019 4.36826 24.6827C4.79886 25.5011 5.31611 26.2708 5.91112 26.9787Z" fill="white"/>
    <path d="M12.4326 30.0314C12.2377 29.9708 12.0252 30.0188 11.8752 30.1573C11.7252 30.2958 11.6605 30.5038 11.7055 30.703C11.7504 30.9022 11.8982 31.0622 12.0932 31.1228C12.976 31.3974 13.8855 31.5777 14.8063 31.6605H14.8578C15.1734 31.6744 15.4405 31.4299 15.4543 31.1143C15.4682 30.7987 15.2237 30.5316 14.9081 30.5177C14.0681 30.4434 13.2383 30.2804 12.4326 30.0314Z" fill="white"/>
    <path d="M19.5672 30.0315C18.7617 30.282 17.9319 30.4465 17.0918 30.5223C16.7762 30.5362 16.5316 30.8033 16.5455 31.1189C16.5594 31.4345 16.8265 31.6791 17.1421 31.6652H17.1935C18.1143 31.5823 19.0238 31.4021 19.9066 31.1275C20.1016 31.0668 20.2494 30.9068 20.2944 30.7076C20.3393 30.5085 20.2747 30.3005 20.1247 30.1619C19.9747 30.0234 19.7622 29.9754 19.5672 30.036V30.0315Z" fill="white"/>
    <path d="M8.32665 27.785C8.17087 27.6486 7.95355 27.6072 7.75855 27.6767C7.56356 27.7462 7.42139 27.9157 7.3869 28.1198C7.35242 28.3239 7.43102 28.5307 7.59237 28.6604C8.30047 29.2548 9.06997 29.772 9.88779 30.2032C9.96958 30.2467 10.0609 30.2693 10.1535 30.269C10.4164 30.2691 10.6454 30.0898 10.7085 29.8347C10.7716 29.5795 10.6524 29.3142 10.4198 29.1918C9.67407 28.7986 8.97238 28.327 8.32665 27.785Z" fill="white"/>
    <path d="M3.44861 22.4776C3.50607 22.6761 3.6663 22.8282 3.86762 22.8752C4.06894 22.9222 4.27994 22.8568 4.41939 22.7042C4.55884 22.5516 4.60498 22.3355 4.54004 22.1393C4.28986 21.3335 4.12533 20.5036 4.04919 19.6633C4.03254 19.4587 3.90748 19.2788 3.72154 19.1919C3.53561 19.105 3.31736 19.1245 3.14978 19.243C2.98219 19.3615 2.89101 19.5607 2.9109 19.765C2.99405 20.6856 3.17429 21.5948 3.44861 22.4776Z" fill="white"/>
    <path d="M27.9514 17.4793C27.9777 17.7738 28.2243 17.9995 28.52 17.9999H28.5714C28.8858 17.9718 29.1178 17.6942 29.0897 17.3799C29.0066 16.4592 28.8263 15.55 28.552 14.6673C28.4945 14.4687 28.3343 14.3166 28.133 14.2696C27.9317 14.2226 27.7207 14.288 27.5812 14.4406C27.4418 14.5933 27.3956 14.8093 27.4606 15.0056C27.7106 15.8106 27.8751 16.6398 27.9514 17.4793Z" fill="white"/>
    <path d="M26.6187 24.1514C26.2262 24.8971 25.755 25.5986 25.213 26.244C25.0759 26.3995 25.0339 26.6172 25.1032 26.8127C25.1724 27.0081 25.3422 27.1507 25.5467 27.1852C25.7512 27.2197 25.9583 27.1407 26.0879 26.9788C26.6829 26.2709 27.2001 25.5012 27.6307 24.6828C27.7775 24.4034 27.6699 24.0578 27.3905 23.9111C27.111 23.7643 26.7655 23.8719 26.6187 24.1514Z" fill="white"/>
    <path d="M12.4802 9.52554C11.7235 10.4348 11.1317 11.4695 10.7316 12.5827C10.1415 12.3808 9.56983 12.1284 9.02302 11.8284C9.99637 10.8211 11.1756 10.0356 12.4802 9.52554ZM8.27445 12.7084C8.94181 13.0974 9.64623 13.419 10.3773 13.6684C9.98226 15.0796 9.76533 16.5347 9.7316 17.9998H6.31445C6.4232 16.0795 7.10601 14.2362 8.27445 12.7084ZM8.27445 24.4341C7.10601 22.9064 6.4232 21.063 6.31445 19.1427H9.7316C9.76533 20.6078 9.98226 22.0629 10.3773 23.4741C9.64623 23.7235 8.94181 24.0451 8.27445 24.4341ZM9.02302 25.3141C9.56983 25.0141 10.1415 24.7617 10.7316 24.5598C11.1317 25.673 11.7235 26.7077 12.4802 27.617C11.1756 27.1069 9.99637 26.3214 9.02302 25.3141ZM15.4287 28.217C13.9773 27.897 12.6859 26.377 11.8516 24.217C13.0228 23.9257 14.2223 23.7629 15.4287 23.7313V28.217ZM15.4287 22.5884C14.0964 22.6217 12.772 22.8038 11.4802 23.1313C11.1143 21.8318 10.9109 20.4921 10.8745 19.1427H15.4287V22.5884ZM15.4287 17.9998H10.8745C10.9109 16.6504 11.1143 15.3107 11.4802 14.0113C12.772 14.3387 14.0964 14.5208 15.4287 14.5541V17.9998ZM15.4287 13.4113C14.2223 13.3796 13.0228 13.2168 11.8516 12.9255C12.6859 10.7655 13.9773 9.24554 15.4287 8.92554V13.4113ZM22.9773 11.8284C22.4305 12.1284 21.8589 12.3808 21.2687 12.5827C20.8686 11.4695 20.2768 10.4348 19.5202 9.52554C20.8248 10.0356 22.004 10.8211 22.9773 11.8284ZM16.5716 8.92554C18.023 9.24554 19.3145 10.7655 20.1487 12.9255C18.9775 13.2168 17.7781 13.3796 16.5716 13.4113V8.92554ZM16.5716 14.5541C17.9039 14.5208 19.2283 14.3387 20.5202 14.0113C20.886 15.3107 21.0895 16.6504 21.1259 17.9998H16.5716V14.5541ZM16.5716 19.1427H21.1259C21.0895 20.4921 20.886 21.8318 20.5202 23.1313C19.2283 22.8038 17.9039 22.6217 16.5716 22.5884V19.1427ZM16.5716 28.217V23.7313C17.7781 23.7629 18.9775 23.9257 20.1487 24.217C19.3145 26.377 18.023 27.897 16.5716 28.217ZM19.5202 27.617C20.2768 26.7077 20.8686 25.673 21.2687 24.5598C21.8589 24.7617 22.4305 25.0141 22.9773 25.3141C22.004 26.3214 20.8248 27.1069 19.5202 27.617ZM23.7259 24.4341C23.0585 24.0451 22.3541 23.7235 21.623 23.4741C22.0181 22.0629 22.235 20.6078 22.2687 19.1427H25.6859C25.5771 21.063 24.8943 22.9064 23.7259 24.4341ZM25.6859 17.9998H22.2687C22.235 16.5347 22.0181 15.0796 21.623 13.6684C22.3541 13.419 23.0585 13.0974 23.7259 12.7084C24.8943 14.2362 25.5771 16.0795 25.6859 17.9998Z" fill="white"/>
    <path d="M4 0.285645C1.79191 0.288164 0.00251922 2.07755 0 4.28564C0 7.36564 2.94286 10.4856 4 11.5085C5.05714 10.4856 8 7.36564 8 4.28564C7.99748 2.07755 6.2081 0.288164 4 0.285645ZM4 7.14279C2.42204 7.14279 1.14286 5.8636 1.14286 4.28564C1.14286 2.70769 2.42204 1.4285 4 1.4285C5.57796 1.4285 6.85714 2.70769 6.85714 4.28564C6.85714 5.04341 6.55612 5.77013 6.02031 6.30595C5.48449 6.84177 4.75776 7.14279 4 7.14279Z" fill="white"/>
    <path d="M3.99944 5.99986C4.94622 5.99986 5.71373 5.23235 5.71373 4.28557C5.71373 3.3388 4.94622 2.57129 3.99944 2.57129C3.05267 2.57129 2.28516 3.3388 2.28516 4.28557C2.28516 5.23235 3.05267 5.99986 3.99944 5.99986Z" fill="white"/>
    <path d="M27.9994 5.99986C28.9462 5.99986 29.7137 5.23235 29.7137 4.28557C29.7137 3.3388 28.9462 2.57129 27.9994 2.57129C27.0527 2.57129 26.2852 3.3388 26.2852 4.28557C26.2852 5.23235 27.0527 5.99986 27.9994 5.99986Z" fill="white"/>
    <path d="M28 0.285645C25.7919 0.288164 24.0025 2.07755 24 4.28564C24 7.36564 26.9429 10.4856 28 11.5085C29.0571 10.4856 32 7.36564 32 4.28564C31.9975 2.07755 30.2081 0.288164 28 0.285645ZM28 7.14279C26.422 7.14279 25.1429 5.8636 25.1429 4.28564C25.1429 2.70769 26.422 1.4285 28 1.4285C29.578 1.4285 30.8571 2.70769 30.8571 4.28564C30.8571 5.04341 30.5561 5.77013 30.0203 6.30595C29.4845 6.84177 28.7578 7.14279 28 7.14279Z" fill="white"/>
  </g>
  <defs>
    <clipPath id="clip0_488_46066">
      <rect width="32" height="32" fill="white"/>
    </clipPath>
  </defs>
</svg>