<svg xmlns="http://www.w3.org/2000/svg" width="33" height="32" viewBox="0 0 33 32" fill="none">
  <g clip-path="url(#clip0_488_46102)">
    <path d="M32.1513 17.1649C32.2007 18.3464 31.7795 19.4992 30.9801 20.3704C30.1806 21.2417 29.0682 21.7603 27.8869 21.8124C27.8178 21.8156 27.7489 21.8172 27.68 21.8172C27.3662 21.817 27.0532 21.783 26.7466 21.7159C25.8368 23.1206 24.6439 24.3199 23.2441 25.2372C21.8443 26.1544 20.2685 26.7694 18.6174 27.0428C18.4221 27.6165 18.0325 28.104 17.516 28.4209C16.9994 28.7378 16.3883 28.8643 15.7884 28.7785C15.1885 28.6927 14.6374 28.3999 14.2304 27.9509C13.8234 27.5019 13.5861 26.9247 13.5595 26.3193C13.5328 25.7138 13.7186 25.1181 14.0846 24.6351C14.4506 24.1521 14.9739 23.8121 15.564 23.674C16.1541 23.5359 16.7739 23.6082 17.3163 23.8786C17.8587 24.149 18.2895 24.6004 18.5344 25.1547C20.8589 24.7248 22.9588 23.4929 24.4682 21.6736C25.9776 19.8543 26.8007 17.5631 26.7941 15.1992C26.7941 9.61448 22.2507 5.07104 16.666 5.07104C11.0813 5.07104 6.53784 9.61448 6.53784 15.1992C6.53754 16.926 6.97888 18.6243 7.8199 20.1325C7.84841 20.1823 7.86981 20.2358 7.88347 20.2915C7.9647 20.5173 7.95602 20.7657 7.85921 20.9853C7.76241 21.2048 7.58489 21.3788 7.3634 21.4711C6.82106 21.6994 6.23857 21.8169 5.65016 21.8168C5.5809 21.8168 5.51151 21.8152 5.44197 21.812C4.26114 21.7592 3.14944 21.2403 2.35062 20.3691C1.5518 19.4979 1.13106 18.3454 1.18066 17.1645C1.20059 16.6935 1.18947 16.2734 1.17859 15.867C1.16847 15.4845 1.15791 15.0889 1.17528 14.676C1.22713 13.523 1.72315 12.4347 2.55944 11.6391C3.39573 10.8435 4.50741 10.4024 5.66165 10.4081C7.51515 6.16736 11.7497 3.19604 16.666 3.19604C21.5822 3.19604 25.8168 6.16736 27.6703 10.4082C28.8247 10.4016 29.9367 10.8423 30.7732 11.6379C31.6096 12.4335 32.1054 13.5221 32.1566 14.6754C32.174 15.0888 32.1635 15.4844 32.1533 15.8669C32.1425 16.2733 32.1313 16.6937 32.1513 17.1649ZM24.5288 15.1992C24.5283 16.4038 24.2512 17.5922 23.7188 18.6727C23.1864 19.7533 22.4129 20.6971 21.4581 21.4314C20.5032 22.1658 19.3924 22.671 18.2114 22.9081C17.0304 23.1453 15.8107 23.108 14.6463 22.7992L11.4638 24.6371C11.3032 24.7298 11.1187 24.7729 10.9337 24.7608C10.7486 24.7486 10.5714 24.6819 10.4242 24.569C10.2771 24.4562 10.1668 24.3022 10.1072 24.1266C10.0476 23.951 10.0414 23.7617 10.0894 23.5825L10.9028 20.5483C9.55579 19.0923 8.8063 17.1826 8.80347 15.1992C8.80347 10.8624 12.3304 7.33454 16.666 7.33454C21.0015 7.33454 24.5288 10.8624 24.5288 15.1992ZM14.48 15.1992C14.48 14.9505 14.3813 14.7121 14.2054 14.5363C14.0296 14.3604 13.7912 14.2617 13.5425 14.2617H13.541C13.3556 14.262 13.1745 14.3173 13.0206 14.4205C12.8667 14.5237 12.7468 14.6703 12.6761 14.8416C12.6054 15.013 12.5871 15.2014 12.6234 15.3831C12.6598 15.5649 12.7492 15.7318 12.8804 15.8627C13.0116 15.9936 13.1787 16.0828 13.3605 16.1188C13.5423 16.1548 13.7307 16.1361 13.9019 16.0651C14.0731 15.9941 14.2194 15.874 14.3223 15.7198C14.4253 15.5657 14.4802 15.3845 14.4802 15.1992H14.48ZM17.6037 15.1992C17.6036 15.1685 17.6019 15.1378 17.5987 15.1073C17.5957 15.0767 17.5911 15.0462 17.585 15.016C17.5794 14.986 17.5718 14.9564 17.5624 14.9273C17.5537 14.8979 17.5431 14.8692 17.5318 14.8404C17.5206 14.8117 17.5068 14.7848 17.4925 14.7579C17.4782 14.7309 17.4625 14.7046 17.4456 14.6792C17.4285 14.6535 17.4101 14.6286 17.3905 14.6048C17.3713 14.5809 17.3506 14.5582 17.3287 14.5367C17.3075 14.5148 17.2843 14.4942 17.2606 14.4742C17.2368 14.4554 17.2118 14.4367 17.1862 14.4198C17.1607 14.4028 17.1345 14.3872 17.1075 14.3729C17.0805 14.3585 17.0525 14.3454 17.0243 14.3335C16.9961 14.3218 16.9674 14.3115 16.9381 14.3029C16.8796 14.2841 16.8193 14.272 16.7581 14.2667C16.6663 14.2578 16.5737 14.2622 16.4831 14.2798C16.4529 14.2859 16.4231 14.2937 16.3938 14.3029C16.3645 14.3115 16.3357 14.3217 16.3075 14.3335C16.2794 14.3454 16.2513 14.3585 16.2244 14.3729C16.1975 14.3873 16.1713 14.4029 16.1456 14.4198C16.1199 14.4367 16.095 14.4554 16.0719 14.4742C16.0475 14.4942 16.025 14.5148 16.0032 14.5367C15.9812 14.5582 15.9605 14.5809 15.9412 14.6048C15.9219 14.6286 15.9037 14.6535 15.8869 14.6792C15.8697 14.7046 15.8539 14.7309 15.8394 14.7579C15.825 14.7847 15.812 14.8122 15.8006 14.8404C15.7887 14.8688 15.7783 14.8978 15.7693 14.9273C15.7607 14.956 15.7532 14.986 15.7469 15.016C15.7407 15.0462 15.7361 15.0767 15.7331 15.1073C15.73 15.1379 15.7287 15.1685 15.7287 15.1992C15.7287 15.2298 15.73 15.261 15.7331 15.2917C15.7362 15.3221 15.7408 15.3523 15.7469 15.3823C15.7532 15.4123 15.7607 15.4423 15.7693 15.4717C15.7783 15.5009 15.7887 15.5297 15.8006 15.5579C15.812 15.5863 15.825 15.6141 15.8394 15.641C15.8537 15.6679 15.87 15.6942 15.8869 15.7198C15.9037 15.7453 15.9219 15.7699 15.9412 15.7935C15.9607 15.8175 15.9814 15.8404 16.0032 15.8623C16.025 15.8835 16.0475 15.9048 16.0719 15.9242C16.0954 15.9437 16.12 15.9618 16.1456 15.9785C16.1713 15.9954 16.1975 16.0117 16.2244 16.026C16.2787 16.0543 16.3354 16.0778 16.3938 16.096C16.4231 16.1048 16.4531 16.1123 16.4831 16.1185C16.5433 16.1309 16.6047 16.1369 16.6662 16.1367C16.9146 16.136 17.1526 16.0374 17.3287 15.8623C17.3719 15.8184 17.411 15.7707 17.4456 15.7198C17.4625 15.6942 17.4781 15.6679 17.4925 15.641C17.5068 15.6142 17.52 15.586 17.5318 15.5579C17.5437 15.5298 17.5537 15.5004 17.5624 15.4717C17.5718 15.4424 17.5793 15.4125 17.585 15.3823C17.5911 15.3523 17.5957 15.3221 17.5987 15.2917C17.6019 15.2609 17.6035 15.23 17.6035 15.199L17.6037 15.1992ZM20.7287 15.1992C20.7287 14.9505 20.6299 14.7121 20.4541 14.5363C20.2783 14.3604 20.0398 14.2617 19.7912 14.2617H19.7893C19.604 14.262 19.4229 14.3173 19.269 14.4205C19.1151 14.5238 18.9952 14.6703 18.9245 14.8417C18.8538 15.013 18.8355 15.2014 18.8719 15.3832C18.9083 15.5649 18.9977 15.7318 19.1289 15.8627C19.2601 15.9937 19.4271 16.0828 19.6089 16.1188C19.7907 16.1548 19.9791 16.1361 20.1503 16.0651C20.3215 15.9941 20.4678 15.874 20.5708 15.7198C20.6737 15.5657 20.7287 15.3845 20.7287 15.1992Z" fill="white"/>
  </g>
  <defs>
    <clipPath id="clip0_488_46102">
      <rect width="32" height="32" fill="white" transform="translate(0.666016)"/>
    </clipPath>
  </defs>
</svg>