<svg xmlns="http://www.w3.org/2000/svg" width="33" height="32" viewBox="0 0 33 32" fill="none">
  <path d="M18.934 25.2347H13.6991C12.7461 25.2347 12.7461 23.7947 13.6991 23.7947H18.934C19.8869 23.7947 19.8869 25.2347 18.934 25.2347Z" fill="white"/>
  <path d="M22.7184 28.1175H9.91199C8.95903 28.1175 8.95903 26.6775 9.91199 26.6775H22.7184C23.6713 26.6775 23.6713 28.1175 22.7184 28.1175Z" fill="white"/>
  <path d="M15.5956 3.88257C12.4219 4.05441 9.56395 5.33729 7.36523 7.31873L10.1092 10.0627C11.5713 8.79169 13.4443 7.93025 15.5956 7.77089V3.88257Z" fill="white"/>
  <path d="M6.80331 16.5673C6.95627 14.4697 7.78283 12.6111 9.09323 11.0822L6.34283 8.33179C4.34795 10.5475 3.07947 13.343 2.91211 16.5673H6.80331Z" fill="white"/>
  <path d="M6.79691 18.0073H2.91211C3.06251 20.8387 4.07371 23.4416 5.70955 25.542C5.95947 25.8627 6.43499 25.8976 6.74507 25.6345L8.60363 24.0601C8.90571 23.8041 8.93547 23.3632 8.69643 23.0473C7.62027 21.6256 6.93739 19.8921 6.79691 18.0073Z" fill="white"/>
  <path d="M27.8148 10.3396C27.1652 11.1374 26.2011 12.3204 25.1233 13.6404C25.5934 14.7655 25.8689 15.9914 25.8689 17.2874C25.8689 19.465 25.1403 21.4724 23.9134 23.0791C23.6817 23.3825 23.7473 23.8193 24.0391 24.065L25.8894 25.6225C26.2033 25.8868 26.6839 25.8506 26.9358 25.5265C28.7041 23.251 29.7569 20.3921 29.7569 17.2871C29.7572 14.7041 29.034 12.3441 27.8148 10.3396Z" fill="white"/>
  <path d="M26.9579 9.10979C24.6043 6.07266 21.0049 4.09762 17.0372 3.88354V7.77443C19.5047 7.96258 22.0395 9.11266 23.8391 11.4141C23.8391 11.4141 15.2663 17.7776 14.9614 18.0829C14.2603 18.784 14.2603 19.921 14.9614 20.6221C15.6625 21.3232 16.7995 21.3232 17.5006 20.6221C17.955 20.1674 26.9579 9.10979 26.9579 9.10979ZM26.922 9.15394C26.9223 9.15394 26.9223 9.15362 26.9223 9.15362L26.922 9.15394Z" fill="white"/>
</svg>