<svg xmlns="http://www.w3.org/2000/svg" width="24" height="24" viewBox="0 0 24 24" fill="none">
  <path fill-rule="evenodd" clip-rule="evenodd" d="M2 8.00998C2 7.67535 2.08397 7.34607 2.24421 7.05229L4.43148 3.04229C4.78195 2.39978 5.45539 2 6.18727 2H11.8127C12.5446 2 13.2181 2.39978 13.5685 3.04229L15.7558 7.05229C15.916 7.34607 16 7.67535 16 8.00998V20C16 21.1046 15.1046 22 14 22H4C2.89543 22 2 21.1046 2 20V8.00998ZM9 5C9.55228 5 10 5.44772 10 6.00001C10 6.55229 9.55228 6.99999 9 6.99999C8.44771 6.99999 8.00001 6.55229 8.00001 6.00001C8.00001 5.44772 8.44771 5 9 5ZM9.75 9.99999V10.3535C10.9043 10.68 11.75 11.7412 11.75 13V13.1C11.75 13.5142 11.4142 13.85 11 13.85C10.5858 13.85 10.25 13.5142 10.25 13.1V13C10.25 12.3097 9.69036 11.75 9 11.75H8.925C8.27606 11.75 7.75 12.2761 7.75 12.925C7.75 13.5739 8.27606 14.1 8.925 14.1H9.42501C10.7091 14.1 11.75 15.1409 11.75 16.425C11.75 17.5988 10.8802 18.5694 9.75 18.7275V19C9.75 19.4142 9.41421 19.75 9 19.75C8.58578 19.75 8.25 19.4142 8.25 19V18.7448C7.13258 18.6679 6.25 17.737 6.25 16.6C6.25 16.1858 6.58579 15.85 7 15.85C7.41422 15.85 7.75 16.1858 7.75 16.6C7.75 16.959 8.041 17.25 8.4 17.25H9.42501C9.88063 17.25 10.25 16.8806 10.25 16.425C10.25 15.9694 9.88063 15.6 9.42501 15.6H8.925C7.44763 15.6 6.25 14.4024 6.25 12.925C6.25 11.6808 7.09944 10.635 8.25 10.3359V9.99999C8.25 9.5858 8.58578 9.24999 9 9.24999C9.41421 9.24999 9.75 9.5858 9.75 9.99999Z" fill="#3A76F0"/>
  <path d="M20.9677 16.5731L17.5 18.5047V7C17.5 7 20.0032 10.979 21.7231 13.8531C22.2931 14.8054 21.9549 16.0232 20.9677 16.5731Z" fill="#3A76F0"/>
</svg>