<svg width="24" height="24" viewBox="0 0 24 24" fill="none" xmlns="http://www.w3.org/2000/svg">
<g id="Frame">
<path id="Vector" fill-rule="evenodd" clip-rule="evenodd" d="M20.2716 3.26113L20.2931 3.28265L20.7173 3.70691L20.7389 3.72843C21.1166 4.10613 21.4318 4.42138 21.6683 4.69998C21.915 4.99054 22.1198 5.29019 22.2367 5.65019C22.4162 6.20251 22.4162 6.79746 22.2367 7.34978C22.1198 7.70977 21.915 8.00942 21.6683 8.29999C21.4318 8.57858 21.1166 8.89384 20.7389 9.27154L20.7173 9.29305L20.2931 9.71732L20.2716 9.73883C19.894 10.1166 19.5786 10.4318 19.3 10.6683C19.0094 10.915 18.7098 11.1197 18.3498 11.2367C17.7975 11.4162 17.2025 11.4162 16.6502 11.2367C16.2902 11.1197 15.9906 10.915 15.7 10.6683C15.4214 10.4318 15.1061 10.1165 14.7284 9.73883L14.7069 9.71732L14.2827 9.29305L14.2611 9.27154C13.8834 8.89384 13.5682 8.57858 13.3317 8.29999C13.085 8.00942 12.8802 7.70977 12.7633 7.34978C12.5838 6.79746 12.5838 6.20251 12.7633 5.65019C12.8802 5.29019 13.085 4.99054 13.3317 4.69998C13.5682 4.42138 13.8834 4.10613 14.2611 3.72843L14.2827 3.70691L14.7069 3.28265L14.7284 3.26113C15.1061 2.88341 15.4214 2.56815 15.7 2.33164C15.9906 2.08496 16.2902 1.88023 16.6502 1.76326C17.2025 1.5838 17.7975 1.5838 18.3498 1.76326C18.7098 1.88023 19.0094 2.08496 19.3 2.33164C19.5786 2.56815 19.8939 2.88341 20.2716 3.26113ZM6.16957 2.24994H6.2H6.8H6.83044C7.36459 2.24993 7.81044 2.24992 8.17467 2.27968C8.55456 2.31072 8.91121 2.37783 9.24848 2.54967C9.76592 2.81333 10.1866 3.23402 10.4503 3.75147C10.6221 4.08873 10.6892 4.44539 10.7203 4.82527C10.75 5.1895 10.75 5.63533 10.75 6.16947V6.19994V6.79994V6.83037C10.75 7.36451 10.75 7.81039 10.7203 8.17461C10.6892 8.5545 10.6221 8.91115 10.4503 9.24842C10.1866 9.76586 9.76592 10.1866 9.24848 10.4502C8.91121 10.6221 8.55456 10.6892 8.17467 10.7202C7.81044 10.75 7.36459 10.75 6.83043 10.7499H6.8H6.2H6.16957C5.63542 10.75 5.18957 10.75 4.82533 10.7202C4.44545 10.6892 4.08879 10.6221 3.75153 10.4502C3.23408 10.1866 2.81339 9.76586 2.54973 9.24842C2.37789 8.91115 2.31078 8.5545 2.27974 8.17461C2.24998 7.81039 2.24999 7.36455 2.25 6.83041V6.79994V6.19994V6.16951C2.24999 5.63538 2.24998 5.1895 2.27974 4.82527C2.31078 4.44539 2.37789 4.08873 2.54973 3.75147C2.81339 3.23402 3.23408 2.81333 3.75153 2.54967C4.08879 2.37783 4.44545 2.31072 4.82533 2.27968C5.18956 2.24992 5.63541 2.24993 6.16957 2.24994ZM6.2 13.2499H6.16957C5.63541 13.2499 5.18956 13.2499 4.82533 13.2797C4.44545 13.3107 4.08879 13.3778 3.75153 13.5497C3.23408 13.8133 2.81339 14.234 2.54973 14.7515C2.37789 15.0887 2.31078 15.4454 2.27974 15.8253C2.24998 16.1895 2.24999 16.6353 2.25 17.1695V17.1999V17.7999V17.8304C2.24999 18.3645 2.24998 18.8104 2.27974 19.1746C2.31078 19.5545 2.37789 19.9112 2.54973 20.2484C2.81339 20.7659 3.23408 21.1866 3.75153 21.4502C4.08879 21.6221 4.44545 21.6892 4.82533 21.7202C5.18955 21.75 5.63537 21.75 6.16949 21.7499H6.2H6.8H6.83043C7.36455 21.75 7.81046 21.75 8.17467 21.7202C8.55456 21.6892 8.91121 21.6221 9.24848 21.4502C9.76592 21.1866 10.1866 20.7659 10.4503 20.2484C10.6221 19.9112 10.6892 19.5545 10.7203 19.1746C10.75 18.8104 10.75 18.3645 10.75 17.8304V17.7999V17.1999V17.1695C10.75 16.6353 10.75 16.1895 10.7203 15.8253C10.6892 15.4454 10.6221 15.0887 10.4503 14.7515C10.1866 14.234 9.76592 13.8133 9.24848 13.5497C8.91121 13.3778 8.55456 13.3107 8.17467 13.2797C7.81044 13.2499 7.36459 13.2499 6.83044 13.2499H6.8H6.2ZM17.1696 13.2499H17.2H17.8H17.8304C18.3646 13.2499 18.8104 13.2499 19.1747 13.2797C19.5546 13.3107 19.9112 13.3778 20.2485 13.5497C20.7659 13.8133 21.1866 14.234 21.4503 14.7515C21.6221 15.0887 21.6892 15.4454 21.7203 15.8253C21.75 16.1895 21.75 16.6354 21.75 17.1695V17.1999V17.7999V17.8304C21.75 18.3645 21.75 18.8104 21.7203 19.1746C21.6892 19.5545 21.6221 19.9112 21.4503 20.2484C21.1866 20.7659 20.7659 21.1866 20.2485 21.4502C19.9112 21.6221 19.5546 21.6892 19.1747 21.7202C18.8105 21.75 18.3646 21.75 17.8305 21.7499H17.8H17.2H17.1696C16.6355 21.75 16.1895 21.75 15.8253 21.7202C15.4454 21.6892 15.0888 21.6221 14.7515 21.4502C14.2341 21.1866 13.8134 20.7659 13.5497 20.2484C13.3779 19.9112 13.3108 19.5545 13.2797 19.1746C13.25 18.8104 13.25 18.3645 13.25 17.8304V17.7999V17.1999V17.1695C13.25 16.6354 13.25 16.1895 13.2797 15.8253C13.3108 15.4454 13.3779 15.0887 13.5497 14.7515C13.8134 14.234 14.2341 13.8133 14.7515 13.5497C15.0888 13.3778 15.4454 13.3107 15.8253 13.2797C16.1896 13.2499 16.6354 13.2499 17.1696 13.2499Z" fill="#3A76F0"/>
</g>
</svg>
