<svg xmlns="http://www.w3.org/2000/svg" width="24" height="24" viewBox="0 0 24 24" fill="none">
  <path d="M12 1.5C6.20165 1.5 1.5 6.20165 1.5 12C1.5 17.7984 6.20165 22.5 12 22.5C12.9684 22.5 13.75 21.7184 13.75 20.75C13.75 20.295 13.5809 19.8866 13.295 19.5775C13.0209 19.2684 12.8575 18.8659 12.8575 18.4166C12.8575 17.4483 13.6391 16.6666 14.6075 16.6666H16.6666C19.8866 16.6666 22.5 14.0533 22.5 10.8333C22.5 5.67665 17.7984 1.5 12 1.5ZM5.58335 12C4.615 12 3.83335 11.2184 3.83335 10.25C3.83335 9.28165 4.615 8.5 5.58335 8.5C6.5517 8.5 7.33335 9.28165 7.33335 10.25C7.33335 11.2184 6.55165 12 5.58335 12ZM9.08335 7.33335C8.115 7.33335 7.33335 6.5517 7.33335 5.58335C7.33335 4.615 8.115 3.83335 9.08335 3.83335C10.0517 3.83335 10.8334 4.615 10.8334 5.58335C10.8334 6.5517 10.0516 7.33335 9.08335 7.33335ZM14.9166 7.33335C13.9483 7.33335 13.1666 6.5517 13.1666 5.58335C13.1666 4.615 13.9483 3.83335 14.9166 3.83335C15.885 3.83335 16.6666 4.615 16.6666 5.58335C16.6666 6.5517 15.885 7.33335 14.9166 7.33335ZM18.4166 12C17.4483 12 16.6666 11.2184 16.6666 10.25C16.6666 9.28165 17.4483 8.5 18.4166 8.5C19.385 8.5 20.1666 9.28165 20.1666 10.25C20.1666 11.2184 19.385 12 18.4166 12Z" fill="#3A76F0"/>
</svg>